# Blender 3.6.17
# www.blender.org
mtllib banan.mtl
o banana_low
v -0.058514 0.070378 -0.005334
v -0.049875 0.074569 -0.007101
v -0.058414 0.070437 -0.019590
v -0.051059 0.075369 -0.018988
v -0.051496 0.058214 -0.002286
v -0.043592 0.071327 -0.009155
v -0.044647 0.066058 -0.016472
v -0.043307 0.071499 -0.015864
v -0.065511 0.060306 -0.005070
v -0.061931 0.064529 -0.020131
v -0.057085 0.053215 -0.002624
v -0.053289 0.055929 -0.024416
v -0.059855 0.067885 0.003589
v -0.052212 0.060718 0.003593
v -0.066069 0.060869 0.004814
v -0.056835 0.053417 0.006490
v -0.058313 0.070357 -0.012599
v -0.050367 0.075709 -0.012611
v -0.044683 0.065004 -0.013868
v -0.042663 0.072110 -0.012602
v -0.063994 0.062341 -0.012531
v -0.053451 0.052824 -0.012988
v -0.054018 0.053337 -0.006326
v -0.047118 0.066403 -0.008861
v -0.061106 0.056229 0.006317
v -0.055622 0.063608 0.004620
v -0.045115 0.033527 0.012447
v -0.037559 0.040488 0.006676
v -0.044409 0.038273 0.023309
v -0.034130 0.044826 0.016249
v -0.043920 0.072294 -0.016438
v -0.049045 0.063444 -0.022734
v -0.048197 0.063251 -0.012939
v -0.043096 0.072516 -0.012743
v -0.044069 0.072510 -0.009310
v -0.048792 0.063462 -0.006983
v -0.021189 0.066281 -0.016314
v -0.026403 0.057520 -0.017570
v -0.026553 0.054179 -0.012275
v -0.021282 0.067232 -0.012332
v -0.022733 0.065243 -0.007954
v -0.025459 0.054754 -0.007831
v -0.057796 0.053691 -0.004350
v -0.048865 0.064514 -0.005937
v -0.047707 0.062941 -0.016037
v -0.054876 0.055212 -0.017013
v -0.038016 0.031128 -0.005236
v -0.029162 0.044235 -0.005405
v -0.029087 0.042677 -0.015868
v -0.038278 0.032599 -0.015559
v -0.047641 0.063887 -0.014287
v -0.049473 0.064034 -0.022879
v -0.057586 0.054672 -0.015231
v -0.054435 0.056554 -0.023514
v -0.031289 0.045004 -0.026244
v -0.029789 0.052304 -0.033967
v -0.041111 0.038354 -0.033169
v -0.040449 0.041328 -0.041107
v -0.053708 0.072524 -0.006626
v -0.054441 0.073286 -0.019689
v -0.046600 0.068413 -0.019517
v -0.045584 0.068770 -0.008319
v -0.054311 0.073151 -0.012556
v -0.043865 0.068035 -0.016804
v -0.044899 0.068846 -0.008535
v -0.023415 0.061674 -0.018350
v -0.024486 0.058700 -0.006601
v -0.009485 0.065387 -0.021664
v -0.063654 0.065721 -0.005354
v -0.052562 0.057158 -0.004373
v -0.053222 0.059679 -0.025043
v -0.060157 0.067580 -0.020016
v -0.062514 0.065318 0.004939
v -0.056953 0.061520 0.006633
v -0.050200 0.057481 -0.014837
v -0.061889 0.066654 -0.012664
v -0.052768 0.054965 -0.003520
v -0.054231 0.058300 0.006848
v -0.040949 0.037647 0.007476
v -0.039395 0.042258 0.022125
v -0.051136 0.057739 -0.004995
v -0.050022 0.057660 -0.014642
v -0.033422 0.036517 -0.003798
v -0.033803 0.037661 -0.016622
v -0.052289 0.059087 -0.025365
v -0.050464 0.057089 -0.015147
v -0.035119 0.046884 -0.040525
v -0.035679 0.040814 -0.028626
v -0.066949 0.060476 0.001458
v -0.059133 0.069060 0.000732
v -0.052122 0.063717 -0.000211
v -0.059727 0.053459 0.002170
v -0.052121 0.061741 0.000992
v -0.058106 0.052647 0.002696
v -0.034535 0.043610 0.010896
v -0.046714 0.035913 0.017937
v -0.064142 0.066100 0.001168
v -0.038563 0.029279 0.010457
v -0.031542 0.033179 0.007928
v -0.033364 0.040343 0.032727
v -0.024323 0.043878 0.023804
v -0.026358 0.041064 0.013678
v -0.043543 0.026694 0.027133
v -0.043504 0.024565 0.015685
v -0.042382 0.034613 0.032129
v -0.026904 0.018148 0.008636
v -0.015537 0.023444 0.006603
v -0.017496 0.035468 0.043080
v -0.008642 0.040335 0.031465
v -0.008702 0.033603 0.017586
v -0.034076 0.015884 0.032632
v -0.034800 0.010484 0.019136
v -0.033095 0.029411 0.042173
v 0.030061 0.004078 0.015774
v -0.000798 -0.001045 0.016557
v 0.014466 0.009667 0.013326
v 0.010001 0.027463 0.053235
v 0.012606 0.034162 0.039369
v 0.015250 0.023544 0.022843
v -0.007730 0.001360 0.046030
v -0.008023 -0.007654 0.029822
v -0.006887 0.017010 0.056710
v 0.018714 -0.008261 0.020567
v 0.026836 0.023365 0.057568
v 0.028868 0.030217 0.043130
v 0.032640 0.018275 0.025672
v 0.014132 -0.006878 0.050798
v 0.013575 -0.015576 0.034894
v 0.019567 0.009657 0.063957
v 0.046968 0.000151 0.017957
v 0.045440 -0.013183 0.023540
v 0.048141 0.020428 0.060318
v 0.049515 0.026724 0.046551
v 0.048250 0.015907 0.028238
v 0.044766 -0.013009 0.053398
v 0.043014 -0.020865 0.038140
v 0.045783 0.005384 0.066946
v 0.075858 -0.001621 0.019669
v 0.075935 -0.012207 0.023383
v 0.075178 0.019716 0.060517
v 0.075374 0.025271 0.048269
v 0.075448 0.014796 0.030627
v 0.075591 -0.012989 0.054643
v 0.078546 -0.021411 0.038538
v 0.075192 0.004816 0.067369
v 0.111537 0.002335 0.019498
v 0.114002 -0.009392 0.024443
v 0.108778 0.021299 0.057152
v 0.108844 0.026336 0.045066
v 0.109530 0.017147 0.030480
v 0.112168 -0.007965 0.052182
v 0.113772 -0.016272 0.036903
v 0.110932 0.007554 0.063615
v 0.141369 0.007919 0.019995
v 0.142471 -0.002347 0.024361
v 0.139523 0.023613 0.050446
v 0.139301 0.027559 0.041461
v 0.140546 0.018789 0.027744
v 0.141653 0.001201 0.047299
v 0.142323 -0.007023 0.031822
v 0.140436 0.014637 0.055881
v 0.159683 0.013508 0.023307
v 0.159779 0.008421 0.024013
v 0.158493 0.023863 0.041624
v 0.157508 0.025568 0.035464
v 0.158691 0.019622 0.026512
v 0.159671 0.006626 0.038431
v 0.158829 0.002024 0.028570
v 0.160504 0.017707 0.045273
v 0.163044 0.018534 0.025000
v 0.164399 0.010754 0.025680
v 0.164101 0.022797 0.037554
v 0.162064 0.024094 0.031665
v 0.162281 0.021452 0.027599
v 0.166790 0.011822 0.035478
v 0.165848 0.008437 0.028743
v 0.165467 0.019315 0.040726
v 0.167009 0.018378 0.024960
v 0.167880 0.015793 0.025750
v 0.169385 0.022196 0.033791
v 0.167070 0.024694 0.031452
v 0.166991 0.022033 0.026791
v 0.170467 0.014424 0.033828
v 0.169434 0.011442 0.029188
v 0.170019 0.019671 0.037209
v -0.047236 0.063513 -0.019505
v -0.041552 0.038469 -0.036713
v -0.031417 0.052059 -0.028023
v -0.054456 0.055125 -0.020624
v -0.047478 0.064204 -0.019873
v -0.055854 0.055720 -0.019719
v -0.021858 0.050418 -0.029657
v -0.024325 0.052008 -0.037040
v -0.038819 0.028525 -0.045822
v -0.036919 0.036460 -0.051830
v -0.030945 0.046107 -0.045227
v -0.028807 0.032496 -0.028005
v -0.036914 0.025148 -0.036532
v -0.022129 0.042396 -0.024641
v -0.004443 0.051180 -0.050295
v -0.025711 0.028605 -0.067265
v -0.014219 0.043670 -0.060406
v 0.011598 0.047389 -0.056898
v -0.006404 0.017593 -0.080742
v 0.001410 0.035723 -0.071836
v 0.031668 0.043043 -0.063618
v 0.020219 0.008309 -0.089937
v 0.025194 0.028066 -0.081177
v 0.057486 0.040492 -0.066295
v 0.054536 0.006484 -0.093017
v 0.054472 0.026057 -0.084042
v 0.079335 0.040715 -0.066845
v 0.085920 0.008735 -0.090738
v 0.081910 0.027989 -0.082022
v 0.097791 0.043062 -0.063553
v 0.106965 0.013018 -0.086332
v 0.102957 0.031268 -0.077706
v 0.115602 0.045522 -0.059727
v 0.125302 0.019283 -0.079612
v 0.121121 0.035812 -0.071309
v 0.131359 0.047832 -0.054682
v 0.142977 0.029034 -0.069112
v 0.136924 0.040175 -0.064197
v 0.144776 0.048527 -0.048485
v 0.152903 0.035767 -0.059576
v 0.148803 0.042828 -0.056355
v 0.153517 0.047945 -0.043255
v 0.160667 0.040946 -0.047618
v 0.157293 0.045037 -0.045930
v 0.157641 0.047767 -0.041030
v 0.163362 0.041782 -0.042898
v 0.159997 0.046098 -0.042718
v -0.030665 0.018825 -0.056380
v 0.052065 -0.012201 -0.080880
v -0.030872 0.014363 -0.040100
v -0.015967 0.005695 -0.064471
v -0.015358 0.001106 -0.048234
v 0.016136 -0.008624 -0.075425
v 0.016848 -0.013138 -0.058461
v 0.052912 -0.017637 -0.062061
v 0.086976 -0.008260 -0.080333
v 0.087461 -0.014823 -0.060829
v 0.106875 -0.003670 -0.076280
v 0.106970 -0.009863 -0.056791
v 0.123999 0.002965 -0.070849
v 0.123690 -0.002630 -0.052692
v 0.142995 0.013947 -0.060742
v 0.140611 0.010171 -0.043936
v 0.151453 0.020891 -0.053915
v 0.149602 0.018210 -0.041047
v 0.159966 0.032874 -0.045060
v 0.158800 0.033342 -0.038129
v 0.163183 0.040707 -0.040246
v 0.162552 0.040258 -0.038211
v -0.024649 0.021819 -0.030182
v -0.014634 0.037514 -0.023034
v -0.007640 0.009928 -0.035937
v 0.005880 0.029777 -0.027539
v 0.019881 0.003643 -0.039518
v 0.028129 0.021059 -0.031954
v 0.055160 -0.000939 -0.043040
v 0.056785 0.018837 -0.035981
v 0.082100 0.002494 -0.041259
v 0.081736 0.018864 -0.035201
v 0.105419 0.007448 -0.038987
v 0.104519 0.022394 -0.033168
v 0.124189 0.013971 -0.036605
v 0.121380 0.026639 -0.031567
v 0.137244 0.021336 -0.034184
v 0.134297 0.030698 -0.030798
v 0.147550 0.028271 -0.033983
v 0.144533 0.034819 -0.031635
v 0.155675 0.036444 -0.035199
v 0.153377 0.040938 -0.033539
v 0.159918 0.041358 -0.035340
v 0.158687 0.043151 -0.034793
v -0.005831 0.045720 -0.031430
v 0.013307 0.041248 -0.039364
v 0.033977 0.037233 -0.044879
v 0.060151 0.035660 -0.049412
v 0.079019 0.036566 -0.049914
v 0.097718 0.039011 -0.048598
v 0.114064 0.041389 -0.045945
v 0.128946 0.042808 -0.041694
v 0.142980 0.045312 -0.039721
v 0.150864 0.046023 -0.037605
v 0.157252 0.046135 -0.036743
v 0.160776 0.043493 -0.037832
v -0.040632 0.031275 -0.010248
v -0.029225 0.047527 -0.010114
v -0.048217 0.064239 -0.009276
v -0.054742 0.053025 -0.009173
v -0.048276 0.063387 -0.009933
v -0.032360 0.011967 0.000929
v -0.032357 0.012441 -0.022840
v -0.035504 0.011781 -0.010713
v -0.021432 -0.000062 0.005471
v -0.020890 -0.002870 -0.024963
v -0.025053 -0.004343 -0.009889
v -0.003904 -0.016829 0.007472
v -0.004544 -0.016555 -0.025502
v -0.009542 -0.019087 -0.009379
v 0.018975 -0.026002 0.008987
v 0.019336 -0.026758 -0.025924
v 0.014402 -0.031415 -0.009027
v 0.053779 -0.029848 0.009947
v 0.051444 -0.030954 -0.026266
v 0.052656 -0.038142 -0.009200
v 0.081655 -0.029485 0.009160
v 0.082841 -0.030069 -0.025266
v 0.084948 -0.035820 -0.009203
v 0.109069 -0.022853 0.008445
v 0.109526 -0.022679 -0.025336
v 0.111170 -0.028735 -0.009208
v 0.129509 -0.013750 0.007136
v 0.129882 -0.013279 -0.024148
v 0.132074 -0.018811 -0.009178
v 0.143748 -0.004698 0.005676
v 0.143355 -0.004971 -0.022624
v 0.145821 -0.009691 -0.008218
v 0.157295 0.006191 0.002349
v 0.156700 0.005756 -0.019611
v 0.157494 0.000936 -0.006776
v 0.166700 0.016864 -0.003106
v 0.165688 0.016641 -0.014781
v 0.167688 0.015119 -0.008878
v 0.169265 0.020847 -0.004577
v 0.169445 0.019705 -0.012844
v 0.170118 0.019401 -0.008668
v -0.012203 0.037389 0.001250
v -0.010103 0.036487 -0.023751
v -0.010369 0.042184 -0.011115
v 0.004967 0.027978 0.005729
v 0.006841 0.026109 -0.027586
v 0.006730 0.033924 -0.010837
v 0.032663 0.017288 0.007990
v 0.036659 0.015677 -0.026573
v 0.037518 0.022694 -0.009864
v 0.052914 0.012459 0.009241
v 0.055295 0.011393 -0.026899
v 0.055757 0.019081 -0.009873
v 0.076122 0.011683 0.009304
v 0.078360 0.012284 -0.025894
v 0.079135 0.018910 -0.009315
v 0.099104 0.015039 0.007951
v 0.101864 0.015024 -0.025021
v 0.101389 0.020491 -0.009418
v 0.122226 0.018691 0.006458
v 0.123433 0.017934 -0.023831
v 0.123921 0.023525 -0.009467
v 0.138658 0.021626 0.004592
v 0.141317 0.020745 -0.021844
v 0.141121 0.026013 -0.009094
v 0.150445 0.023871 0.001743
v 0.153273 0.024768 -0.017336
v 0.152533 0.027632 -0.009000
v 0.160510 0.025539 -0.002230
v 0.158713 0.025357 -0.015475
v 0.157700 0.028353 -0.008957
v 0.165307 0.026394 -0.003924
v 0.165845 0.027138 -0.012689
v 0.164355 0.028924 -0.008756
v 0.166550 0.023632 -0.003112
v 0.162363 0.021165 -0.001072
v 0.153207 0.016236 0.003948
v 0.138964 0.009175 0.008065
v 0.122785 0.003046 0.010417
v 0.102685 -0.002730 0.012369
v 0.077897 -0.008746 0.013658
v 0.054326 -0.010536 0.013914
v 0.008961 0.002437 0.012146
v -0.004084 0.011442 0.010148
v -0.018337 0.026805 0.005126
v 0.022344 0.027213 -0.009675
v 0.020145 0.020729 -0.026614
v 0.017777 0.022429 0.006923
v 0.028039 -0.005575 0.013387
v 0.167355 0.024523 -0.013532
v 0.162367 0.020198 -0.016232
v 0.155179 0.015576 -0.020326
v 0.141790 0.009539 -0.024516
v 0.125640 0.003192 -0.027013
v 0.104615 -0.004372 -0.029189
v 0.081271 -0.008265 -0.030466
v 0.054966 -0.007797 -0.030985
v 0.029903 -0.001863 -0.030891
v 0.010418 0.005695 -0.030444
v -0.006412 0.011805 -0.029705
v -0.023699 0.026374 -0.025688
v 0.167856 0.024430 -0.008875
v -0.015155 0.047511 -0.024672
v -0.017605 0.046841 -0.013382
v -0.009213 0.067426 -0.013118
v -0.011541 0.064257 -0.004754
v -0.016179 0.047358 -0.004427
v -0.014532 0.056791 -0.025829
v -0.014330 0.056315 -0.001196
v 0.019030 0.060963 -0.028338
v 0.007117 0.036788 -0.031759
v 0.004500 0.033825 -0.015522
v 0.018799 0.062408 -0.015128
v 0.014551 0.058523 -0.001233
v 0.008870 0.035137 -0.003143
v 0.011691 0.048275 -0.034392
v 0.011712 0.047655 0.001629
v 0.037280 0.056299 -0.031822
v 0.025502 0.030089 -0.033501
v 0.021247 0.026884 -0.016042
v 0.037883 0.058655 -0.015815
v 0.033235 0.053165 -0.000486
v 0.026205 0.028776 -0.003013
v 0.029990 0.041322 -0.036909
v 0.029535 0.042185 0.001846
v 0.054907 0.053577 -0.032521
v 0.043141 0.026983 -0.035830
v 0.039078 0.021443 -0.016976
v 0.056105 0.055764 -0.016792
v 0.052060 0.049300 -0.000395
v 0.040671 0.024758 -0.003110
v 0.048910 0.039182 -0.038224
v 0.047503 0.035550 0.001614
v 0.077095 0.051118 -0.033337
v 0.064736 0.023424 -0.035187
v 0.061610 0.017951 -0.016906
v 0.077752 0.053771 -0.016759
v 0.073006 0.046911 -0.000626
v 0.064382 0.020843 -0.003931
v 0.068849 0.036450 -0.038924
v 0.068939 0.032478 0.001380
v 0.096090 0.052574 -0.032622
v 0.083493 0.024099 -0.035921
v 0.078346 0.017807 -0.015974
v 0.096617 0.054423 -0.017011
v 0.092001 0.047227 -0.001030
v 0.082602 0.020870 -0.004231
v 0.087079 0.038048 -0.038867
v 0.087748 0.034012 0.001137
v 0.114013 0.054777 -0.031690
v 0.105532 0.027282 -0.034916
v 0.104393 0.020692 -0.016930
v 0.114446 0.056276 -0.017020
v 0.110290 0.049637 -0.001959
v 0.105819 0.024002 -0.004520
v 0.106754 0.041777 -0.037501
v 0.105749 0.035351 0.000226
v 0.133147 0.056963 -0.030584
v 0.125523 0.033197 -0.033099
v 0.127451 0.027452 -0.019145
v 0.133372 0.058700 -0.016692
v 0.129670 0.052137 -0.003175
v 0.124460 0.028828 -0.005259
v 0.125933 0.044481 -0.035630
v 0.127946 0.040385 -0.001612
v 0.145308 0.058109 -0.029163
v 0.142868 0.040127 -0.031717
v 0.144149 0.035046 -0.018132
v 0.144986 0.060243 -0.016670
v 0.141715 0.054788 -0.004813
v 0.138496 0.035133 -0.005703
v 0.139686 0.048112 -0.033747
v 0.140687 0.044329 -0.003247
v 0.158387 0.060200 -0.023812
v 0.158333 0.049621 -0.027527
v 0.158477 0.044996 -0.017842
v 0.158169 0.062003 -0.016864
v 0.155486 0.057906 -0.009069
v 0.156996 0.046269 -0.008451
v 0.157806 0.055207 -0.027277
v 0.154748 0.050347 -0.006665
v 0.163845 0.062150 -0.019753
v 0.167193 0.057786 -0.020895
v 0.167843 0.056468 -0.017578
v 0.163893 0.062076 -0.017664
v 0.164426 0.061305 -0.014698
v 0.167825 0.057101 -0.015352
v 0.165527 0.059786 -0.021132
v 0.166472 0.058495 -0.014538
v 0.001945 0.065694 -0.014049
v -0.001353 0.062551 -0.002467
v -0.005556 0.040951 -0.027841
v -0.004841 0.052693 -0.030504
v 0.001922 0.064286 -0.025261
v -0.007304 0.042678 -0.003323
v -0.009563 0.041339 -0.014422
v -0.004349 0.052143 0.000854
v -0.062822 0.066161 -0.008800
v -0.064748 0.061329 -0.008821
v -0.057704 0.054118 -0.009087
v 0.166003 0.059080 -0.017618
v 0.168609 0.018891 0.029640
vn -0.5234 0.8493 0.0688
vn -0.0573 0.9966 0.0590
vn 0.0421 0.8362 -0.5468
vn -0.2556 0.7516 -0.6081
vn 0.6258 0.5636 -0.5393
vn 0.5143 0.1097 -0.8506
vn 0.5374 -0.1708 0.8259
vn 0.5466 0.5951 0.5891
vn 0.0840 0.7023 0.7069
vn -0.1600 0.6902 0.7057
vn -0.7525 0.6478 0.1186
vn -0.9829 -0.1717 0.0669
vn -0.7649 -0.0371 0.6431
vn -0.3902 0.5477 0.7401
vn 0.6669 0.7451 0.0010
vn -0.9689 -0.0994 -0.2265
vn -0.4610 -0.8340 -0.3031
vn -0.5149 -0.8496 -0.1141
vn -0.9649 -0.1874 -0.1838
vn -0.6411 0.4842 -0.5954
vn -0.2718 0.1644 -0.9482
vn -0.6465 -0.4266 -0.6324
vn -0.8379 -0.0055 -0.5458
vn -0.2389 -0.6903 0.6829
vn -0.5505 -0.8346 -0.0188
vn -0.9164 -0.4003 -0.0090
vn -0.6806 -0.1574 0.7156
vn 0.1430 0.2897 0.9464
vn -0.4767 -0.4136 0.7757
vn 0.7746 0.4702 0.4230
vn 0.0236 0.9488 0.3149
vn 0.0237 0.8082 0.5885
vn 0.4888 0.5647 0.6650
vn -0.6821 -0.7228 0.1110
vn -0.2444 -0.8396 -0.4852
vn -0.7173 -0.5105 -0.4742
vn -0.9430 -0.2888 0.1652
vn -0.5680 -0.8211 0.0564
vn -0.2655 0.3605 -0.8942
vn 0.4843 0.6003 -0.6365
vn 0.0572 0.9592 -0.2770
vn -0.3841 0.6806 -0.6239
vn -0.8166 0.5697 -0.0927
vn -0.8218 0.5621 -0.0927
vn -0.9423 -0.2697 -0.1984
vn 0.3041 -0.5290 -0.7922
vn -0.3063 -0.9333 -0.1874
vn 0.7715 -0.5983 0.2163
vn 0.0885 0.4633 0.8818
vn 0.6333 0.6678 0.3912
vn 0.8912 0.4116 0.1907
vn 0.9148 -0.1097 -0.3887
vn 0.7990 0.0483 0.5994
vn -0.6308 -0.1460 0.7621
vn -0.8113 -0.4668 -0.3519
vn -0.8970 -0.3105 0.3145
vn -0.7969 0.3101 0.5185
vn -0.2463 0.8002 0.5468
vn 0.2957 0.9475 0.1216
vn 0.6235 0.6156 -0.4820
vn 0.4387 0.0590 -0.8967
vn -0.0612 -0.4236 -0.9038
vn 0.4874 -0.7305 0.4784
vn -0.0271 -0.9972 -0.0693
vn -0.5912 -0.8011 -0.0936
vn -0.5409 -0.5778 0.6113
vn -0.5375 -0.7804 -0.3194
vn 0.3207 0.4628 0.8264
vn 0.5532 0.8291 0.0813
vn 0.1426 -0.0146 0.9897
vn 0.8668 -0.4465 0.2221
vn 0.7980 -0.5945 0.0988
vn 0.5847 0.5310 -0.6133
vn -0.2730 0.2425 -0.9309
vn -0.0414 0.8114 -0.5831
vn -0.1220 0.8187 -0.5611
vn -0.4127 0.2494 -0.8761
vn -0.5069 -0.4486 -0.7361
vn -0.6301 -0.4708 -0.6175
vn -0.6224 -0.7823 -0.0240
vn 0.3861 0.0357 -0.9218
vn 0.0990 0.9910 0.0899
vn -0.2538 0.0507 0.9659
vn 0.3316 -0.6388 -0.6942
vn 0.3477 -0.0945 0.9328
vn 0.8087 0.1020 0.5793
vn 0.9638 0.2552 0.0765
vn -0.3683 -0.6182 -0.6944
vn 0.5255 -0.2381 -0.8168
vn 0.7436 -0.6140 -0.2647
vn -0.2208 0.1593 0.9622
vn 0.9735 -0.0280 -0.2270
vn 0.0967 0.6084 -0.7877
vn -0.2441 0.1885 -0.9513
vn 0.5030 0.8640 -0.0220
vn 0.9183 -0.1031 0.3822
vn 0.8983 0.4150 0.1443
vn 0.8914 -0.0996 -0.4421
vn -0.7345 -0.1565 -0.6603
vn -0.6756 -0.7048 -0.2163
vn 0.2993 -0.7431 0.5985
vn -0.6931 -0.5829 0.4241
vn -0.9369 -0.3168 -0.1479
vn -0.9323 -0.2834 -0.2246
vn -0.7830 -0.4697 0.4078
vn 0.4991 0.7359 0.4576
vn -0.0733 -0.9705 0.2298
vn -0.1879 -0.4347 0.8807
vn -0.0200 0.6795 0.7334
vn -0.5249 -0.5974 0.6063
vn -0.2980 0.0897 0.9503
vn -0.0669 0.7223 0.6883
vn 0.0526 0.9957 0.0764
vn -0.2717 0.9230 0.2726
vn -0.6399 0.7684 -0.0017
vn -0.4766 0.7055 -0.5245
vn 0.3079 0.3225 -0.8951
vn 0.1383 0.0258 0.9901
vn -0.8227 0.2054 -0.5301
vn -0.7734 0.2931 -0.5621
vn -0.6974 -0.1382 -0.7032
vn 0.1786 0.6123 0.7702
vn -0.3635 -0.3422 -0.8665
vn -0.8212 0.5644 -0.0846
vn 0.1093 0.1131 -0.9875
vn -0.7611 0.2822 0.5841
vn 0.1708 0.1109 -0.9791
vn -0.2611 -0.4124 -0.8728
vn 0.3966 0.7133 -0.5779
vn 0.4002 0.6911 -0.6019
vn -0.6466 -0.7242 -0.2398
vn -0.7046 -0.5355 0.4655
vn -0.5656 0.1166 0.8164
vn -0.2532 0.8207 0.5122
vn 0.1714 0.9850 0.0184
vn 0.3657 0.6811 -0.6343
vn 0.2113 0.0774 -0.9744
vn -0.1219 -0.6202 -0.7749
vn -0.4405 -0.8947 -0.0734
vn -0.4946 -0.6323 0.5964
vn -0.3823 -0.0077 0.9240
vn 0.2575 0.9660 0.0253
vn -0.0984 0.7483 0.6560
vn -0.0214 0.7164 0.6974
vn 0.2591 0.9658 0.0128
vn 0.0046 0.6989 0.7152
vn 0.2062 0.9782 -0.0255
vn -0.2659 -0.9640 -0.0024
vn -0.2989 -0.7052 0.6429
vn -0.2020 -0.0719 0.9767
vn 0.2677 0.6853 -0.6773
vn -0.0661 -0.6670 -0.7422
vn 0.1618 0.0645 -0.9847
vn 0.0986 0.0677 -0.9928
vn -0.0143 -0.6798 -0.7333
vn 0.1583 0.7073 -0.6890
vn 0.1093 0.9933 -0.0373
vn -0.0988 -0.9951 0.0036
vn 0.0121 0.6921 0.7217
vn -0.1096 -0.7538 0.6479
vn -0.0763 -0.1160 0.9903
vn 0.0111 0.9992 -0.0383
vn 0.0123 0.7249 -0.6887
vn 0.0405 -0.6502 -0.7586
vn 0.0716 -0.9974 -0.0067
vn 0.0251 0.7009 0.7128
vn 0.0558 -0.7516 0.6572
vn 0.0481 -0.1093 0.9929
vn 0.0282 0.0886 -0.9957
vn -0.0048 0.1076 -0.9942
vn 0.1148 -0.6575 -0.7446
vn -0.0806 0.7268 -0.6821
vn -0.0407 0.9966 -0.0722
vn 0.2237 -0.9747 0.0042
vn 0.0587 0.7204 0.6910
vn 0.2365 -0.7189 0.6537
vn 0.1879 -0.0825 0.9787
vn 0.4100 -0.6575 0.6322
vn 0.3547 0.0168 0.9348
vn 0.1752 0.7488 0.6392
vn 0.0482 0.1119 -0.9925
vn 0.2270 -0.5993 -0.7677
vn -0.0826 0.7107 -0.6986
vn 0.0136 0.9972 -0.0732
vn 0.3808 -0.9227 -0.0602
vn 0.3832 -0.4062 -0.8296
vn 0.5411 -0.8205 -0.1843
vn 0.3442 0.7871 0.5119
vn 0.1100 0.9848 -0.1347
vn 0.5696 -0.6322 0.5253
vn 0.5612 0.0567 0.8257
vn 0.1945 0.1435 -0.9704
vn -0.1279 0.6622 -0.7384
vn -0.0232 0.9681 -0.2493
vn -0.1717 0.7171 -0.6755
vn 0.4664 -0.3333 -0.8194
vn 0.6718 -0.6998 -0.2427
vn 0.3661 0.8287 0.4233
vn 0.6412 -0.5807 0.5016
vn 0.6337 0.1837 0.7515
vn -0.0177 0.3319 -0.9432
vn 0.8399 0.2167 0.4977
vn 0.7874 0.6114 0.0785
vn 0.4660 0.2250 -0.8557
vn 0.6683 -0.0629 -0.7413
vn 0.4351 0.6256 -0.6475
vn 0.3891 0.9092 -0.1483
vn 0.8522 -0.4660 -0.2376
vn 0.9308 -0.2925 0.2191
vn 0.9380 0.1979 -0.2845
vn -0.3687 -0.2939 0.8819
vn -0.0184 0.9922 -0.1232
vn -0.3880 0.7691 -0.5078
vn -0.0219 0.1905 0.9814
vn 0.2038 0.7966 0.5691
vn 0.0837 0.9835 -0.1606
vn -0.2510 0.7411 -0.6227
vn -0.6262 0.1693 -0.7611
vn 0.1507 0.9686 -0.1980
vn -0.1367 0.6520 -0.7458
vn -0.4454 -0.0093 -0.8953
vn 0.0956 0.9663 -0.2390
vn -0.0685 0.6032 -0.7947
vn -0.2395 -0.1110 -0.9645
vn 0.0233 0.9741 -0.2250
vn -0.0099 0.5969 -0.8023
vn -0.0179 -0.0967 -0.9952
vn -0.0454 0.9676 -0.2484
vn 0.0376 0.6057 -0.7948
vn 0.1463 -0.0680 -0.9869
vn -0.0812 0.9716 -0.2224
vn 0.0868 0.6175 -0.7818
vn 0.2872 -0.0322 -0.9573
vn -0.0776 0.9742 -0.2120
vn 0.1329 0.6396 -0.7571
vn 0.4270 0.0074 -0.9042
vn -0.0378 0.9846 -0.1709
vn 0.2192 0.6736 -0.7058
vn 0.5626 0.0874 -0.8221
vn 0.0517 0.9921 -0.1146
vn 0.3603 0.7124 -0.6022
vn 0.7026 0.1786 -0.6888
vn 0.1047 0.9912 -0.0812
vn 0.4398 0.7297 -0.5236
vn 0.8068 0.2213 -0.5479
vn 0.3197 0.9465 0.0441
vn 0.6225 0.7572 -0.1979
vn 0.9347 0.2611 -0.2412
vn -0.8002 -0.4492 -0.3975
vn -0.6509 -0.6886 0.3198
vn -0.6091 -0.6479 -0.4574
vn -0.4500 -0.8599 0.2408
vn -0.3204 -0.7870 -0.5273
vn -0.2205 -0.9540 0.2033
vn -0.0308 -0.8070 -0.5898
vn -0.0079 -0.9813 0.1923
vn 0.1956 -0.7665 -0.6117
vn 0.1500 -0.9712 0.1853
vn 0.3708 -0.7270 -0.5778
vn 0.2697 -0.9354 0.2285
vn 0.5380 -0.6684 -0.5137
vn 0.4047 -0.8781 0.2553
vn 0.6923 -0.5939 -0.4098
vn 0.4820 -0.7892 0.3804
vn 0.8073 -0.5151 -0.2880
vn 0.6189 -0.6565 0.4312
vn 0.8955 -0.4138 -0.1640
vn 0.7200 -0.4817 0.4995
vn 0.9890 0.0451 0.1410
vn 0.8518 -0.0880 0.5164
vn -0.2689 -0.4801 0.8350
vn 0.0909 0.0731 0.9932
vn -0.0902 -0.6039 0.7920
vn 0.2294 0.0545 0.9718
vn -0.0153 -0.5930 0.8051
vn 0.1690 0.0519 0.9843
vn 0.0165 -0.5896 0.8075
vn 0.0593 0.1347 0.9891
vn 0.0176 -0.5634 0.8260
vn -0.0632 0.1409 0.9880
vn 0.0532 -0.5549 0.8302
vn -0.1116 0.1379 0.9841
vn 0.0963 -0.5363 0.8385
vn -0.1230 0.1351 0.9832
vn 0.1740 -0.4648 0.8682
vn -0.0617 0.1488 0.9869
vn 0.3306 -0.3583 0.8731
vn 0.0389 0.1702 0.9847
vn 0.4106 -0.2851 0.8661
vn 0.0577 0.2374 0.9697
vn 0.5938 0.0324 0.8040
vn 0.3829 0.3650 0.8486
vn 0.3333 0.7414 0.5825
vn 0.3477 0.7578 0.5521
vn 0.2276 0.7962 0.5607
vn 0.0553 0.8348 0.5478
vn -0.0889 0.8405 0.5344
vn -0.1833 0.8308 0.5255
vn -0.2220 0.8180 0.5306
vn -0.2276 0.7890 0.5706
vn -0.2018 0.8031 0.5606
vn -0.1585 0.7926 0.5888
vn 0.2415 0.7809 0.5760
vn 0.7426 0.5439 0.3907
vn -0.9205 -0.3908 0.0030
vn -0.7104 -0.2106 0.6716
vn -0.6932 -0.2218 -0.6857
vn 0.1147 0.6462 -0.7545
vn 0.2155 0.5523 -0.8054
vn -0.1062 0.0260 -0.9940
vn -0.2872 0.2096 -0.9346
vn -0.5379 -0.4449 -0.7160
vn -0.3746 -0.5800 -0.7234
vn -0.5775 -0.8163 0.0149
vn -0.7603 -0.6492 0.0219
vn -0.5661 -0.3559 0.7435
vn 0.1896 0.6274 0.7553
vn -0.1382 0.1111 0.9842
vn -0.0789 0.0462 0.9958
vn 0.1874 0.6305 0.7532
vn -0.4124 -0.5547 0.7227
vn -0.0398 0.0109 0.9991
vn 0.1421 0.6372 0.7575
vn -0.3076 -0.9515 0.0068
vn -0.2067 -0.6378 0.7420
vn -0.1950 -0.6460 -0.7380
vn -0.0480 -0.9988 0.0039
vn -0.0315 -0.6493 0.7599
vn -0.0361 -0.6575 -0.7526
vn 0.1625 -0.9867 -0.0050
vn 0.1101 -0.6568 0.7460
vn 0.1122 -0.6635 -0.7398
vn 0.3446 -0.9387 -0.0126
vn 0.2486 -0.6161 0.7474
vn 0.2479 -0.6091 -0.7533
vn 0.4932 -0.8697 -0.0182
vn 0.3572 -0.5588 0.7484
vn 0.3610 -0.5456 -0.7563
vn 0.6144 -0.7889 0.0054
vn 0.4529 -0.4752 0.7544
vn 0.4662 -0.4804 -0.7428
vn 0.7380 -0.6736 0.0397
vn 0.6036 -0.3509 0.7159
vn 0.6019 -0.3796 -0.7026
vn 0.8310 -0.5562 -0.0136
vn 0.7101 -0.2718 0.6495
vn 0.6738 -0.2745 -0.6861
vn 0.9949 -0.0982 0.0249
vn 0.8648 0.0908 0.4938
vn 0.8551 -0.0687 -0.5139
vn 0.1045 0.6749 0.7305
vn 0.3182 0.9475 -0.0316
vn 0.4127 0.9107 -0.0184
vn 0.3397 0.9405 -0.0103
vn 0.2192 0.5930 -0.7748
vn 0.2463 0.9688 -0.0276
vn 0.0603 0.6299 0.7743
vn 0.1036 0.9941 -0.0318
vn 0.1547 0.6173 -0.7714
vn 0.0700 0.6051 -0.7930
vn -0.0148 0.6404 0.7679
vn -0.0468 0.9987 -0.0176
vn -0.0093 0.6398 -0.7685
vn -0.0527 0.6781 0.7331
vn -0.1123 0.9933 -0.0270
vn -0.0448 0.6515 -0.7573
vn -0.0534 0.6888 0.7230
vn -0.1325 0.9902 -0.0443
vn -0.0383 0.6472 -0.7613
vn -0.0120 0.6937 0.7202
vn -0.1398 0.9894 -0.0404
vn 0.0227 0.6380 -0.7697
vn 0.0695 0.7077 0.7031
vn -0.0987 0.9949 -0.0207
vn 0.0682 0.7089 -0.7020
vn 0.1166 0.7002 0.7044
vn -0.0595 0.9982 -0.0098
vn 0.1219 0.6814 -0.7217
vn 0.4452 0.7004 0.5579
vn 0.3253 0.9450 0.0354
vn 0.4724 0.7319 -0.4910
vn -0.2388 0.2356 0.9421
vn -0.0052 -0.0123 0.9999
vn 0.0314 -0.0001 0.9995
vn 0.0630 0.0336 0.9974
vn 0.0985 0.0565 0.9935
vn 0.1676 0.0899 0.9818
vn 0.3012 0.1609 0.9399
vn 0.3720 0.1970 0.9071
vn 0.6193 0.3635 0.6960
vn 0.3660 0.1866 -0.9117
vn 0.6793 0.4077 -0.6102
vn 0.3254 0.1430 -0.9347
vn 0.1903 0.0803 -0.9784
vn 0.1071 0.0427 -0.9933
vn 0.0662 0.0062 -0.9978
vn 0.0366 -0.0112 -0.9993
vn 0.0130 -0.0074 -0.9999
vn -0.0071 0.0117 -0.9999
vn -0.0198 0.0108 -0.9997
vn 0.8575 0.5116 0.0535
vn 0.1566 0.9835 0.0902
vn 0.0703 0.6975 0.7131
vn 0.1344 0.6607 0.7385
vn 0.2070 0.9720 0.1113
vn -0.4903 -0.6125 -0.6200
vn -0.2800 0.1686 -0.9451
vn -0.1501 0.1440 -0.9781
vn -0.3666 -0.6063 -0.7057
vn 0.0031 0.8196 -0.5729
vn 0.0836 0.8050 -0.5874
vn -0.3842 -0.6644 0.6410
vn -0.5049 -0.8631 0.0130
vn -0.4051 -0.9142 0.0111
vn -0.2944 -0.6959 0.6550
vn -0.1395 -0.0078 0.9902
vn -0.0567 -0.0407 0.9976
vn -0.2320 -0.7101 0.6648
vn -0.0321 -0.0665 0.9973
vn 0.1364 0.6133 0.7779
vn 0.1910 0.9736 0.1247
vn -0.0930 0.0733 -0.9930
vn -0.2670 -0.6603 -0.7019
vn 0.0865 0.7609 -0.6431
vn -0.3254 -0.9456 -0.0052
vn 0.0723 0.7705 -0.6333
vn -0.0358 0.0763 -0.9964
vn -0.2137 -0.9765 -0.0285
vn -0.1594 -0.7368 0.6570
vn -0.1592 -0.6469 -0.7458
vn -0.0164 -0.1317 0.9912
vn 0.0998 0.5926 0.7993
vn 0.1306 0.9838 0.1230
vn 0.0266 0.9905 0.1346
vn 0.0106 0.7678 -0.6406
vn -0.0079 0.0484 -0.9988
vn -0.0826 -0.9960 -0.0344
vn -0.0468 -0.7723 0.6336
vn -0.0466 -0.7016 -0.7111
vn 0.0111 -0.1549 0.9879
vn 0.0376 0.5910 0.8058
vn 0.0386 -0.1299 0.9908
vn -0.0123 0.5972 0.8020
vn -0.0762 0.9875 0.1381
vn 0.0236 0.0793 -0.9966
vn 0.0634 -0.6808 -0.7297
vn -0.0509 0.7956 -0.6037
vn 0.0531 -0.9983 -0.0247
vn 0.0657 -0.7737 0.6302
vn 0.1739 -0.6532 -0.7370
vn 0.1961 -0.9790 -0.0558
vn 0.1756 -0.7582 0.6279
vn 0.0791 -0.1335 0.9879
vn -0.0335 0.6068 0.7941
vn -0.1120 0.9833 0.1437
vn 0.0607 0.1069 -0.9924
vn -0.0573 0.7997 -0.5977
vn -0.0383 0.7865 -0.6164
vn 0.0995 0.0806 -0.9918
vn 0.3482 -0.9314 -0.1060
vn 0.2829 -0.7349 0.6163
vn 0.2670 -0.6137 -0.7430
vn 0.1276 -0.1124 0.9854
vn -0.0198 0.5874 0.8090
vn -0.1205 0.9829 0.1390
vn 0.1735 0.1185 -0.9777
vn 0.4021 -0.5287 -0.7475
vn -0.1122 0.9861 0.1228
vn 0.0512 0.7616 -0.6460
vn 0.4972 -0.8642 -0.0765
vn 0.3874 -0.6704 0.6329
vn 0.2146 -0.0839 0.9731
vn 0.0266 0.6052 0.7956
vn 0.3636 0.0149 0.9314
vn 0.1626 0.6249 0.7636
vn -0.0894 0.9885 0.1223
vn 0.3628 0.2511 -0.8974
vn 0.5895 -0.3701 -0.7180
vn 0.1178 0.7993 -0.5892
vn 0.6715 -0.7383 -0.0624
vn 0.6006 -0.5012 0.6229
vn 0.9910 -0.1252 -0.0476
vn 0.9393 0.0509 0.3392
vn 0.9035 0.0861 -0.4199
vn 0.7435 0.3881 0.5446
vn 0.4728 0.7270 0.4979
vn 0.3984 0.9150 0.0639
vn 0.6761 0.5242 -0.5178
vn 0.3842 0.8621 -0.3305
vn 0.8009 0.5988 -0.0013
vt 0.508670 0.043001
vt 0.508043 0.054062
vt 0.493117 0.051615
vt 0.491862 0.042202
vt 0.429207 0.030435
vt 0.438624 0.029728
vt 0.452098 0.043347
vt 0.440204 0.049051
vt 0.476381 0.033080
vt 0.466916 0.035341
vt 0.465182 0.020114
vt 0.471743 0.012261
vt 0.541725 0.015885
vt 0.543446 0.001707
vt 0.551374 0.004206
vt 0.551040 0.017586
vt 0.460612 0.040826
vt 0.452558 0.024060
vt 0.384306 0.035224
vt 0.385582 0.059432
vt 0.371305 0.057217
vt 0.375220 0.033931
vt 0.410740 0.034602
vt 0.414189 0.061671
vt 0.406123 0.064736
vt 0.403232 0.038066
vt 0.565423 0.686274
vt 0.557955 0.689622
vt 0.526516 0.620168
vt 0.539787 0.608660
vt 0.322823 0.034211
vt 0.331349 0.020362
vt 0.343221 0.026445
vt 0.336839 0.041437
vt 0.303470 0.026951
vt 0.317357 0.011518
vt 0.323134 0.016190
vt 0.317257 0.029224
vt 0.601079 0.810905
vt 0.612732 0.820915
vt 0.538668 0.844251
vt 0.530121 0.828704
vt 0.351367 0.027136
vt 0.345402 0.050011
vt 0.241020 0.580562
vt 0.223662 0.579940
vt 0.236044 0.496906
vt 0.269333 0.506842
vt 0.526920 0.015654
vt 0.518745 0.017343
vt 0.518712 0.005088
vt 0.527622 0.002188
vt 0.522741 0.044009
vt 0.521319 0.054185
vt 0.058116 0.031453
vt 0.065582 0.038114
vt 0.062771 0.042943
vt 0.052797 0.030458
vt 0.074159 0.014867
vt 0.064853 0.012894
vt 0.067705 0.001812
vt 0.077204 0.004293
vt 0.058554 0.012545
vt 0.054968 0.024051
vt 0.038172 0.015258
vt 0.053682 0.009162
vt 0.076563 0.030707
vt 0.079540 0.022695
vt 0.092476 0.019723
vt 0.080625 0.035018
vt 0.518441 0.859984
vt 0.497387 0.841578
vt 0.594934 0.788289
vt 0.592510 0.803459
vt 0.516793 0.814988
vt 0.515037 0.794383
vt 0.606889 0.771682
vt 0.600794 0.776996
vt 0.515801 0.766770
vt 0.524802 0.749932
vt 0.606329 0.747633
vt 0.606028 0.758110
vt 0.535662 0.732004
vt 0.541149 0.718652
vt 0.853092 0.478729
vt 0.868214 0.481396
vt 0.885360 0.538645
vt 0.873754 0.545902
vt 0.396749 0.062294
vt 0.054477 0.052398
vt 0.049553 0.046420
vt 0.053323 0.041421
vt 0.018214 0.005233
vt 0.011029 0.007625
vt 0.010005 0.006599
vt 0.017543 0.002128
vt 0.022665 0.009027
vt 0.024361 0.008764
vt 0.017471 0.021889
vt 0.028168 0.014894
vt 0.030747 0.020421
vt 0.020660 0.028004
vt 0.005578 0.012870
vt 0.002706 0.012337
vt 0.796334 0.543412
vt 0.811548 0.550081
vt 0.799197 0.584564
vt 0.775752 0.572196
vt 0.898546 0.527038
vt 0.931656 0.557024
vt 0.902684 0.565366
vt 0.809493 0.483882
vt 0.819263 0.484393
vt 0.828120 0.486473
vt 0.824163 0.550206
vt 0.845442 0.483275
vt 0.861353 0.547536
vt 0.874771 0.477430
vt 0.048611 0.029593
vt 0.037035 0.019102
vt 0.030542 0.023120
vt 0.042082 0.048746
vt 0.040244 0.059362
vt 0.029802 0.041735
vt 0.029777 0.042553
vt 0.580789 0.687177
vt 0.562461 0.604584
vt 0.630804 0.687944
vt 0.614226 0.692374
vt 0.636730 0.607519
vt 0.657911 0.615614
vt 0.605859 0.692161
vt 0.611582 0.613599
vt 0.018712 0.032062
vt 0.011167 0.036312
vt 0.009094 0.035556
vt 0.014079 0.057928
vt 0.023343 0.058917
vt 0.026711 0.062128
vt 0.014705 0.061767
vt 0.008774 0.056227
vt 0.006559 0.057902
vt 0.029632 0.043931
vt 0.138374 0.505032
vt 0.126943 0.504675
vt 0.103031 0.474095
vt 0.125142 0.464720
vt 0.213192 0.579573
vt 0.214959 0.506558
vt 0.185472 0.581583
vt 0.170823 0.586540
vt 0.164166 0.497592
vt 0.160638 0.582839
vt 0.837839 0.484963
vt 0.839710 0.548365
vt 0.803857 0.482134
vt 0.784755 0.534049
vt 0.884954 0.577277
vt 0.863047 0.579289
vt 0.842102 0.581722
vt 0.820203 0.584584
vt 0.008450 0.020449
vt 0.001714 0.026566
vt 0.526265 0.031794
vt 0.509099 0.031456
vt 0.488477 0.026510
vt 0.478941 0.001808
vt 0.417768 0.030994
vt 0.427434 0.056075
vt 0.492585 0.030701
vt 0.203765 0.583744
vt 0.188675 0.495300
vt 0.111298 0.509474
vt 0.082711 0.490712
vt 0.032030 0.055958
vt 0.004825 0.043600
vt 0.002953 0.043431
vt 0.648106 0.689909
vt 0.676112 0.623293
vt 0.597555 0.692922
vt 0.593053 0.606110
vt 0.024616 0.027576
vt 0.612966 0.736026
vt 0.544991 0.697140
vt 0.524218 0.697334
vt 0.533143 0.677063
vt 0.250571 0.583323
vt 0.287789 0.520538
vt 0.491944 0.022806
vt 0.509520 0.019273
vt 0.540615 0.029165
vt 0.547609 0.026250
vt 0.508936 0.716215
vt 0.491643 0.821686
vt 0.366035 0.032623
vt 0.360257 0.055771
vt 0.288628 0.022355
vt 0.305980 0.002354
vt 0.462958 0.698244
vt 0.486429 0.680599
vt 0.495569 0.745639
vt 0.444755 0.732387
vt 0.503024 0.647722
vt 0.468273 0.859710
vt 0.461942 0.825574
vt 0.480311 0.800938
vt 0.478024 0.768794
vt 0.382159 0.717441
vt 0.385306 0.676279
vt 0.417634 0.643295
vt 0.432508 0.606860
vt 0.399119 0.874149
vt 0.397127 0.834525
vt 0.434562 0.767414
vt 0.437742 0.800974
vt 0.372415 0.799553
vt 0.380460 0.765229
vt 0.487221 0.888182
vt 0.332921 0.798965
vt 0.339766 0.762276
vt 0.410200 0.915561
vt 0.352759 0.924195
vt 0.347513 0.881681
vt 0.338449 0.835121
vt 0.337152 0.709694
vt 0.368273 0.630784
vt 0.377651 0.590793
vt 0.344714 0.666796
vt 0.301188 0.660180
vt 0.301837 0.624114
vt 0.297270 0.707497
vt 0.288601 0.759272
vt 0.304723 0.583526
vt 0.284176 0.795026
vt 0.277130 0.882354
vt 0.281393 0.831810
vt 0.277879 0.924195
vt 0.226548 0.755470
vt 0.229475 0.706190
vt 0.227915 0.630850
vt 0.218512 0.588268
vt 0.223737 0.786046
vt 0.191437 0.909719
vt 0.208438 0.869541
vt 0.218770 0.821717
vt 0.228897 0.657883
vt 0.144675 0.667177
vt 0.137835 0.638024
vt 0.149766 0.708602
vt 0.151484 0.746354
vt 0.134207 0.604882
vt 0.151725 0.774062
vt 0.110173 0.879076
vt 0.130310 0.843678
vt 0.144989 0.805489
vt 0.072066 0.810673
vt 0.087857 0.781782
vt 0.090086 0.761448
vt 0.079223 0.681530
vt 0.074168 0.657231
vt 0.082544 0.709784
vt 0.088729 0.742251
vt 0.069469 0.637241
vt 0.046717 0.841620
vt 0.037580 0.685693
vt 0.035095 0.667338
vt 0.050074 0.750463
vt 0.049373 0.736921
vt 0.014711 0.807727
vt 0.032407 0.789349
vt 0.046086 0.765026
vt 0.038970 0.697355
vt 0.041979 0.713156
vt 0.036715 0.730751
vt 0.034132 0.719138
vt 0.026334 0.691491
vt 0.019549 0.684319
vt 0.035275 0.746159
vt 0.005191 0.786039
vt 0.018307 0.773090
vt 0.033146 0.757440
vt 0.031210 0.709923
vt 0.020406 0.752409
vt 0.020181 0.742006
vt 0.021596 0.710429
vt 0.018914 0.704156
vt 0.022505 0.720241
vt 0.024584 0.733058
vt 0.011524 0.692351
vt 0.001895 0.774872
vt 0.010883 0.764321
vt 0.366359 0.017119
vt 0.355750 0.018004
vt 0.357289 0.005551
vt 0.366890 0.004558
vt 0.159745 0.463789
vt 0.148416 0.580102
vt 0.242768 0.477525
vt 0.277280 0.489411
vt 0.011828 0.023913
vt 0.194046 0.462159
vt 0.312254 0.499680
vt 0.220266 0.471307
vt 0.270499 0.417586
vt 0.304650 0.436096
vt 0.348241 0.461428
vt 0.282200 0.375626
vt 0.332301 0.393035
vt 0.383661 0.407557
vt 0.293804 0.322126
vt 0.353799 0.331150
vt 0.407872 0.338746
vt 0.296821 0.254705
vt 0.355150 0.258061
vt 0.407872 0.254044
vt 0.296139 0.198913
vt 0.344763 0.191331
vt 0.395239 0.178356
vt 0.287272 0.153755
vt 0.330667 0.141299
vt 0.378083 0.128494
vt 0.277409 0.112550
vt 0.311536 0.099290
vt 0.354000 0.085396
vt 0.264806 0.078274
vt 0.290766 0.064367
vt 0.316441 0.045490
vt 0.249954 0.050343
vt 0.270229 0.038801
vt 0.285381 0.024321
vt 0.236688 0.031540
vt 0.243784 0.020541
vt 0.251110 0.008977
vt 0.230013 0.022272
vt 0.234511 0.015250
vt 0.239108 0.002446
vt 0.079856 0.443734
vt 0.115594 0.438447
vt 0.043468 0.453470
vt 0.014717 0.393456
vt 0.066564 0.399448
vt 0.101638 0.396808
vt 0.001704 0.320343
vt 0.053664 0.323439
vt 0.089965 0.324587
vt 0.052000 0.247791
vt 0.092116 0.251403
vt 0.002341 0.235716
vt 0.063523 0.176124
vt 0.104450 0.183636
vt 0.020748 0.161721
vt 0.078594 0.136008
vt 0.117561 0.146326
vt 0.041614 0.112783
vt 0.096332 0.101383
vt 0.130992 0.114091
vt 0.068479 0.070602
vt 0.126371 0.063546
vt 0.155055 0.079931
vt 0.106577 0.030754
vt 0.145904 0.046795
vt 0.166699 0.060848
vt 0.139230 0.012007
vt 0.174433 0.025782
vt 0.187383 0.033051
vt 0.175678 0.006380
vt 0.193362 0.013901
vt 0.196653 0.017876
vt 0.188932 0.008630
vt 0.144475 0.439517
vt 0.190463 0.438281
vt 0.136713 0.393556
vt 0.193547 0.385558
vt 0.142837 0.332687
vt 0.190257 0.327277
vt 0.146634 0.254039
vt 0.195858 0.256101
vt 0.157680 0.196146
vt 0.196571 0.196002
vt 0.165944 0.147047
vt 0.199150 0.144344
vt 0.173826 0.108561
vt 0.201050 0.108340
vt 0.182813 0.081484
vt 0.202313 0.081970
vt 0.189372 0.059197
vt 0.203833 0.060785
vt 0.197728 0.037296
vt 0.209003 0.038906
vt 0.204443 0.023837
vt 0.209622 0.025360
vt 0.223236 0.424830
vt 0.235697 0.373051
vt 0.243112 0.318061
vt 0.251086 0.249484
vt 0.252374 0.201055
vt 0.250911 0.155364
vt 0.245698 0.117887
vt 0.236057 0.086010
vt 0.230664 0.056264
vt 0.224156 0.039709
vt 0.219025 0.025460
vt 0.106064 0.012216
vt 0.107050 0.001708
vt 0.113567 0.008006
vt 0.113859 0.013294
vt 0.102855 0.021928
vt 0.107830 0.020634
vt 0.093405 0.009141
vt 0.096166 0.001708
vt 0.096077 0.021808
vt 0.546988 0.691462
vt 0.511711 0.629118
vt 0.493333 0.574785
vt 0.513548 0.556920
vt 0.464705 0.589692
vt 0.655869 0.548270
vt 0.672912 0.503190
vt 0.713256 0.527389
vt 0.685494 0.575261
vt 0.437482 0.547928
vt 0.419021 0.497752
vt 0.457937 0.493845
vt 0.473189 0.536490
vt 0.504857 0.522728
vt 0.586367 0.497753
vt 0.542963 0.499743
vt 0.536040 0.466314
vt 0.586511 0.464597
vt 0.490042 0.477458
vt 0.532191 0.422729
vt 0.586608 0.426717
vt 0.448422 0.439293
vt 0.486700 0.430330
vt 0.407838 0.435446
vt 0.448365 0.359059
vt 0.491920 0.361385
vt 0.407838 0.359589
vt 0.458458 0.292266
vt 0.497129 0.305689
vt 0.419955 0.286568
vt 0.475156 0.237610
vt 0.510743 0.251202
vt 0.437943 0.221951
vt 0.495104 0.193565
vt 0.525837 0.209871
vt 0.464593 0.174189
vt 0.515390 0.166009
vt 0.540938 0.180850
vt 0.488205 0.143195
vt 0.538265 0.142488
vt 0.557694 0.151214
vt 0.521480 0.116526
vt 0.564288 0.114285
vt 0.574190 0.123962
vt 0.554760 0.102511
vt 0.573813 0.107584
vt 0.581482 0.115022
vt 0.567207 0.099625
vt 0.590585 0.545924
vt 0.622433 0.551887
vt 0.628058 0.505039
vt 0.630760 0.462157
vt 0.677079 0.467905
vt 0.634809 0.421717
vt 0.585524 0.376139
vt 0.637084 0.373383
vt 0.682079 0.423378
vt 0.686201 0.373183
vt 0.587671 0.320945
vt 0.635753 0.313631
vt 0.680212 0.314015
vt 0.592534 0.267988
vt 0.633503 0.259940
vt 0.672234 0.256627
vt 0.594011 0.217400
vt 0.628777 0.208741
vt 0.663111 0.206984
vt 0.594448 0.182924
vt 0.622452 0.171576
vt 0.652245 0.167794
vt 0.595445 0.157986
vt 0.617367 0.146941
vt 0.636492 0.142661
vt 0.596755 0.134241
vt 0.614677 0.135535
vt 0.630869 0.130687
vt 0.597236 0.122065
vt 0.610619 0.120137
vt 0.620425 0.114633
vt 0.559351 0.545713
vt 0.532375 0.365728
vt 0.540455 0.315651
vt 0.552614 0.263364
vt 0.560978 0.221108
vt 0.569109 0.187224
vt 0.578516 0.156267
vt 0.585812 0.132540
vt 0.589759 0.120801
vt 0.723868 0.592022
vt 0.755469 0.556854
vt 0.646460 0.107996
vt 0.640900 0.119176
vt 0.626261 0.109541
vt 0.635876 0.100476
vt 0.679391 0.124780
vt 0.657442 0.134604
vt 0.711754 0.153294
vt 0.677994 0.163417
vt 0.736092 0.184145
vt 0.697464 0.199333
vt 0.763153 0.231915
vt 0.719183 0.247933
vt 0.786374 0.295095
vt 0.732220 0.303824
vt 0.795518 0.371136
vt 0.736518 0.369240
vt 0.796077 0.449915
vt 0.730119 0.433356
vt 0.781286 0.511489
vt 0.720115 0.484205
vt 0.396389 0.012443
vt 0.409551 0.014431
vt 0.402022 0.025033
vt 0.394753 0.026276
vt 0.398510 0.001710
vt 0.405303 0.004570
vt 0.386071 0.001710
vt 0.383548 0.011355
vt 0.386297 0.021376
vt 0.752004 0.565686
vt 0.817515 0.611027
vt 0.844571 0.605574
vt 0.848089 0.641602
vt 0.815383 0.650184
vt 0.732520 0.590847
vt 0.762199 0.596687
vt 0.750284 0.636836
vt 0.721669 0.624722
vt 0.791954 0.611938
vt 0.784696 0.651725
vt 0.892070 0.598752
vt 0.915049 0.585955
vt 0.929844 0.620830
vt 0.903885 0.636471
vt 0.950194 0.582694
vt 0.970572 0.612747
vt 0.868991 0.603129
vt 0.873661 0.639272
vt 0.912541 0.676553
vt 0.879923 0.680378
vt 0.853350 0.685414
vt 0.815048 0.695597
vt 0.736190 0.682583
vt 0.706367 0.672248
vt 0.776346 0.696154
vt 0.940897 0.661781
vt 0.985769 0.661319
vt 0.775632 0.739755
vt 0.735385 0.729877
vt 0.949156 0.703972
vt 0.917344 0.709407
vt 0.998061 0.706471
vt 0.889876 0.722458
vt 0.857045 0.730127
vt 0.814774 0.740183
vt 0.702799 0.718247
vt 0.818433 0.793406
vt 0.776563 0.796028
vt 0.734701 0.780259
vt 0.952034 0.755643
vt 0.922423 0.761812
vt 0.998061 0.762418
vt 0.893831 0.770908
vt 0.860218 0.779815
vt 0.699522 0.773834
vt 0.890900 0.812541
vt 0.861632 0.823969
vt 0.822289 0.838920
vt 0.743995 0.824853
vt 0.707476 0.820772
vt 0.784846 0.842584
vt 0.949092 0.793372
vt 0.921729 0.801189
vt 0.997796 0.810466
vt 0.986773 0.865697
vt 0.944121 0.850940
vt 0.916338 0.850287
vt 0.890638 0.851314
vt 0.861608 0.864827
vt 0.827687 0.879623
vt 0.759172 0.871471
vt 0.722967 0.874667
vt 0.794636 0.884159
vt 0.806507 0.925461
vt 0.773512 0.915505
vt 0.936076 0.902237
vt 0.909676 0.888650
vt 0.968515 0.914040
vt 0.886269 0.897462
vt 0.863701 0.905277
vt 0.835734 0.919802
vt 0.746291 0.921399
vt 0.789503 0.944376
vt 0.773971 0.957988
vt 0.841430 0.943411
vt 0.816073 0.949820
vt 0.919102 0.936831
vt 0.900515 0.917107
vt 0.947416 0.955291
vt 0.882877 0.923128
vt 0.863885 0.929548
vt 0.877332 0.951480
vt 0.863532 0.957719
vt 0.849409 0.970470
vt 0.820699 0.978046
vt 0.809511 0.984979
vt 0.834263 0.975256
vt 0.900119 0.966626
vt 0.886140 0.954691
vt 0.913970 0.986192
vt 0.876631 0.990155
vt 0.872048 0.987245
vt 0.881793 0.997066
vt 0.867958 0.984657
vt 0.860132 0.982023
vt 0.852546 0.983700
vt 0.842527 0.991447
vt 0.840195 0.997346
vt 0.847689 0.985402
vt 0.205122 0.008613
vt 0.213497 0.007328
vt 0.213103 0.014830
vt 0.208510 0.016507
vt 0.509942 0.007963
vt 0.491862 0.014502
vt 0.197786 0.009785
vt 0.201263 0.017146
vt 0.197786 0.004858
vt 0.202196 0.001722
vt 0.210682 0.001903
vt 0.381315 0.015926
vt 0.376629 0.002049
vt 0.379434 0.028900
vt 0.365972 0.028900
vt 0.359712 0.026701
s 1
usemtl Material
f 63/1/1 18/2/2 4/3/3 60/4/4
f 60/5/4 4/6/3 31/7/5 61/8/6
f 62/9/7 35/10/8 2/11/9 59/12/10
f 97/13/11 89/14/12 15/15/13 73/16/14
f 34/17/15 18/18/2 2/11/9 35/10/8
f 21/19/16 53/20/17 488/21/18 487/22/19
f 72/23/20 71/24/21 54/25/22 10/26/23
f 23/27/24 292/28/25 289/29/26 47/30/27
f 74/31/28 73/32/14 15/33/13 25/34/29
f 91/35/30 90/36/31 13/37/32 26/38/33
f 94/39/34 11/40/35 27/41/36 96/42/37
f 89/43/12 92/44/38 25/34/29 15/33/13
f 85/45/39 32/46/40 56/47/41 87/48/42
f 69/49/43 486/50/44 487/51/19 9/52/45
f 31/7/5 4/6/3 18/18/2 34/17/15
f 59/53/10 2/54/9 18/2/2 63/1/1
f 77/55/46 11/56/35 43/57/47 70/58/48
f 78/59/49 14/60/50 26/61/33 74/62/28
f 93/63/51 5/64/52 44/65/53 91/66/30
f 94/67/34 16/68/54 25/69/29 92/70/38
f 96/42/37 27/41/36 104/71/55 103/72/56
f 78/73/49 16/74/54 29/75/57 80/76/58
f 93/77/51 14/78/50 30/79/59 95/80/60
f 77/81/46 5/82/52 28/83/61 79/84/62
f 24/85/63 19/86/64 39/87/65 42/88/66
f 10/26/23 191/89/67 53/20/17 21/19/16
f 488/90/18 292/91/25 23/92/24 43/57/47
f 6/93/68 20/94/69 34/95/15 35/96/8
f 65/97/70 6/93/68 35/96/8 62/98/7
f 19/99/64 24/100/63 291/101/71 51/102/72
f 20/94/69 8/103/73 31/104/5 34/95/15
f 66/105/74 37/106/75 68/107/76 396/108/77
f 39/87/65 38/109/78 391/110/79 392/111/80
f 64/112/81 8/113/73 37/106/75 66/105/74
f 8/113/73 20/114/69 40/115/82 37/106/75
f 65/116/70 24/85/63 42/88/66 67/117/83
f 19/86/64 7/118/84 38/109/78 39/87/65
f 81/119/85 36/120/86 44/65/53 70/58/48
f 36/120/86 293/121/87 291/101/71 44/65/53
f 22/122/88 292/91/25 488/90/18 53/123/17
f 82/124/89 22/122/88 53/123/17 75/125/90
f 81/126/85 23/27/24 47/30/27 83/127/91
f 82/128/89 33/129/92 49/130/93 84/131/94
f 33/129/92 293/132/87 290/133/95 49/130/93
f 45/134/96 186/135/97 190/136/98 51/102/72
f 12/137/99 189/138/100 191/139/67 54/140/22
f 85/141/39 12/137/99 54/140/22 71/142/21
f 86/143/101 45/134/96 51/102/72 75/125/90
f 57/144/102 187/145/103 194/146/104 198/147/105
f 32/46/40 186/148/97 188/149/106 56/47/41
f 86/150/101 46/151/107 57/144/102 88/152/108
f 46/151/107 189/153/100 187/145/103 57/144/102
f 20/114/69 6/154/68 41/155/109 40/115/82
f 6/154/68 65/116/70 67/117/83 41/155/109
f 7/156/84 64/112/81 66/105/74 38/157/78
f 67/117/83 42/88/66 395/158/110 397/159/111
f 40/115/82 41/155/109 394/160/112 393/161/113
f 24/100/63 65/97/70 62/98/7 44/65/53
f 8/103/73 64/162/81 61/163/6 31/104/5
f 1/164/114 59/53/10 63/1/1 17/165/115
f 44/166/53 62/9/7 59/12/10 1/167/114
f 3/168/116 60/5/4 61/8/6 52/169/117
f 17/165/115 63/1/1 60/4/4 3/170/116
f 45/171/96 86/150/101 88/152/108 55/172/118
f 187/145/103 58/173/119 195/174/120 194/146/104
f 46/175/107 86/143/101 75/125/90 53/123/17
f 32/176/40 85/141/39 71/142/21 52/177/117
f 22/178/88 82/128/89 84/131/94 50/179/121
f 36/180/86 81/126/85 83/127/91 48/181/122
f 33/182/92 82/124/89 75/125/90 51/102/72
f 23/92/24 81/119/85 70/58/48 43/57/47
f 11/183/35 77/81/46 79/84/62 27/184/36
f 14/78/50 78/73/49 80/76/58 30/79/59
f 27/184/36 79/84/62 98/185/123 104/186/55
f 16/68/54 78/59/49 74/62/28 25/69/29
f 5/64/52 77/55/46 70/58/48 44/65/53
f 12/187/99 85/45/39 87/48/42 58/188/119
f 26/38/33 13/37/32 73/32/14 74/31/28
f 17/165/115 3/170/116 72/189/20 76/190/124
f 3/168/116 52/169/117 71/24/21 72/23/20
f 90/191/31 97/13/11 73/16/14 13/192/32
f 1/164/114 69/49/43 97/13/11 90/191/31
f 79/84/62 28/83/61 99/193/125 98/185/123
f 5/82/52 93/77/51 95/80/60 28/83/61
f 29/75/57 96/42/37 103/72/56 105/194/126
f 11/56/35 94/67/34 92/70/38 43/57/47
f 14/60/50 93/63/51 91/66/30 26/61/33
f 9/195/45 43/196/47 92/44/38 89/43/12
f 16/74/54 94/39/34 96/42/37 29/75/57
f 44/197/53 1/198/114 90/36/31 91/35/30
f 69/49/43 9/52/45 89/14/12 97/13/11
f 98/185/123 99/193/125 107/199/127 106/200/128
f 99/193/125 102/201/129 110/202/130 107/199/127
f 104/186/55 98/185/123 106/200/128 112/203/131
f 105/194/126 103/72/56 111/204/132 113/205/133
f 30/79/59 80/76/58 100/206/134 101/207/135
f 95/80/60 30/79/59 101/207/135 102/201/129
f 80/76/58 29/75/57 105/194/126 100/206/134
f 28/83/61 95/80/60 102/201/129 99/193/125
f 107/199/127 110/202/130 119/208/136 116/209/137
f 112/203/131 106/200/128 115/210/138 121/211/139
f 113/205/133 111/204/132 120/212/140 122/213/141
f 109/214/142 108/215/143 117/216/144 118/217/145
f 102/201/129 101/207/135 109/214/142 110/202/130
f 100/206/134 105/194/126 113/205/133 108/215/143
f 103/72/56 104/71/55 112/218/131 111/204/132
f 101/207/135 100/206/134 108/215/143 109/214/142
f 118/217/145 117/216/144 124/219/146 125/220/147
f 120/212/140 121/221/139 128/222/148 127/223/149
f 117/216/144 122/213/141 129/224/150 124/219/146
f 119/208/136 118/217/145 125/220/147 126/225/151
f 106/200/128 107/199/127 116/209/137 115/210/138
f 110/202/130 109/214/142 118/217/145 119/208/136
f 108/215/143 113/205/133 122/213/141 117/216/144
f 111/204/132 112/218/131 121/221/139 120/212/140
f 122/213/141 120/212/140 127/223/149 129/224/150
f 121/211/139 115/210/138 123/226/152 128/227/148
f 116/209/137 119/208/136 126/225/151 114/228/153
f 115/210/138 116/209/137 114/228/153 123/226/152
f 123/226/152 114/228/153 130/229/154 131/230/155
f 114/228/153 126/225/151 134/231/156 130/229/154
f 126/225/151 125/220/147 133/232/157 134/231/156
f 128/227/148 123/226/152 131/230/155 136/233/158
f 125/220/147 124/219/146 132/234/159 133/232/157
f 129/224/150 127/223/149 135/235/160 137/236/161
f 124/219/146 129/224/150 137/236/161 132/234/159
f 127/223/149 128/222/148 136/237/158 135/235/160
f 134/231/156 133/232/157 141/238/162 142/239/163
f 136/233/158 131/230/155 139/240/164 144/241/165
f 133/232/157 132/234/159 140/242/166 141/238/162
f 135/235/160 136/237/158 144/243/165 143/244/167
f 137/236/161 135/235/160 143/244/167 145/245/168
f 132/234/159 137/236/161 145/245/168 140/242/166
f 131/230/155 130/229/154 138/246/169 139/240/164
f 130/229/154 134/231/156 142/239/163 138/246/169
f 139/240/164 138/246/169 146/247/170 147/248/171
f 138/246/169 142/239/163 150/249/172 146/247/170
f 142/239/163 141/238/162 149/250/173 150/249/172
f 144/241/165 139/240/164 147/248/171 152/251/174
f 141/238/162 140/242/166 148/252/175 149/250/173
f 143/244/167 144/243/165 152/253/174 151/254/176
f 145/245/168 143/244/167 151/254/176 153/255/177
f 140/242/166 145/245/168 153/255/177 148/252/175
f 153/255/177 151/254/176 159/256/178 161/257/179
f 148/252/175 153/255/177 161/257/179 156/258/180
f 147/248/171 146/247/170 154/259/181 155/260/182
f 146/247/170 150/249/172 158/261/183 154/259/181
f 150/249/172 149/250/173 157/262/184 158/261/183
f 152/251/174 147/248/171 155/260/182 160/263/185
f 149/250/173 148/252/175 156/258/180 157/262/184
f 151/254/176 152/253/174 160/264/185 159/256/178
f 160/263/185 155/260/182 163/265/186 168/266/187
f 157/262/184 156/258/180 164/267/188 165/268/189
f 159/256/178 160/264/185 168/269/187 167/270/190
f 161/257/179 159/256/178 167/270/190 169/271/191
f 156/258/180 161/257/179 169/271/191 164/267/188
f 155/260/182 154/259/181 162/272/192 163/265/186
f 154/259/181 158/261/183 166/273/193 162/272/192
f 158/261/183 157/262/184 165/268/189 166/273/193
f 166/273/193 165/268/189 173/274/194 174/275/195
f 168/266/187 163/265/186 171/276/196 176/277/197
f 165/268/189 164/267/188 172/278/198 173/274/194
f 167/270/190 168/269/187 176/279/197 175/280/199
f 169/271/191 167/270/190 175/280/199 177/281/200
f 164/267/188 169/271/191 177/281/200 172/278/198
f 163/265/186 162/272/192 170/282/201 171/276/196
f 162/272/192 166/273/193 174/275/195 170/282/201
f 172/278/198 177/281/200 185/283/202 180/284/203
f 171/276/196 170/282/201 178/285/204 179/286/205
f 170/282/201 174/275/195 182/287/206 178/285/204
f 174/275/195 173/274/194 181/288/207 182/287/206
f 176/277/197 171/276/196 179/286/205 184/289/208
f 173/274/194 172/278/198 180/284/203 181/288/207
f 175/280/199 176/279/197 184/290/208 183/291/209
f 177/281/200 175/280/199 183/291/209 185/283/202
f 490/292/210 182/293/206 181/294/207 180/295/203
f 10/26/23 54/25/22 191/89/67
f 88/152/108 57/144/102 198/147/105 197/296/211
f 190/136/98 186/135/97 32/176/40 52/177/117
f 187/145/103 189/153/100 12/297/99 58/173/119
f 87/48/42 56/47/41 193/298/212 196/299/213
f 190/136/98 7/300/84 19/99/64 51/102/72
f 188/149/106 186/148/97 45/171/96 55/172/118
f 191/139/67 189/138/100 46/175/107 53/123/17
f 55/172/118 88/152/108 197/296/211 199/301/214
f 58/188/119 87/48/42 196/299/213 195/302/120
f 188/149/106 55/172/118 199/301/214 192/303/215
f 56/47/41 188/149/106 192/303/215 193/298/212
f 196/299/213 193/298/212 200/304/216 202/305/217
f 195/302/120 196/299/213 202/305/217 201/306/218
f 202/305/217 200/304/216 203/307/219 205/308/220
f 201/306/218 202/305/217 205/308/220 204/309/221
f 205/308/220 203/307/219 206/310/222 208/311/223
f 204/309/221 205/308/220 208/311/223 207/312/224
f 208/311/223 206/310/222 209/313/225 211/314/226
f 207/312/224 208/311/223 211/314/226 210/315/227
f 211/314/226 209/313/225 212/316/228 214/317/229
f 210/315/227 211/314/226 214/317/229 213/318/230
f 214/317/229 212/316/228 215/319/231 217/320/232
f 213/318/230 214/317/229 217/320/232 216/321/233
f 217/320/232 215/319/231 218/322/234 220/323/235
f 216/321/233 217/320/232 220/323/235 219/324/236
f 220/323/235 218/322/234 221/325/237 223/326/238
f 219/324/236 220/323/235 223/326/238 222/327/239
f 223/326/238 221/325/237 224/328/240 226/329/241
f 222/327/239 223/326/238 226/329/241 225/330/242
f 226/329/241 224/328/240 227/331/243 229/332/244
f 225/330/242 226/329/241 229/332/244 228/333/245
f 229/332/244 227/331/243 230/334/246 232/335/247
f 228/333/245 229/332/244 232/335/247 231/336/248
f 198/147/105 194/146/104 233/337/249 235/338/250
f 194/146/104 195/174/120 201/339/218 233/337/249
f 233/337/249 201/339/218 204/340/221 236/341/251
f 235/338/250 233/337/249 236/341/251 237/342/252
f 236/341/251 204/340/221 207/343/224 238/344/253
f 237/342/252 236/341/251 238/344/253 239/345/254
f 239/345/254 238/344/253 234/346/255 240/347/256
f 210/348/227 234/346/255 238/344/253 207/343/224
f 240/347/256 234/346/255 241/349/257 242/350/258
f 213/351/230 241/349/257 234/346/255 210/348/227
f 242/350/258 241/349/257 243/352/259 244/353/260
f 216/354/233 243/352/259 241/349/257 213/351/230
f 244/353/260 243/352/259 245/355/261 246/356/262
f 219/357/236 245/355/261 243/352/259 216/354/233
f 246/356/262 245/355/261 247/358/263 248/359/264
f 222/360/239 247/358/263 245/355/261 219/357/236
f 248/359/264 247/358/263 249/361/265 250/362/266
f 225/363/242 249/361/265 247/358/263 222/360/239
f 250/362/266 249/361/265 251/364/267 252/365/268
f 228/366/245 251/364/267 249/361/265 225/363/242
f 252/365/268 251/364/267 253/367/269 254/368/270
f 231/369/248 253/367/269 251/364/267 228/366/245
f 199/301/214 197/296/211 255/370/271 256/371/272
f 256/371/272 255/370/271 257/372/273 258/373/274
f 197/296/211 198/147/105 235/338/250 255/370/271
f 237/342/252 257/372/273 255/370/271 235/338/250
f 258/373/274 257/372/273 259/374/275 260/375/276
f 260/375/276 259/374/275 261/376/277 262/377/278
f 262/377/278 261/376/277 263/378/279 264/379/280
f 239/345/254 259/374/275 257/372/273 237/342/252
f 240/347/256 261/376/277 259/374/275 239/345/254
f 242/350/258 263/378/279 261/376/277 240/347/256
f 264/379/280 263/378/279 265/380/281 266/381/282
f 244/353/260 265/380/281 263/378/279 242/350/258
f 266/381/282 265/380/281 267/382/283 268/383/284
f 246/356/262 267/382/283 265/380/281 244/353/260
f 268/383/284 267/382/283 269/384/285 270/385/286
f 248/359/264 269/384/285 267/382/283 246/356/262
f 270/385/286 269/384/285 271/386/287 272/387/288
f 250/362/266 271/386/287 269/384/285 248/359/264
f 272/387/288 271/386/287 273/388/289 274/389/290
f 252/365/268 273/388/289 271/386/287 250/362/266
f 274/389/290 273/388/289 275/390/291 276/391/292
f 254/368/270 275/390/291 273/388/289 252/365/268
f 192/303/215 277/392/293 200/304/216 193/298/212
f 203/307/219 200/304/216 277/392/293 278/393/294
f 206/310/222 203/307/219 278/393/294 279/394/295
f 209/313/225 206/310/222 279/394/295 280/395/296
f 212/316/228 209/313/225 280/395/296 281/396/297
f 215/319/231 212/316/228 281/396/297 282/397/298
f 218/322/234 215/319/231 282/397/298 283/398/299
f 221/325/237 218/322/234 283/398/299 284/399/300
f 224/328/240 221/325/237 284/399/300 285/400/301
f 227/331/243 224/328/240 285/400/301 286/401/302
f 230/334/246 227/331/243 286/401/302 287/402/303
f 192/303/215 199/301/214 256/371/272 277/392/293
f 258/373/274 278/393/294 277/392/293 256/371/272
f 260/375/276 279/394/295 278/393/294 258/373/274
f 262/377/278 280/395/296 279/394/295 260/375/276
f 264/379/280 281/396/297 280/395/296 262/377/278
f 266/381/282 282/397/298 281/396/297 264/379/280
f 268/383/284 283/398/299 282/397/298 266/381/282
f 270/385/286 284/399/300 283/398/299 268/383/284
f 272/387/288 285/400/301 284/399/300 270/385/286
f 274/389/290 286/401/302 285/400/301 272/387/288
f 276/391/292 287/402/303 286/401/302 274/389/290
f 288/403/304 287/404/303 276/405/292 275/406/291
f 253/407/269 288/403/304 275/406/291 254/408/270
f 232/409/247 230/410/246 287/404/303 288/403/304
f 231/411/248 232/409/247 288/403/304 253/407/269
f 291/101/71 24/100/63 44/65/53
f 290/133/95 293/132/87 36/180/86 48/181/122
f 291/101/71 293/121/87 33/182/92 51/102/72
f 289/29/26 292/28/25 22/412/88 50/413/121
f 47/30/27 289/29/26 296/414/305 294/415/306
f 289/29/26 50/413/121 295/416/307 296/414/305
f 331/417/308 334/418/309 388/419/310 389/420/311
f 298/421/312 301/422/313 302/423/314 299/424/315
f 294/415/306 296/414/305 299/424/315 297/425/316
f 296/414/305 295/416/307 298/421/312 299/424/315
f 333/426/317 372/427/318 371/428/319 376/429/320
f 299/424/315 302/423/314 300/430/321 297/425/316
f 371/428/319 377/431/322 336/432/323 376/429/320
f 300/430/321 302/423/314 305/433/324 303/434/325
f 302/423/314 301/422/313 304/435/326 305/433/324
f 303/434/325 305/433/324 308/436/327 306/437/328
f 305/433/324 304/435/326 307/438/329 308/436/327
f 306/437/328 308/436/327 311/439/330 309/440/331
f 308/436/327 307/438/329 310/441/332 311/439/330
f 309/440/331 311/439/330 314/442/333 312/443/334
f 311/439/330 310/441/332 313/444/335 314/442/333
f 312/443/334 314/442/333 317/445/336 315/446/337
f 314/442/333 313/444/335 316/447/338 317/445/336
f 315/446/337 317/445/336 320/448/339 318/449/340
f 317/445/336 316/447/338 319/450/341 320/448/339
f 318/449/340 320/448/339 323/451/342 321/452/343
f 320/448/339 319/450/341 322/453/344 323/451/342
f 321/452/343 323/451/342 326/454/345 324/455/346
f 323/451/342 322/453/344 325/456/347 326/454/345
f 324/455/346 326/454/345 329/457/348 327/458/349
f 326/454/345 325/456/347 328/459/350 329/457/348
f 290/133/95 48/181/122 330/460/351 332/461/352
f 49/130/93 290/133/95 332/461/352 331/417/308
f 332/461/352 330/460/351 333/426/317 335/462/353
f 331/417/308 332/461/352 335/462/353 334/418/309
f 335/462/353 333/426/317 376/429/320 374/463/354
f 334/418/309 335/462/353 374/463/354 375/464/355
f 338/465/356 336/432/323 339/466/357 341/467/358
f 337/468/359 338/465/356 341/467/358 340/469/360
f 341/467/358 339/466/357 342/470/361 344/471/362
f 340/469/360 341/467/358 344/471/362 343/472/363
f 344/471/362 342/470/361 345/473/364 347/474/365
f 343/472/363 344/471/362 347/474/365 346/475/366
f 347/474/365 345/473/364 348/476/367 350/477/368
f 346/475/366 347/474/365 350/477/368 349/478/369
f 350/477/368 348/476/367 351/479/370 353/480/371
f 349/478/369 350/477/368 353/480/371 352/481/372
f 353/480/371 351/479/370 354/482/373 356/483/374
f 352/481/372 353/480/371 356/483/374 355/484/375
f 356/483/374 354/482/373 357/485/376 359/486/377
f 355/484/375 356/483/374 359/486/377 358/487/378
f 359/486/377 357/485/376 360/488/379 362/489/380
f 358/487/378 359/486/377 362/489/380 361/490/381
f 83/127/91 373/491/382 330/460/351 48/181/122
f 330/460/351 373/491/382 372/427/318 333/426/317
f 297/425/316 300/430/321 371/428/319 372/427/318
f 339/466/357 370/492/383 369/493/384 342/470/361
f 342/470/361 369/493/384 368/494/385 345/473/364
f 345/473/364 368/494/385 367/495/386 348/476/367
f 348/476/367 367/495/386 366/496/387 351/479/370
f 351/479/370 366/496/387 365/497/388 354/482/373
f 354/482/373 365/497/388 364/498/389 357/485/376
f 357/485/376 364/498/389 363/499/390 360/488/379
f 324/455/346 327/458/349 363/499/390 364/498/389
f 321/452/343 324/455/346 364/498/389 365/497/388
f 318/449/340 321/452/343 365/497/388 366/496/387
f 315/446/337 318/449/340 366/496/387 367/495/386
f 312/443/334 315/446/337 367/495/386 368/494/385
f 309/440/331 312/443/334 368/494/385 369/493/384
f 306/437/328 309/440/331 369/493/384 370/492/383
f 303/434/325 306/437/328 370/492/383 377/431/322
f 294/415/306 297/425/316 372/427/318 373/491/382
f 83/127/91 47/30/27 294/415/306 373/491/382
f 295/500/307 389/420/311 388/419/310 298/501/312
f 339/466/357 336/432/323 377/431/322 370/492/383
f 374/463/354 376/429/320 336/432/323 338/465/356
f 375/464/355 374/463/354 338/465/356 337/468/359
f 300/430/321 303/434/325 377/431/322 371/428/319
f 84/131/94 389/420/311 295/500/307 50/179/121
f 325/502/347 379/503/391 378/504/392 328/505/350
f 322/506/344 380/507/393 379/503/391 325/502/347
f 319/508/341 381/509/394 380/507/393 322/506/344
f 316/510/338 382/511/395 381/509/394 319/508/341
f 313/512/335 383/513/396 382/511/395 316/510/338
f 346/475/366 349/478/369 382/511/395 383/513/396
f 349/478/369 352/481/372 381/509/394 382/511/395
f 352/481/372 355/484/375 380/507/393 381/509/394
f 355/484/375 358/487/378 379/503/391 380/507/393
f 358/487/378 361/490/381 378/504/392 379/503/391
f 310/514/332 384/515/397 383/513/396 313/512/335
f 343/472/363 346/475/366 383/513/396 384/515/397
f 307/516/329 385/517/398 384/515/397 310/514/332
f 304/518/326 386/519/399 385/517/398 307/516/329
f 301/520/313 387/521/400 386/519/399 304/518/326
f 298/501/312 388/419/310 387/521/400 301/520/313
f 84/131/94 49/130/93 331/417/308 389/420/311
f 340/469/360 343/472/363 384/515/397 385/517/398
f 337/468/359 340/469/360 385/517/398 386/519/399
f 375/464/355 337/468/359 386/519/399 387/521/400
f 334/418/309 375/464/355 387/521/400 388/419/310
f 390/522/401 362/523/380 360/524/379 363/525/390
f 378/526/392 361/527/381 362/523/380 390/522/401
f 328/528/350 378/526/392 390/522/401 329/529/348
f 329/529/348 390/522/401 363/525/390 327/530/349
f 42/88/66 39/87/65 392/111/80 395/158/110
f 37/106/75 40/115/82 393/161/113 68/107/76
f 38/157/78 66/105/74 396/108/77 391/531/79
f 41/155/109 67/117/83 397/159/111 394/160/112
f 478/532/402 479/533/403 402/534/404 401/535/405
f 480/536/406 481/537/407 404/538/408 399/539/409
f 482/540/410 478/532/402 401/535/405 398/541/411
f 481/537/407 482/540/410 398/541/411 404/538/408
f 483/542/412 484/543/413 400/544/414 403/545/415
f 484/543/413 480/546/406 399/547/409 400/544/414
f 485/548/416 483/542/412 403/545/415 405/549/417
f 479/533/403 485/548/416 405/549/417 402/534/404
f 405/549/417 403/545/415 411/550/418 413/551/419
f 402/534/404 405/549/417 413/551/419 410/552/420
f 401/535/405 402/534/404 410/552/420 409/553/421
f 399/539/409 404/538/408 412/554/422 407/555/423
f 398/541/411 401/535/405 409/553/421 406/556/424
f 404/538/408 398/541/411 406/556/424 412/554/422
f 403/545/415 400/544/414 408/557/425 411/550/418
f 400/544/414 399/547/409 407/558/423 408/557/425
f 412/554/422 406/556/424 414/559/426 420/560/427
f 411/550/418 408/557/425 416/561/428 419/562/429
f 408/557/425 407/558/423 415/563/430 416/561/428
f 413/551/419 411/550/418 419/562/429 421/564/431
f 410/552/420 413/551/419 421/564/431 418/565/432
f 409/553/421 410/552/420 418/565/432 417/566/433
f 407/555/423 412/554/422 420/560/427 415/567/430
f 406/556/424 409/553/421 417/566/433 414/559/426
f 414/559/426 417/566/433 425/568/434 422/569/435
f 420/560/427 414/559/426 422/569/435 428/570/436
f 419/562/429 416/561/428 424/571/437 427/572/438
f 416/561/428 415/563/430 423/573/439 424/571/437
f 421/564/431 419/562/429 427/572/438 429/574/440
f 418/565/432 421/564/431 429/574/440 426/575/441
f 417/566/433 418/565/432 426/575/441 425/568/434
f 415/567/430 420/560/427 428/570/436 423/576/439
f 426/575/441 429/574/440 437/577/442 434/578/443
f 425/568/434 426/575/441 434/578/443 433/579/444
f 423/576/439 428/570/436 436/580/445 431/581/446
f 422/569/435 425/568/434 433/579/444 430/582/447
f 428/570/436 422/569/435 430/582/447 436/580/445
f 427/572/438 424/571/437 432/583/448 435/584/449
f 424/571/437 423/573/439 431/585/446 432/583/448
f 429/574/440 427/572/438 435/584/449 437/577/442
f 432/583/448 431/585/446 439/586/450 440/587/451
f 437/577/442 435/584/449 443/588/452 445/589/453
f 434/578/443 437/577/442 445/589/453 442/590/454
f 433/579/444 434/578/443 442/590/454 441/591/455
f 431/581/446 436/580/445 444/592/456 439/593/450
f 430/582/447 433/579/444 441/591/455 438/594/457
f 436/580/445 430/582/447 438/594/457 444/592/456
f 435/584/449 432/583/448 440/587/451 443/588/452
f 444/592/456 438/594/457 446/595/458 452/596/459
f 443/588/452 440/587/451 448/597/460 451/598/461
f 440/587/451 439/586/450 447/599/462 448/597/460
f 445/589/453 443/588/452 451/598/461 453/600/463
f 442/590/454 445/589/453 453/600/463 450/601/464
f 441/591/455 442/590/454 450/601/464 449/602/465
f 439/593/450 444/592/456 452/596/459 447/603/462
f 438/594/457 441/591/455 449/602/465 446/595/458
f 447/603/462 452/596/459 460/604/466 455/605/467
f 446/595/458 449/602/465 457/606/468 454/607/469
f 452/596/459 446/595/458 454/607/469 460/604/466
f 451/598/461 448/597/460 456/608/470 459/609/471
f 448/597/460 447/599/462 455/610/467 456/608/470
f 453/600/463 451/598/461 459/609/471 461/611/472
f 450/601/464 453/600/463 461/611/472 458/612/473
f 449/602/465 450/601/464 458/612/473 457/606/468
f 458/612/473 461/611/472 469/613/474 466/614/475
f 457/606/468 458/612/473 466/614/475 465/615/476
f 455/605/467 460/604/466 468/616/477 463/617/478
f 454/607/469 457/606/468 465/615/476 462/618/479
f 460/604/466 454/607/469 462/618/479 468/616/477
f 459/609/471 456/608/470 464/619/480 467/620/481
f 456/608/470 455/610/467 463/621/478 464/619/480
f 461/611/472 459/609/471 467/620/481 469/613/474
f 467/620/481 464/619/480 472/622/482 475/623/483
f 464/619/480 463/621/478 471/624/484 472/622/482
f 469/613/474 467/620/481 475/623/483 477/625/485
f 466/614/475 469/613/474 477/625/485 474/626/486
f 465/615/476 466/614/475 474/626/486 473/627/487
f 463/617/478 468/616/477 476/628/488 471/629/484
f 462/618/479 465/615/476 473/627/487 470/630/489
f 468/616/477 462/618/479 470/630/489 476/628/488
f 394/160/112 397/159/111 485/548/416 479/533/403
f 397/159/111 395/158/110 483/542/412 485/548/416
f 392/111/80 391/110/79 480/546/406 484/543/413
f 395/158/110 392/111/80 484/543/413 483/542/412
f 396/108/77 68/107/76 482/540/410 481/537/407
f 68/107/76 393/161/113 478/532/402 482/540/410
f 391/531/79 396/108/77 481/537/407 480/536/406
f 393/161/113 394/160/112 479/533/403 478/532/402
f 489/631/490 476/632/488 470/633/489 473/634/487
f 190/136/98 52/177/117 61/163/6
f 487/51/19 486/50/44 76/190/124 21/635/16
f 487/22/19 488/21/18 43/196/47 9/195/45
f 69/49/43 1/164/114 486/50/44
f 486/50/44 1/164/114 17/165/115 76/190/124
f 72/189/20 10/636/23 21/635/16 76/190/124
f 7/300/84 190/136/98 61/163/6 64/162/81
f 477/637/485 489/631/490 473/634/487 474/638/486
f 475/639/483 472/640/482 489/631/490 477/637/485
f 472/640/482 471/641/484 476/632/488 489/631/490
f 183/642/209 490/292/210 180/295/203 185/643/202
f 184/644/208 179/645/205 490/292/210 183/642/209
f 179/645/205 178/646/204 182/293/206 490/292/210
