# This file uses centimeters as units for non-parametric coordinates.

mtllib Orange.mtl
g default
v 1.239189 0.190620 -0.385503
v 1.054117 0.190620 -0.733271
v 0.765861 0.190620 -1.009261
v 0.402637 0.190620 -1.186457
v 0.000000 0.190620 -1.247515
v -0.402637 0.190620 -1.186457
v -0.765861 0.190620 -1.009261
v -1.054116 0.190620 -0.733271
v -1.239188 0.190620 -0.385503
v -1.302960 0.190620 0.000000
v -1.239188 0.190620 0.385503
v -1.054116 0.190620 0.733271
v -0.765860 0.190620 1.009260
v -0.402637 0.190620 1.186457
v -0.000000 0.190620 1.247514
v 0.402637 0.190620 1.186457
v 0.765860 0.190620 1.009260
v 1.054116 0.190620 0.733271
v 1.239188 0.190620 0.385503
v 1.302959 0.190620 0.000000
v 2.447865 0.474632 -0.761514
v 2.082278 0.474632 -1.448486
v 1.512863 0.474632 -1.993670
v 0.795359 0.474632 -2.343700
v 0.000000 0.474632 -2.464312
v -0.795359 0.474632 -2.343699
v -1.512863 0.474632 -1.993670
v -2.082277 0.474632 -1.448486
v -2.447864 0.474632 -0.761514
v -2.573836 0.474632 0.000000
v -2.447864 0.474632 0.761514
v -2.082277 0.474632 1.448486
v -1.512863 0.474632 1.993670
v -0.795359 0.474632 2.343699
v -0.000000 0.474632 2.464311
v 0.795359 0.474632 2.343699
v 1.512862 0.474632 1.993669
v 2.082276 0.474632 1.448485
v 2.447863 0.474632 0.761514
v 2.573835 0.474632 0.000000
v 3.596266 0.940209 -1.118774
v 3.059166 0.940209 -2.128035
v 2.222614 0.940209 -2.928989
v 1.168497 0.940209 -3.443233
v 0.000000 0.940209 -3.620429
v -1.168497 0.940209 -3.443233
v -2.222614 0.940209 -2.928988
v -3.059165 0.940209 -2.128034
v -3.596264 0.940209 -1.118774
v -3.781336 0.940209 0.000000
v -3.596264 0.940209 1.118774
v -3.059165 0.940209 2.128034
v -2.222613 0.940209 2.928988
v -1.168497 0.940209 3.443232
v -0.000000 0.940209 3.620428
v 1.168497 0.940209 3.443231
v 2.222613 0.940209 2.928988
v 3.059165 0.940209 2.128034
v 3.596264 0.940209 1.118774
v 3.781335 0.940209 0.000000
v 4.656115 1.575887 -1.448486
v 3.960728 1.575887 -2.755184
v 2.877637 1.575887 -3.792186
v 1.512863 1.575887 -4.457982
v 0.000000 1.575887 -4.687399
v -1.512863 1.575887 -4.457981
v -2.877636 1.575887 -3.792185
v -3.960726 1.575887 -2.755183
v -4.656113 1.575887 -1.448486
v -4.895727 1.575887 0.000000
v -4.656113 1.575887 1.448486
v -3.960726 1.575887 2.755183
v -2.877636 1.575887 3.792184
v -1.512863 1.575887 4.457980
v -0.000000 1.575887 4.687397
v 1.512862 1.575887 4.457980
v 2.877635 1.575887 3.792184
v 3.960725 1.575887 2.755183
v 4.656112 1.575887 1.448485
v 4.895725 1.575887 0.000000
v 5.601315 2.366013 -1.742532
v 4.764763 2.366013 -3.314492
v 3.461803 2.366013 -4.562007
v 1.819977 2.366013 -5.362961
v 0.000000 2.366013 -5.638950
v -1.819977 2.366013 -5.362960
v -3.461802 2.366013 -4.562006
v -4.764761 2.366013 -3.314491
v -5.601313 2.366013 -1.742531
v -5.889568 2.366013 0.000000
v -5.601313 2.366013 1.742531
v -4.764761 2.366013 3.314491
v -3.461801 2.366013 4.562005
v -1.819977 2.366013 5.362958
v -0.000000 2.366013 5.638948
v 1.819976 2.366013 5.362958
v 3.461801 2.366013 4.562005
v 4.764760 2.366013 3.314490
v 5.601312 2.366013 1.742531
v 5.889567 2.366013 0.000000
v 6.408592 3.291132 -1.993670
v 5.451474 3.291132 -3.792186
v 3.960728 3.291132 -5.219496
v 2.082277 3.291132 -6.135885
v 0.000000 3.291132 -6.451651
v -2.082277 3.291132 -6.135885
v -3.960727 3.291132 -5.219495
v -5.451472 3.291132 -3.792185
v -6.408590 3.291132 -1.993670
v -6.738390 3.291132 0.000000
v -6.408590 3.291132 1.993670
v -5.451472 3.291132 3.792185
v -3.960726 3.291132 5.219494
v -2.082277 3.291132 6.135883
v -0.000000 3.291132 6.451650
v 2.082276 3.291132 6.135883
v 3.960725 3.291132 5.219493
v 5.451471 3.291132 3.792184
v 6.408588 3.291132 1.993669
v 6.738389 3.291132 0.000000
v 7.058068 4.328464 -2.195718
v 6.003952 4.328464 -4.176504
v 4.362126 4.328464 -5.748464
v 2.293305 4.328464 -6.757724
v 0.000000 4.328464 -7.105492
v -2.293305 4.328464 -6.757724
v -4.362125 4.328464 -5.748463
v -6.003950 4.328464 -4.176502
v -7.058066 4.328464 -2.195717
v -7.421289 4.328464 0.000000
v -7.058066 4.328464 2.195717
v -6.003950 4.328464 4.176502
v -4.362124 4.328464 5.748462
v -2.293304 4.328464 6.757722
v -0.000000 4.328464 7.105489
v 2.293304 4.328464 6.757721
v 4.362123 4.328464 5.748461
v 6.003948 4.328464 4.176502
v 7.058064 4.328464 2.195717
v 7.421288 4.328464 0.000000
v 7.533752 5.452466 -2.343700
v 6.408592 5.452466 -4.457982
v 4.656115 5.452466 -6.135886
v 2.447864 5.452466 -7.213166
v 0.000000 5.452466 -7.584372
v -2.447864 5.452466 -7.213166
v -4.656114 5.452466 -6.135885
v -6.408590 5.452466 -4.457981
v -7.533750 5.452466 -2.343699
v -7.921453 5.452466 0.000000
v -7.533750 5.452466 2.343699
v -6.408590 5.452466 4.457981
v -4.656113 5.452466 6.135883
v -2.447864 5.452466 7.213163
v -0.000000 5.452466 7.584369
v 2.447863 5.452466 7.213163
v 4.656112 5.452466 6.135883
v 6.408588 5.452466 4.457980
v 7.533748 5.452466 2.343699
v 7.921451 5.452466 0.000000
v 7.823929 6.635463 -2.433972
v 6.655432 6.635463 -4.629690
v 4.835454 6.635463 -6.372222
v 2.542149 6.635463 -7.490995
v 0.000000 6.635463 -7.876498
v -2.542149 6.635463 -7.490995
v -4.835453 6.635463 -6.372221
v -6.655430 6.635463 -4.629689
v -7.823926 6.635463 -2.433971
v -8.226563 6.635463 0.000000
v -7.823926 6.635463 2.433971
v -6.655429 6.635463 4.629688
v -4.835453 6.635463 6.372219
v -2.542148 6.635463 7.490992
v -0.000000 6.635463 7.876495
v 2.542147 6.635463 7.490992
v 4.835451 6.635463 6.372218
v 6.655427 6.635463 4.629688
v 7.823925 6.635463 2.433971
v 8.226561 6.635463 0.000000
v 7.921456 7.848323 -2.464312
v 6.738393 7.848323 -4.687399
v 4.895729 7.848323 -6.451653
v 2.573837 7.848323 -7.584372
v 0.000000 7.848323 -7.974679
v -2.573837 7.848323 -7.584371
v -4.895728 7.848323 -6.451651
v -6.738390 7.848323 -4.687398
v -7.921453 7.848323 -2.464311
v -8.329108 7.848323 0.000000
v -7.921453 7.848323 2.464311
v -6.738390 7.848323 4.687398
v -4.895727 7.848323 6.451650
v -2.573836 7.848323 7.584369
v -0.000000 7.848323 7.974677
v 2.573835 7.848323 7.584368
v 4.895725 7.848323 6.451649
v 6.738389 7.848323 4.687397
v 7.921451 7.848323 2.464310
v 8.329105 7.848323 0.000000
v 7.823929 9.061183 -2.433972
v 6.655432 9.061183 -4.629690
v 4.835454 9.061183 -6.372222
v 2.542149 9.061183 -7.490995
v 0.000000 9.061183 -7.876498
v -2.542149 9.061183 -7.490995
v -4.835453 9.061183 -6.372221
v -6.655430 9.061183 -4.629689
v -7.823926 9.061183 -2.433971
v -8.226563 9.061183 0.000000
v -7.823926 9.061183 2.433971
v -6.655429 9.061183 4.629688
v -4.835453 9.061183 6.372219
v -2.542148 9.061183 7.490992
v -0.000000 9.061183 7.876495
v 2.542147 9.061183 7.490992
v 4.835451 9.061183 6.372218
v 6.655427 9.061183 4.629688
v 7.823925 9.061183 2.433971
v 8.226561 9.061183 0.000000
v 7.533752 10.244181 -2.343700
v 6.408592 10.244181 -4.457982
v 4.656115 10.244181 -6.135886
v 2.447864 10.244181 -7.213166
v 0.000000 10.244181 -7.584372
v -2.447864 10.244181 -7.213166
v -4.656114 10.244181 -6.135885
v -6.408590 10.244181 -4.457981
v -7.533750 10.244181 -2.343699
v -7.921453 10.244181 0.000000
v -7.533750 10.244181 2.343699
v -6.408590 10.244181 4.457981
v -4.656113 10.244181 6.135883
v -2.447864 10.244181 7.213163
v -0.000000 10.244181 7.584369
v 2.447863 10.244181 7.213163
v 4.656112 10.244181 6.135883
v 6.408588 10.244181 4.457980
v 7.533748 10.244181 2.343699
v 7.921451 10.244181 0.000000
v 7.058068 11.368183 -2.195718
v 6.003952 11.368183 -4.176504
v 4.362126 11.368183 -5.748464
v 2.293305 11.368183 -6.757724
v 0.000000 11.368183 -7.105492
v -2.293305 11.368183 -6.757724
v -4.362125 11.368183 -5.748463
v -6.003950 11.368183 -4.176502
v -7.058066 11.368183 -2.195717
v -7.421289 11.368183 0.000000
v -7.058066 11.368183 2.195717
v -6.003950 11.368183 4.176502
v -4.362124 11.368183 5.748462
v -2.293304 11.368183 6.757722
v -0.000000 11.368183 7.105489
v 2.293304 11.368183 6.757721
v 4.362123 11.368183 5.748461
v 6.003948 11.368183 4.176502
v 7.058064 11.368183 2.195717
v 7.421288 11.368183 0.000000
v 6.408592 12.405514 -1.993670
v 5.451474 12.405514 -3.792186
v 3.960728 12.405514 -5.219496
v 2.082277 12.405514 -6.135885
v 0.000000 12.405514 -6.451651
v -2.082277 12.405514 -6.135885
v -3.960727 12.405514 -5.219495
v -5.451472 12.405514 -3.792185
v -6.408590 12.405514 -1.993670
v -6.738390 12.405514 0.000000
v -6.408590 12.405514 1.993670
v -5.451472 12.405514 3.792185
v -3.960726 12.405514 5.219494
v -2.082277 12.405514 6.135883
v -0.000000 12.405514 6.451650
v 2.082276 12.405514 6.135883
v 3.960725 12.405514 5.219493
v 5.451471 12.405514 3.792184
v 6.408588 12.405514 1.993669
v 6.738389 12.405514 0.000000
v 5.601315 13.330633 -1.742532
v 4.764763 13.330633 -3.314492
v 3.461803 13.330633 -4.562007
v 1.819977 13.330633 -5.362961
v 0.000000 13.330633 -5.638950
v -1.819977 13.330633 -5.362960
v -3.461802 13.330633 -4.562006
v -4.764761 13.330633 -3.314491
v -5.601313 13.330633 -1.742531
v -5.889568 13.330633 0.000000
v -5.601313 13.330633 1.742531
v -4.764761 13.330633 3.314491
v -3.461801 13.330633 4.562005
v -1.819977 13.330633 5.362958
v -0.000000 13.330633 5.638948
v 1.819976 13.330633 5.362958
v 3.461801 13.330633 4.562005
v 4.764760 13.330633 3.314490
v 5.601312 13.330633 1.742531
v 5.889567 13.330633 0.000000
v 4.656115 14.120759 -1.448486
v 3.960728 14.120759 -2.755184
v 2.877637 14.120759 -3.792186
v 1.512863 14.120759 -4.457982
v 0.000000 14.120759 -4.687399
v -1.512863 14.120759 -4.457981
v -2.877636 14.120759 -3.792185
v -3.960726 14.120759 -2.755183
v -4.656113 14.120759 -1.448486
v -4.895727 14.120759 0.000000
v -4.656113 14.120759 1.448486
v -3.960726 14.120759 2.755183
v -2.877636 14.120759 3.792184
v -1.512863 14.120759 4.457980
v -0.000000 14.120759 4.687397
v 1.512862 14.120759 4.457980
v 2.877635 14.120759 3.792184
v 3.960725 14.120759 2.755183
v 4.656112 14.120759 1.448485
v 4.895725 14.120759 0.000000
v 3.596266 14.756437 -1.118774
v 3.059166 14.756437 -2.128035
v 2.222614 14.756437 -2.928989
v 1.168497 14.756437 -3.443233
v 0.000000 14.756437 -3.620429
v -1.168497 14.756437 -3.443233
v -2.222614 14.756437 -2.928988
v -3.059165 14.756437 -2.128034
v -3.596264 14.756437 -1.118774
v -3.781336 14.756437 0.000000
v -3.596264 14.756437 1.118774
v -3.059165 14.756437 2.128034
v -2.222613 14.756437 2.928988
v -1.168497 14.756437 3.443232
v -0.000000 14.756437 3.620428
v 1.168497 14.756437 3.443231
v 2.222613 14.756437 2.928988
v 3.059165 14.756437 2.128034
v 3.596264 14.756437 1.118774
v 3.781335 14.756437 0.000000
v 2.447865 15.222013 -0.761514
v 2.082278 15.222013 -1.448486
v 1.512863 15.222013 -1.993670
v 0.795359 15.222013 -2.343700
v 0.000000 15.222013 -2.464312
v -0.795359 15.222013 -2.343699
v -1.512863 15.222013 -1.993670
v -2.082277 15.222013 -1.448486
v -2.447864 15.222013 -0.761514
v -2.573836 15.222013 0.000000
v -2.447864 15.222013 0.761514
v -2.082277 15.222013 1.448486
v -1.512863 15.222013 1.993670
v -0.795359 15.222013 2.343699
v -0.000000 15.222013 2.464311
v 0.795359 15.222013 2.343699
v 1.512862 15.222013 1.993669
v 2.082276 15.222013 1.448485
v 2.447863 15.222013 0.761514
v 2.573835 15.222013 0.000000
v 0.829162 15.659102 -0.257947
v 0.705327 15.659102 -0.490644
v 0.512450 15.659102 -0.675313
v 0.269411 15.659102 -0.793878
v -0.000000 15.659102 -0.834733
v -0.269411 15.659102 -0.793878
v -0.512450 15.659102 -0.675313
v -0.705327 15.659102 -0.490644
v -0.829162 15.659102 -0.257947
v -0.871832 15.659102 -0.000000
v -0.829162 15.659102 0.257947
v -0.705327 15.659102 0.490643
v -0.512450 15.659102 0.675313
v -0.269411 15.659102 0.793878
v -0.000000 15.659102 0.834733
v 0.269411 15.659102 0.793877
v 0.512450 15.659102 0.675313
v 0.705327 15.659102 0.490643
v 0.829162 15.659102 0.257947
v 0.871831 15.659102 -0.000000
v 0.000000 0.095166 0.000000
v 0.000000 15.601480 0.000000
v 0.570635 15.465906 1.681499
v -0.000000 15.465895 1.768102
v -0.570635 15.465906 1.681499
v -1.085304 15.465935 1.430227
v -1.493617 15.465973 1.038998
v -1.755694 15.466002 0.546185
v -1.845983 15.466012 -0.000000
v -1.755694 15.466002 -0.546184
v -1.493617 15.465973 -1.038999
v -1.085304 15.465935 -1.430227
v -0.570635 15.465906 -1.681500
v -0.000000 15.465895 -1.768103
v 0.570635 15.465906 -1.681500
v 1.085304 15.465935 -1.430227
v 1.493618 15.465973 -1.038999
v 1.755694 15.466002 -0.546185
v 1.845982 15.466012 -0.000000
v 1.755693 15.466002 0.546184
v 1.493617 15.465973 1.038998
v 1.085304 15.465935 1.430227
v 0.187350 15.409378 -0.135007
v 0.072506 15.409378 -0.218447
v -0.069450 15.409378 -0.218447
v -0.184294 15.409378 -0.135007
v -0.228160 15.409378 0.000000
v -0.184294 15.409378 0.135007
v -0.069450 15.409378 0.218447
v 0.072506 15.409378 0.218447
v 0.187350 15.409378 0.135007
v 0.231216 15.409378 0.000000
v 0.001528 15.409378 0.000000
v -0.420468 17.802456 0.000000
v -0.108366 17.371840 0.218447
v -0.215168 17.299961 0.218447
v -0.301573 17.241814 0.135007
v -0.334577 17.219604 0.000000
v -0.301573 17.241814 -0.135007
v -0.215168 17.299961 -0.218447
v -0.108366 17.371840 -0.218447
v -0.021961 17.429987 -0.135007
v 0.011043 17.452198 0.000000
v -0.021961 17.429987 0.135007
v 0.063158 16.784756 0.218447
v 0.102651 16.213348 0.218447
v -0.039282 16.213934 0.218447
v -0.070947 16.785442 0.218447
v -0.154100 16.214628 0.135007
v -0.178267 16.785910 0.135007
v -0.197960 16.214821 0.000000
v -0.218933 16.786133 0.000000
v -0.154103 16.214554 -0.135007
v -0.178276 16.785984 -0.135007
v -0.039285 16.213854 -0.218447
v -0.070959 16.785519 -0.218447
v 0.102651 16.213348 -0.218447
v 0.063158 16.784756 -0.218447
v 0.217501 16.213503 -0.135007
v 0.172659 16.783794 -0.135007
v 0.261371 16.213596 0.000000
v 0.214673 16.783421 0.000000
v 0.217491 16.213243 0.135007
v 0.172608 16.784048 0.135007
v -0.359243 17.881170 -0.072453
v -0.336255 17.897484 -0.094620
v -0.306997 17.898293 -0.115243
v -0.277922 17.883429 -0.129776
v -0.255465 17.856190 -0.135007
v -0.406429 17.820503 -0.131236
v -0.391733 17.827452 -0.163240
v -0.371227 17.820251 -0.191796
v -0.348829 17.800282 -0.211450
v -0.328818 17.771357 -0.218447
v -0.457210 17.755215 -0.131297
v -0.456641 17.746061 -0.164967
v -0.449683 17.726768 -0.193177
v -0.437332 17.700090 -0.211895
v -0.421351 17.669838 -0.218447
v -0.496241 17.705032 -0.089669
v -0.509043 17.680424 -0.107968
v -0.513587 17.650932 -0.122485
v -0.509426 17.619432 -0.131799
v -0.496959 17.588980 -0.135007
v -0.514102 17.682068 -0.000000
v -0.530867 17.652754 -0.000000
v -0.538630 17.620211 -0.000000
v -0.536670 17.587311 -0.000000
v -0.525115 17.556787 0.000000
v -0.493378 17.708714 0.086282
v -0.507304 17.682640 0.105917
v -0.512799 17.651947 0.121551
v -0.509258 17.619732 0.131568
v -0.496959 17.588980 0.135007
v -0.457314 17.755079 0.132630
v -0.456754 17.746067 0.165785
v -0.449904 17.727072 0.193563
v -0.437742 17.700802 0.211995
v -0.422007 17.671017 0.218447
v -0.405973 17.821089 0.132581
v -0.391504 17.827930 0.164092
v -0.371316 17.820843 0.192207
v -0.349264 17.801182 0.211557
v -0.329564 17.772709 0.218447
v -0.363376 17.875854 0.067562
v -0.338876 17.894163 0.091537
v -0.308303 17.896595 0.113689
v -0.278217 17.882826 0.129341
v -0.255465 17.856190 0.135007
v -0.349953 17.893116 -0.000000
v -0.320984 17.916281 -0.000000
v -0.285176 17.923300 -0.000000
v -0.250951 17.912682 -0.000000
v -0.226677 17.887190 0.000000
v 0.138273 16.566158 -0.064111
v 0.526680 17.934885 -0.087704
v 1.360579 18.939268 -0.096849
v 2.396214 19.507130 -0.093624
v 3.874688 19.667301 -0.075059
v 5.379294 19.287640 -0.044520
v 5.937347 19.063080 -0.031395
v 5.572425 18.291210 -0.020261
v 4.659075 17.019716 -0.006567
v 3.694666 16.371372 -0.007005
v 2.640449 16.033077 -0.015434
v 1.356847 16.035089 -0.034579
v 0.257057 16.374001 -0.058219
v 5.385395 19.052662 -0.102694
v 4.104756 18.799236 -0.197031
v 2.845008 18.431202 -0.228915
v 1.775315 17.896570 -0.222210
v 0.880850 17.125614 -0.162913
v 0.189398 16.483570 -0.105772
v 0.138003 16.566547 -0.045965
v 0.526410 17.935272 -0.069558
v 0.877669 17.130199 0.050793
v 0.187814 16.485853 0.000702
v 3.874417 19.667688 -0.056913
v 4.100202 18.805803 0.108969
v 5.379024 19.288029 -0.026374
v 5.383242 19.055767 0.041982
v 5.937077 19.063469 -0.013249
v 1.360309 18.939657 -0.078703
v 1.770467 17.903561 0.103546
v 2.395944 19.507519 -0.075478
v 2.839828 18.438671 0.119127
v 4.658805 17.020105 0.011579
v 5.572155 18.291599 -0.002115
v 3.694396 16.371759 0.011141
v 2.640178 16.033466 0.002712
v 1.356577 16.035477 -0.016433
v 0.256787 16.374390 -0.040073
v 3.489290 18.656330 0.124121
v 4.232236 16.662010 0.012916
v 4.232506 16.661621 -0.005230
v 3.494470 18.648861 -0.223921
v 3.156302 19.682207 -0.086070
v 3.156032 19.682598 -0.067924
v 2.287225 18.197437 -0.232199
v 1.840819 19.277927 -0.096970
v 1.840549 19.278320 -0.078824
v 2.282045 18.204903 0.115843
v 3.175958 16.155508 0.008067
v 3.176228 16.155121 -0.010079
v 1.300553 17.516596 -0.202341
v 0.868233 18.465071 -0.094000
v 0.867963 18.465460 -0.075854
v 1.296264 17.522781 0.085881
v 1.975734 15.976542 -0.005954
v 1.976004 15.976152 -0.024100
v 0.446079 16.726048 -0.004021
v 0.685014 16.207458 -0.031418
v 0.685246 16.207123 -0.046966
v 0.447562 16.723907 -0.103676
v 0.214696 17.136091 -0.073905
v 0.214464 17.136423 -0.058357
v 4.675565 19.525532 -0.041939
v 4.675835 19.525143 -0.060085
v 4.760480 18.972004 -0.162784
v 5.170012 17.594849 -0.011306
v 5.169742 17.595240 0.006840
v 4.756764 18.977360 0.086862
v 0.138138 16.566353 -0.055038
v 0.188606 16.484711 -0.052535
v 0.256922 16.374195 -0.049146
v 0.685130 16.207291 -0.039192
v 1.356712 16.035284 -0.025506
v 1.975869 15.976347 -0.015027
v 2.640313 16.033272 -0.006361
v 3.176093 16.155315 -0.001006
v 3.694530 16.371567 0.002068
v 4.232370 16.661816 0.003843
v 4.658940 17.019911 0.002506
v 5.169876 17.595043 -0.002233
v 5.572290 18.291405 -0.011188
v 5.937212 19.063274 -0.022322
v 5.379159 19.287834 -0.035447
v 4.675700 19.525337 -0.051012
v 3.874552 19.667496 -0.065986
v 3.156167 19.682404 -0.076997
v 2.396079 19.507324 -0.084551
v 1.840684 19.278124 -0.087897
v 1.360444 18.939463 -0.087776
v 0.868098 18.465265 -0.084927
v 0.526545 17.935078 -0.078631
v 0.214580 17.136257 -0.066131
vt 0.582674 0.367144
vt 0.589271 0.359553
vt 0.646069 0.373837
vt 0.632422 0.386248
vt 0.592265 0.351023
vt 0.654929 0.358627
vt 0.591109 0.342077
vt 0.657546 0.340842
vt 0.585334 0.333570
vt 0.349383 0.320124
vt 0.410109 0.341349
vt 0.343684 0.339579
vt 0.408882 0.350286
vt 0.346159 0.357386
vt 0.411808 0.358840
vt 0.354898 0.372667
vt 0.418344 0.366484
vt 0.368445 0.385187
vt 0.427921 0.372932
vt 0.385703 0.394997
vt 0.439721 0.378608
vt 0.405626 0.403073
vt 0.453409 0.382977
vt 0.427639 0.408945
vt 0.468419 0.386101
vt 0.451112 0.412959
vt 0.484237 0.388083
vt 0.475495 0.415429
vt 0.500421 0.389027
vt 0.500311 0.416607
vt 0.516612 0.388213
vt 0.525135 0.415628
vt 0.532445 0.386358
vt 0.549537 0.413354
vt 0.547480 0.383354
vt 0.573041 0.409529
vt 0.561201 0.379095
vt 0.595100 0.403834
vt 0.573046 0.373515
vt 0.615087 0.395919
vt 0.690948 0.395706
vt 0.670207 0.410598
vt 0.707154 0.376380
vt 0.716994 0.351988
vt 0.283764 0.320447
vt 0.284150 0.350248
vt 0.293794 0.374718
vt 0.309845 0.394173
vt 0.330466 0.409232
vt 0.354449 0.420512
vt 0.380930 0.429345
vt 0.409256 0.435539
vt 0.438882 0.439638
vt 0.469337 0.442092
vt 0.500204 0.443234
vt 0.531079 0.442340
vt 0.561553 0.440131
vt 0.591211 0.436271
vt 0.619585 0.430304
vt 0.646135 0.421685
vt 0.727270 0.422715
vt 0.699938 0.438259
vt 0.751122 0.401746
vt 0.769882 0.373816
vt 0.220513 0.334662
vt 0.231088 0.371649
vt 0.249624 0.399729
vt 0.273308 0.420889
vt 0.300514 0.436652
vt 0.330264 0.448123
vt 0.362074 0.456743
vt 0.395331 0.462636
vt 0.429655 0.466444
vt 0.464690 0.468669
vt 0.500098 0.469662
vt 0.535514 0.468954
vt 0.570565 0.467011
vt 0.604918 0.463479
vt 0.638221 0.457853
vt 0.670098 0.449489
vt 0.756482 0.453263
vt 0.723352 0.468064
vt 0.787553 0.432745
vt 0.815590 0.404324
vt 0.162357 0.361773
vt 0.185137 0.401787
vt 0.212945 0.430433
vt 0.243851 0.451201
vt 0.276862 0.466267
vt 0.311431 0.477035
vt 0.347508 0.484832
vt 0.384613 0.490077
vt 0.422558 0.493410
vt 0.461106 0.495318
vt 0.499992 0.496116
vt 0.538883 0.495631
vt 0.577446 0.494033
vt 0.615415 0.491006
vt 0.652561 0.486059
vt 0.688698 0.478553
vt 0.779446 0.486251
vt 0.741455 0.499265
vt 0.816867 0.467861
vt 0.853605 0.441639
vt 0.111558 0.400002
vt 0.146823 0.438794
vt 0.183350 0.465311
vt 0.220623 0.484002
vt 0.258509 0.497321
vt 0.296978 0.506750
vt 0.336368 0.513336
vt 0.376416 0.517740
vt 0.417119 0.520512
vt 0.458347 0.522074
vt 0.499886 0.522670
vt 0.541427 0.522408
vt 0.582666 0.521178
vt 0.623390 0.518734
vt 0.663471 0.514652
vt 0.702912 0.508383
vt 0.796741 0.520897
vt 0.754904 0.531361
vt 0.839365 0.505922
vt 0.883596 0.484117
vt 0.069779 0.447354
vt 0.116492 0.481029
vt 0.160547 0.503189
vt 0.203050 0.518507
vt 0.244802 0.529308
vt 0.286293 0.536934
vt 0.328117 0.542078
vt 0.370318 0.545537
vt 0.413055 0.547713
vt 0.456270 0.548932
vt 0.499778 0.549348
vt 0.543289 0.549282
vt 0.586512 0.548411
vt 0.629264 0.546580
vt 0.671491 0.543460
vt 0.713354 0.538653
vt 0.808773 0.556630
vt 0.764145 0.564005
vt 0.855261 0.545999
vt 0.905324 0.530317
vt 0.038216 0.501814
vt 0.094393 0.527052
vt 0.144329 0.543136
vt 0.190731 0.554141
vt 0.235299 0.561875
vt 0.278987 0.567367
vt 0.322398 0.570948
vt 0.366049 0.573412
vt 0.410184 0.574980
vt 0.454783 0.575872
vt 0.499671 0.576150
vt 0.544559 0.576233
vt 0.589163 0.575700
vt 0.633309 0.574488
vt 0.676978 0.572376
vt 0.720416 0.569144
vt 0.815819 0.593012
vt 0.769479 0.596950
vt 0.864693 0.587325
vt 0.918556 0.578926
vt 0.017705 0.561370
vt 0.080770 0.575551
vt 0.134565 0.584384
vt 0.183392 0.590465
vt 0.229700 0.594776
vt 0.274840 0.597894
vt 0.318970 0.599887
vt 0.363432 0.601331
vt 0.408397 0.602287
vt 0.453828 0.602868
vt 0.499562 0.603072
vt 0.545296 0.603237
vt 0.590731 0.603022
vt 0.635701 0.602428
vt 0.680172 0.601342
vt 0.724316 0.599705
vt 0.818052 0.629694
vt 0.771114 0.630012
vt 0.867725 0.629247
vt 0.922949 0.628659
vt 0.008734 0.623962
vt 0.075977 0.625246
vt 0.131195 0.626280
vt 0.180864 0.627127
vt 0.227798 0.627823
vt 0.273822 0.628397
vt 0.317654 0.628875
vt 0.362368 0.629278
vt 0.407634 0.629615
vt 0.453371 0.629892
vt 0.499453 0.630115
vt 0.545536 0.630264
vt 0.591274 0.630355
vt 0.636540 0.630383
vt 0.681255 0.630340
vt 0.725088 0.630216
vt 0.816036 0.666394
vt 0.769617 0.663083
vt 0.865022 0.671201
vt 0.919059 0.678447
vt 0.015902 0.686808
vt 0.079465 0.675063
vt 0.133560 0.668253
vt 0.182584 0.663841
vt 0.229029 0.660904
vt 0.274273 0.658921
vt 0.318483 0.657878
vt 0.363017 0.657233
vt 0.408049 0.656945
vt 0.453546 0.656913
vt 0.499344 0.657144
vt 0.545143 0.657282
vt 0.590638 0.657681
vt 0.635665 0.658332
vt 0.680192 0.659336
vt 0.724391 0.660736
vt 0.809200 0.702837
vt 0.764417 0.696058
vt 0.855910 0.712635
vt 0.906313 0.727236
vt 0.034702 0.746987
vt 0.091818 0.723952
vt 0.142337 0.709758
vt 0.189125 0.700337
vt 0.233963 0.693920
vt 0.277853 0.689523
vt 0.321425 0.686862
vt 0.365219 0.685173
vt 0.409489 0.684255
vt 0.454219 0.683898
vt 0.499236 0.684042
vt 0.544253 0.684261
vt 0.588978 0.684978
vt 0.633238 0.686253
vt 0.677017 0.688296
vt 0.720564 0.691308
vt 0.797367 0.738674
vt 0.755304 0.728753
vt 0.840309 0.752895
vt 0.885028 0.773737
vt 0.064716 0.802426
vt 0.112726 0.770622
vt 0.157612 0.750141
vt 0.200669 0.736268
vt 0.242811 0.726686
vt 0.284598 0.720084
vt 0.326660 0.715807
vt 0.369074 0.713081
vt 0.412012 0.711525
vt 0.455424 0.710818
vt 0.499128 0.710807
vt 0.542829 0.711170
vt 0.586234 0.712228
vt 0.629158 0.714130
vt 0.671548 0.717198
vt 0.713573 0.721814
vt 0.780250 0.773469
vt 0.741974 0.760921
vt 0.818072 0.791212
vt 0.855413 0.816631
vt 0.105184 0.851093
vt 0.141994 0.813753
vt 0.179540 0.788637
vt 0.217504 0.771198
vt 0.255882 0.758960
vt 0.294728 0.750454
vt 0.334431 0.744656
vt 0.374759 0.740927
vt 0.415729 0.738729
vt 0.457221 0.737646
vt 0.499020 0.737432
vt 0.540816 0.737983
vt 0.582297 0.739401
vt 0.623249 0.741929
vt 0.663544 0.745984
vt 0.703198 0.752102
vt 0.757436 0.806646
vt 0.723974 0.792213
vt 0.788963 0.826657
vt 0.817675 0.854469
vt 0.154990 0.890936
vt 0.179424 0.851893
vt 0.208361 0.824314
vt 0.240049 0.804559
vt 0.273628 0.790396
vt 0.308640 0.780417
vt 0.345094 0.773303
vt 0.382543 0.768652
vt 0.420819 0.765832
vt 0.459698 0.764359
vt 0.498913 0.763915
vt 0.538123 0.764675
vt 0.576989 0.766462
vt 0.615240 0.769591
vt 0.652650 0.774544
vt 0.689045 0.781952
vt 0.728333 0.837422
vt 0.700646 0.822125
vt 0.752661 0.858050
vt 0.772111 0.885594
vt 0.212559 0.919899
vt 0.224735 0.883384
vt 0.244408 0.855998
vt 0.268903 0.835568
vt 0.296713 0.820494
vt 0.326949 0.809646
vt 0.359189 0.801574
vt 0.392846 0.796171
vt 0.427564 0.792795
vt 0.462998 0.790945
vt 0.498806 0.790268
vt 0.534608 0.791234
vt 0.570026 0.793370
vt 0.604715 0.797027
vt 0.638327 0.802701
vt 0.670499 0.811033
vt 0.692067 0.864682
vt 0.670978 0.849895
vt 0.708721 0.883853
vt 0.719191 0.908097
vt 0.275703 0.936103
vt 0.277471 0.906314
vt 0.288138 0.882155
vt 0.304946 0.863119
vt 0.326155 0.848503
vt 0.350633 0.837648
vt 0.377575 0.829194
vt 0.406345 0.823359
vt 0.436425 0.819586
vt 0.467354 0.817429
vt 0.498700 0.816550
vt 0.530038 0.817682
vt 0.560948 0.820089
vt 0.590996 0.824104
vt 0.619717 0.830172
vt 0.646590 0.838843
vt 0.647187 0.886764
vt 0.633229 0.874311
vt 0.656404 0.902015
vt 0.659499 0.919880
vt 0.341595 0.938393
vt 0.337065 0.918578
vt 0.340306 0.900739
vt 0.349646 0.885562
vt 0.363705 0.873222
vt 0.381401 0.863653
vt 0.401777 0.855734
vt 0.424261 0.850044
vt 0.448246 0.846219
vt 0.473188 0.843939
vt 0.498593 0.842919
vt 0.523988 0.844144
vt 0.548911 0.846626
vt 0.572864 0.850644
vt 0.595301 0.856516
vt 0.615612 0.864599
vt 0.615730 0.896279
vt 0.606025 0.886205
vt 0.621079 0.908006
vt 0.621084 0.920910
vt 0.614596 0.933990
vt 0.375470 0.919919
vt 0.375580 0.907015
vt 0.381025 0.895331
vt 0.390812 0.885336
vt 0.404096 0.877181
vt 0.419971 0.870405
vt 0.437923 0.865350
vt 0.457356 0.861861
vt 0.477724 0.859764
vt 0.498528 0.858945
vt 0.519324 0.859932
vt 0.539675 0.862194
vt 0.559078 0.865840
vt 0.576989 0.871039
vt 0.592808 0.877944
vt 0.500551 0.356322
vt 0.561932 0.897631
vt 0.566454 0.903127
vt 0.498351 0.902211
vt 0.568151 0.908997
vt 0.566768 0.914800
vt 0.562184 0.919923
vt 0.429834 0.914248
vt 0.428499 0.908433
vt 0.430243 0.902577
vt 0.434810 0.897118
vt 0.441851 0.892342
vt 0.450795 0.888100
vt 0.461371 0.884773
vt 0.473123 0.882380
vt 0.485612 0.880899
vt 0.498441 0.880291
vt 0.511264 0.881003
vt 0.523741 0.882585
vt 0.535473 0.885073
vt 0.546022 0.888485
vt 0.554931 0.892799
vt 0.128705 0.015055
vt 0.070026 0.920052
vt 0.147736 0.014905
vt 0.166542 0.014806
vt 0.185113 0.014870
vt 0.015587 0.017064
vt 0.033938 0.016380
vt 0.052503 0.015945
vt 0.071307 0.015668
vt 0.090337 0.015438
vt 0.109520 0.015178
vt 0.074732 0.189977
vt 0.073340 0.118418
vt 0.091931 0.117299
vt 0.092542 0.186197
vt 0.058013 0.195129
vt 0.054817 0.120017
vt 0.041020 0.199983
vt 0.036400 0.121755
vt 0.023202 0.203309
vt 0.203100 0.121454
vt 0.181692 0.198575
vt 0.184753 0.120262
vt 0.164604 0.194063
vt 0.166305 0.118891
vt 0.147784 0.189238
vt 0.147753 0.117671
vt 0.129901 0.185788
vt 0.129141 0.116958
vt 0.111208 0.184681
vt 0.110534 0.116896
vt 0.078032 0.262746
vt 0.062271 0.263681
vt 0.045937 0.266015
vt 0.028853 0.270182
vt 0.178104 0.264655
vt 0.161720 0.262648
vt 0.145936 0.262038
vt 0.129626 0.261614
vt 0.111965 0.261128
vt 0.094324 0.261985
vt 0.112833 0.341262
vt 0.119973 0.326330
vt 0.129506 0.326962
vt 0.137868 0.328914
vt 0.144938 0.332943
vt 0.076187 0.343507
vt 0.081383 0.334058
vt 0.087305 0.329396
vt 0.095702 0.327222
vt 0.105659 0.327223
vt 0.112657 0.326730
vt 0.100423 0.311754
vt 0.088374 0.312612
vt 0.076466 0.315196
vt 0.064308 0.320900
vt 0.173711 0.330384
vt 0.160890 0.319873
vt 0.148645 0.314272
vt 0.136679 0.311944
vt 0.124586 0.311434
vt 0.112497 0.311816
vt 0.123521 0.315178
vt 0.134827 0.315624
vt 0.122347 0.318929
vt 0.132973 0.319361
vt 0.121123 0.322630
vt 0.131189 0.323102
vt 0.146062 0.317933
vt 0.143392 0.321608
vt 0.140673 0.325286
vt 0.157384 0.323496
vt 0.153568 0.326898
vt 0.149435 0.330093
vt 0.057074 0.335673
vt 0.062932 0.338981
vt 0.069295 0.341590
vt 0.067928 0.324474
vt 0.071928 0.327878
vt 0.076393 0.331143
vt 0.079087 0.318746
vt 0.081787 0.322308
vt 0.084522 0.325869
vt 0.090276 0.316196
vt 0.092175 0.319834
vt 0.093997 0.323470
vt 0.101573 0.315466
vt 0.102867 0.319286
vt 0.104260 0.323188
vt 0.112539 0.315549
vt 0.112587 0.319309
vt 0.112633 0.323030
vt 0.223626 0.129798
vt 0.240239 0.100917
vt 0.271191 0.129875
vt 0.245893 0.186242
vt 0.500490 0.246863
vt 0.546751 0.258169
vt 0.540084 0.295505
vt 0.483471 0.306151
vt 0.629102 0.262025
vt 0.589744 0.278244
vt 0.590592 0.262625
vt 0.371513 0.205869
vt 0.411184 0.222039
vt 0.378790 0.296036
vt 0.339381 0.280291
vt 0.432642 0.307777
vt 0.457305 0.236977
vt 0.301168 0.157839
vt 0.335038 0.184735
vt 0.305261 0.256728
vt 0.270231 0.223547
vt 0.539338 0.118900
vt 0.575322 0.159165
vt 0.509226 0.093854
vt 0.434441 0.058609
vt 0.471179 0.073633
vt 0.349173 0.046558
vt 0.396411 0.050248
vt 0.257198 0.063610
vt 0.305085 0.051060
vt 0.603565 0.207968
vt 0.578266 0.100949
vt 0.600530 0.157363
vt 0.625523 0.098882
vt 0.594792 0.071197
vt 0.853567 0.214322
vt 0.838103 0.277270
vt 0.894715 0.266624
vt 0.899952 0.226302
vt 0.983730 0.233145
vt 0.944347 0.232103
vt 0.944372 0.249364
vt 0.725078 0.173012
vt 0.694016 0.251410
vt 0.733424 0.267155
vt 0.764528 0.189095
vt 0.810395 0.203954
vt 0.787275 0.278897
vt 0.655247 0.125916
vt 0.624867 0.194667
vt 0.659897 0.227847
vt 0.688865 0.152253
vt 0.893968 0.090024
vt 0.929951 0.130288
vt 0.863857 0.064978
vt 0.789074 0.029734
vt 0.825810 0.044758
vt 0.703807 0.017683
vt 0.751045 0.021373
vt 0.659720 0.022185
vt 0.611838 0.034759
vt 0.958194 0.179090
vt 0.576365 0.054268
vt 0.221792 0.084033
vt 0.218157 0.089414
vt 0.572795 0.060537
vt 0.581274 0.046828
vt 0.226636 0.075704
vt 0.381851 0.933051
vt 0.434376 0.919409
vt 0.654809 0.939657
vt 0.415951 0.332888
vt 0.720717 0.937900
vt 0.783991 0.922206
vt 0.841793 0.893708
vt 0.891920 0.854267
vt 0.932780 0.805927
vt 0.963241 0.750731
vt 0.982525 0.690704
vt 0.990200 0.627916
vt 0.981733 0.565253
vt 0.961702 0.505532
vt 0.930578 0.450820
vt 0.889181 0.403132
vt 0.838691 0.364494
vt 0.780753 0.336916
vt 0.717618 0.322192
vt 0.652003 0.321341
vt 0.055865 0.860613
vt 0.023632 0.880288
vt 0.093507 0.863642
vt 0.122180 0.888217
vt 0.130932 0.924951
vt 0.116419 0.959816
vt 0.084187 0.979491
vt 0.046545 0.976462
vt 0.017872 0.951887
vt 0.009120 0.915151
vt 0.051673 0.331664
vt 0.195268 0.268491
vt 0.149368 0.342669
vt 0.168381 0.334487
vt 0.162578 0.337898
vt 0.156252 0.340622
vt 0.199574 0.201538
vt 0.203474 0.015189
vt 0.018080 0.123302
vt 0.218151 0.089321
vt 0.576404 0.054804
vt 0.581281 0.046918
vt 0.611848 0.034835
vt 0.659740 0.022271
vt 0.703834 0.017769
vt 0.751078 0.021459
vt 0.789113 0.029821
vt 0.825855 0.044847
vt 0.863907 0.065071
vt 0.894023 0.090120
vt 0.930012 0.130390
vt 0.958259 0.179199
vt 0.983799 0.233263
vt 0.944435 0.249485
vt 0.894770 0.266747
vt 0.838150 0.277395
vt 0.787314 0.279022
vt 0.733455 0.267278
vt 0.694041 0.251531
vt 0.659917 0.227965
vt 0.624881 0.194780
vt 0.600540 0.157470
vt 0.578272 0.101033
vt 0.223621 0.129714
vt 0.572801 0.060629
vt 0.245882 0.186135
vt 0.270217 0.223434
vt 0.305242 0.256610
vt 0.339357 0.280169
vt 0.378760 0.295912
vt 0.432604 0.307652
vt 0.483425 0.306026
vt 0.540029 0.295381
vt 0.589681 0.278124
vt 0.629034 0.261907
vt 0.603500 0.207858
vt 0.575262 0.159063
vt 0.539283 0.118804
vt 0.509175 0.093762
vt 0.471134 0.073544
vt 0.434402 0.058522
vt 0.396378 0.050162
vt 0.349146 0.046473
vt 0.305065 0.050974
vt 0.257187 0.063534
vt 0.226628 0.075614
vt 0.221753 0.083498
vn 0.177894 -0.982173 -0.060740
vn 0.150943 -0.981802 -0.115245
vn 0.252496 -0.948306 -0.192253
vn 0.297545 -0.949317 -0.101317
vn 0.109327 -0.981346 -0.158135
vn 0.182909 -0.947067 -0.263835
vn 0.057334 -0.980981 -0.185441
vn 0.095934 -0.946072 -0.309427
vn -0.000000 -0.980843 -0.194801
vn -0.000000 -0.945694 -0.325060
vn -0.057334 -0.980981 -0.185441
vn -0.095934 -0.946072 -0.309427
vn -0.109327 -0.981346 -0.158135
vn -0.182909 -0.947067 -0.263835
vn -0.150943 -0.981802 -0.115245
vn -0.252497 -0.948306 -0.192253
vn -0.177894 -0.982173 -0.060740
vn -0.297545 -0.949316 -0.101317
vn -0.187230 -0.982316 -0.000000
vn -0.313148 -0.949704 -0.000000
vn -0.177894 -0.982173 0.060740
vn -0.297545 -0.949316 0.101318
vn -0.150943 -0.981802 0.115246
vn -0.252497 -0.948306 0.192253
vn -0.109327 -0.981346 0.158135
vn -0.182909 -0.947067 0.263835
vn -0.057334 -0.980982 0.185441
vn -0.095934 -0.946072 0.309427
vn 0.000000 -0.980843 0.194801
vn 0.000000 -0.945694 0.325060
vn 0.057334 -0.980981 0.185441
vn 0.095934 -0.946072 0.309427
vn 0.109327 -0.981346 0.158135
vn 0.182909 -0.947067 0.263835
vn 0.150944 -0.981802 0.115246
vn 0.252497 -0.948306 0.192253
vn 0.177894 -0.982173 0.060740
vn 0.297545 -0.949316 0.101318
vn 0.187230 -0.982316 0.000000
vn 0.313148 -0.949704 0.000000
vn 0.358623 -0.892770 -0.272673
vn 0.422877 -0.894706 -0.143792
vn 0.259584 -0.890401 -0.373902
vn 0.136064 -0.888502 -0.438236
vn -0.000000 -0.887781 -0.460266
vn -0.136064 -0.888502 -0.438236
vn -0.259584 -0.890401 -0.373902
vn -0.358623 -0.892770 -0.272673
vn -0.422877 -0.894706 -0.143792
vn -0.445163 -0.895450 -0.000000
vn -0.422877 -0.894706 0.143792
vn -0.358623 -0.892770 0.272674
vn -0.259584 -0.890401 0.373902
vn -0.136064 -0.888502 0.438236
vn 0.000000 -0.887781 0.460266
vn 0.136064 -0.888502 0.438236
vn 0.259584 -0.890401 0.373902
vn 0.358623 -0.892770 0.272674
vn 0.422877 -0.894706 0.143792
vn 0.445163 -0.895450 0.000000
vn 0.460424 -0.815886 -0.349772
vn 0.543542 -0.818818 -0.184661
vn 0.332805 -0.812309 -0.478951
vn 0.174250 -0.809454 -0.560733
vn -0.000000 -0.808372 -0.588672
vn -0.174250 -0.809454 -0.560733
vn -0.332806 -0.812309 -0.478951
vn -0.460424 -0.815886 -0.349772
vn -0.543542 -0.818818 -0.184662
vn -0.572439 -0.819947 -0.000000
vn -0.543542 -0.818818 0.184662
vn -0.460424 -0.815886 0.349772
vn -0.332805 -0.812309 0.478951
vn -0.174250 -0.809454 0.560733
vn 0.000000 -0.808372 0.588673
vn 0.174250 -0.809454 0.560733
vn 0.332806 -0.812309 0.478951
vn 0.460424 -0.815886 0.349772
vn 0.543542 -0.818818 0.184662
vn 0.572440 -0.819947 0.000001
vn 0.554002 -0.718452 -0.420604
vn 0.654957 -0.722205 -0.222377
vn 0.399747 -0.713895 -0.574940
vn 0.209010 -0.710273 -0.672181
vn -0.000000 -0.708905 -0.705304
vn -0.209010 -0.710274 -0.672180
vn -0.399748 -0.713895 -0.574939
vn -0.554003 -0.718452 -0.420604
vn -0.654956 -0.722205 -0.222378
vn -0.690162 -0.723655 -0.000000
vn -0.654956 -0.722205 0.222378
vn -0.554002 -0.718452 0.420604
vn -0.399747 -0.713895 0.574940
vn -0.209010 -0.710273 0.672181
vn 0.000000 -0.708905 0.705304
vn 0.209010 -0.710273 0.672180
vn 0.399748 -0.713895 0.574940
vn 0.554002 -0.718452 0.420604
vn 0.654956 -0.722205 0.222378
vn 0.690162 -0.723655 0.000001
vn 0.636183 -0.601826 -0.482779
vn 0.753278 -0.605985 -0.255645
vn 0.458191 -0.596802 -0.658702
vn 0.239216 -0.592828 -0.768980
vn -0.000000 -0.591331 -0.806429
vn -0.239216 -0.592828 -0.768980
vn -0.458191 -0.596802 -0.658702
vn -0.636184 -0.601826 -0.482779
vn -0.753278 -0.605985 -0.255646
vn -0.794246 -0.607596 -0.000000
vn -0.753278 -0.605985 0.255646
vn -0.636183 -0.601826 0.482780
vn -0.458191 -0.596802 0.658702
vn -0.239216 -0.592828 0.768980
vn 0.000000 -0.591331 0.806429
vn 0.239216 -0.592828 0.768980
vn 0.458191 -0.596802 0.658702
vn 0.636184 -0.601826 0.482779
vn 0.753278 -0.605985 0.255646
vn 0.794246 -0.607596 0.000001
vn 0.703997 -0.468150 -0.534063
vn 0.834800 -0.472120 -0.283216
vn 0.506141 -0.463375 -0.727396
vn 0.263886 -0.459616 -0.848008
vn -0.000000 -0.458203 -0.888847
vn -0.263886 -0.459616 -0.848008
vn -0.506141 -0.463375 -0.727396
vn -0.703998 -0.468150 -0.534063
vn -0.834800 -0.472120 -0.283217
vn -0.880706 -0.473663 -0.000000
vn -0.834800 -0.472120 0.283217
vn -0.703998 -0.468149 0.534063
vn -0.506141 -0.463375 0.727396
vn -0.263886 -0.459615 0.848008
vn 0.000000 -0.458203 0.888848
vn 0.263886 -0.459615 0.848008
vn 0.506141 -0.463375 0.727396
vn 0.703998 -0.468149 0.534063
vn 0.834800 -0.472120 0.283217
vn 0.880706 -0.473663 0.000001
vn 0.754734 -0.320490 -0.572419
vn 0.896048 -0.323619 -0.303923
vn 0.541836 -0.316741 -0.778517
vn 0.282179 -0.313800 -0.906590
vn -0.000000 -0.312698 -0.949853
vn -0.282179 -0.313800 -0.906590
vn -0.541837 -0.316741 -0.778517
vn -0.754734 -0.320490 -0.572419
vn -0.896047 -0.323619 -0.303924
vn -0.945770 -0.324839 -0.000000
vn -0.896047 -0.323619 0.303924
vn -0.754734 -0.320490 0.572419
vn -0.541836 -0.316741 0.778517
vn -0.282179 -0.313800 0.906590
vn 0.000000 -0.312698 0.949853
vn 0.282179 -0.313800 0.906590
vn 0.541837 -0.316741 0.778517
vn 0.754734 -0.320490 0.572419
vn 0.896048 -0.323619 0.303924
vn 0.945770 -0.324838 0.000001
vn 0.786165 -0.162850 -0.596175
vn 0.934109 -0.164577 -0.316788
vn 0.563868 -0.160786 -0.810062
vn 0.293437 -0.159171 -0.942634
vn -0.000000 -0.158566 -0.987348
vn -0.293437 -0.159170 -0.942634
vn -0.563869 -0.160785 -0.810062
vn -0.786165 -0.162849 -0.596175
vn -0.934109 -0.164577 -0.316789
vn -0.986252 -0.165251 -0.000000
vn -0.934109 -0.164577 0.316789
vn -0.786165 -0.162849 0.596175
vn -0.563868 -0.160786 0.810062
vn -0.293437 -0.159170 0.942634
vn 0.000000 -0.158566 0.987348
vn 0.293437 -0.159170 0.942634
vn 0.563868 -0.160785 0.810062
vn 0.786165 -0.162849 0.596175
vn 0.934109 -0.164577 0.316789
vn 0.986252 -0.165250 0.000001
vn 0.796815 -0.000000 -0.604223
vn 0.947027 -0.000000 -0.321153
vn 0.571319 -0.000000 -0.820728
vn 0.297238 0.000000 -0.954803
vn -0.000000 0.000000 -1.000000
vn -0.297238 0.000000 -0.954803
vn -0.571319 -0.000000 -0.820728
vn -0.796815 -0.000000 -0.604223
vn -0.947027 -0.000000 -0.321154
vn -1.000000 0.000000 0.000000
vn -0.947027 0.000000 0.321154
vn -0.796815 -0.000000 0.604223
vn -0.571319 -0.000000 0.820728
vn -0.297238 0.000000 0.954803
vn 0.000000 0.000000 1.000000
vn 0.297239 0.000000 0.954803
vn 0.571319 0.000000 0.820728
vn 0.796815 0.000000 0.604223
vn 0.947027 -0.000000 0.321154
vn 1.000000 -0.000000 0.000001
vn 0.786165 0.162850 -0.596175
vn 0.934109 0.164577 -0.316788
vn 0.563868 0.160786 -0.810062
vn 0.293437 0.159170 -0.942634
vn -0.000000 0.158566 -0.987348
vn -0.293437 0.159170 -0.942634
vn -0.563868 0.160785 -0.810062
vn -0.786166 0.162849 -0.596175
vn -0.934109 0.164576 -0.316789
vn -0.986252 0.165251 0.000000
vn -0.934109 0.164577 0.316789
vn -0.786165 0.162849 0.596175
vn -0.563868 0.160785 0.810062
vn -0.293437 0.159170 0.942634
vn 0.000000 0.158566 0.987348
vn 0.293437 0.159170 0.942634
vn 0.563868 0.160785 0.810062
vn 0.786165 0.162849 0.596175
vn 0.934109 0.164577 0.316788
vn 0.986252 0.165250 0.000001
vn 0.754734 0.320490 -0.572419
vn 0.896048 0.323619 -0.303923
vn 0.541837 0.316741 -0.778517
vn 0.282179 0.313800 -0.906590
vn -0.000000 0.312698 -0.949853
vn -0.282179 0.313800 -0.906590
vn -0.541837 0.316741 -0.778517
vn -0.754734 0.320490 -0.572419
vn -0.896047 0.323619 -0.303924
vn -0.945770 0.324838 0.000000
vn -0.896047 0.323619 0.303924
vn -0.754734 0.320490 0.572419
vn -0.541837 0.316741 0.778517
vn -0.282179 0.313800 0.906590
vn 0.000000 0.312698 0.949853
vn 0.282179 0.313800 0.906590
vn 0.541837 0.316741 0.778517
vn 0.754734 0.320489 0.572419
vn 0.896048 0.323619 0.303924
vn 0.945770 0.324838 0.000001
vn 0.703997 0.468150 -0.534063
vn 0.834800 0.472121 -0.283216
vn 0.506141 0.463375 -0.727396
vn 0.263886 0.459616 -0.848008
vn 0.000000 0.458203 -0.888847
vn -0.263886 0.459616 -0.848008
vn -0.506141 0.463375 -0.727396
vn -0.703998 0.468150 -0.534063
vn -0.834800 0.472120 -0.283217
vn -0.880706 0.473663 0.000000
vn -0.834800 0.472120 0.283217
vn -0.703997 0.468150 0.534063
vn -0.506141 0.463375 0.727396
vn -0.263886 0.459616 0.848008
vn 0.000000 0.458203 0.888847
vn 0.263886 0.459616 0.848008
vn 0.506141 0.463375 0.727396
vn 0.703998 0.468149 0.534063
vn 0.834800 0.472120 0.283217
vn 0.880706 0.473663 0.000001
vn 0.636183 0.601826 -0.482779
vn 0.753278 0.605985 -0.255645
vn 0.458191 0.596802 -0.658702
vn 0.239216 0.592828 -0.768980
vn -0.000000 0.591331 -0.806429
vn -0.239216 0.592828 -0.768980
vn -0.458191 0.596802 -0.658702
vn -0.636184 0.601826 -0.482779
vn -0.753278 0.605985 -0.255646
vn -0.794246 0.607596 -0.000000
vn -0.753278 0.605985 0.255646
vn -0.636183 0.601826 0.482780
vn -0.458191 0.596802 0.658702
vn -0.239216 0.592828 0.768980
vn 0.000000 0.591331 0.806429
vn 0.239216 0.592828 0.768980
vn 0.458191 0.596802 0.658702
vn 0.636183 0.601826 0.482779
vn 0.753278 0.605985 0.255646
vn 0.794246 0.607596 0.000001
vn 0.554003 0.718452 -0.420604
vn 0.654957 0.722205 -0.222377
vn 0.399748 0.713895 -0.574940
vn 0.209010 0.710273 -0.672181
vn -0.000000 0.708905 -0.705304
vn -0.209010 0.710273 -0.672180
vn -0.399748 0.713895 -0.574940
vn -0.554003 0.718452 -0.420604
vn -0.654956 0.722205 -0.222378
vn -0.690162 0.723655 -0.000000
vn -0.654956 0.722205 0.222378
vn -0.554002 0.718452 0.420605
vn -0.399747 0.713895 0.574940
vn -0.209010 0.710273 0.672181
vn -0.000000 0.708904 0.705305
vn 0.209010 0.710273 0.672181
vn 0.399748 0.713895 0.574940
vn 0.554003 0.718452 0.420604
vn 0.654957 0.722205 0.222378
vn 0.690162 0.723655 0.000001
vn 0.460424 0.815886 -0.349772
vn 0.543542 0.818818 -0.184661
vn 0.332805 0.812309 -0.478951
vn 0.174250 0.809454 -0.560733
vn -0.000000 0.808372 -0.588672
vn -0.174250 0.809454 -0.560733
vn -0.332806 0.812309 -0.478951
vn -0.460424 0.815886 -0.349772
vn -0.543542 0.818818 -0.184662
vn -0.572439 0.819947 -0.000000
vn -0.543542 0.818818 0.184662
vn -0.460424 0.815886 0.349772
vn -0.332806 0.812309 0.478951
vn -0.174250 0.809453 0.560733
vn 0.000000 0.808371 0.588673
vn 0.174250 0.809453 0.560734
vn 0.332806 0.812309 0.478951
vn 0.460424 0.815886 0.349772
vn 0.543542 0.818818 0.184662
vn 0.572440 0.819947 0.000001
vn 0.358623 0.892770 -0.272674
vn 0.422877 0.894706 -0.143792
vn 0.259584 0.890401 -0.373902
vn 0.136064 0.888502 -0.438236
vn -0.000000 0.887781 -0.460266
vn -0.136064 0.888502 -0.438236
vn -0.259584 0.890401 -0.373902
vn -0.358623 0.892770 -0.272673
vn -0.422877 0.894706 -0.143792
vn -0.445163 0.895450 -0.000000
vn -0.422877 0.894706 0.143792
vn -0.358623 0.892770 0.272673
vn -0.259584 0.890401 0.373902
vn -0.136064 0.888502 0.438236
vn 0.000000 0.887781 0.460267
vn 0.136064 0.888502 0.438236
vn 0.259584 0.890401 0.373902
vn 0.358623 0.892770 0.272674
vn 0.422877 0.894706 0.143793
vn 0.445163 0.895450 0.000000
vn 0.281612 0.935259 -0.214441
vn 0.331829 0.936547 -0.113001
vn 0.204018 0.933680 -0.294309
vn 0.107012 0.932414 -0.345185
vn -0.000000 0.931932 -0.362632
vn -0.107012 0.932414 -0.345185
vn -0.204018 0.933681 -0.294308
vn -0.281612 0.935259 -0.214441
vn -0.331829 0.936547 -0.113001
vn -0.349218 0.937042 -0.000000
vn -0.331829 0.936547 0.113001
vn -0.281612 0.935259 0.214440
vn -0.204018 0.933680 0.294309
vn -0.107012 0.932414 0.345185
vn 0.000000 0.931933 0.362632
vn 0.107012 0.932414 0.345185
vn 0.204018 0.933680 0.294309
vn 0.281612 0.935259 0.214441
vn 0.331829 0.936547 0.113001
vn 0.349218 0.937042 -0.000000
vn 0.217664 0.961877 -0.165578
vn 0.256369 0.962636 -0.087216
vn 0.157776 0.960942 -0.227370
vn 0.082795 0.960191 -0.266794
vn -0.000000 0.959904 -0.280328
vn -0.082796 0.960191 -0.266794
vn -0.157776 0.960942 -0.227370
vn -0.217664 0.961877 -0.165578
vn -0.256369 0.962636 -0.087216
vn -0.269760 0.962928 -0.000000
vn -0.256369 0.962636 0.087216
vn -0.217664 0.961877 0.165578
vn -0.157776 0.960942 0.227370
vn -0.082796 0.960191 0.266794
vn 0.000000 0.959905 0.280327
vn 0.082796 0.960191 0.266794
vn 0.157776 0.960942 0.227370
vn 0.217664 0.961877 0.165578
vn 0.256369 0.962636 0.087216
vn 0.269760 0.962927 -0.000001
vn 0.000000 -1.000000 0.000000
vn 0.139240 0.989110 -0.047679
vn 0.118007 0.988893 -0.090360
vn -0.000000 1.000000 0.000000
vn 0.085351 0.988628 -0.123815
vn 0.044710 0.988416 -0.145033
vn -0.000000 0.988336 -0.152289
vn -0.044710 0.988416 -0.145033
vn -0.085351 0.988628 -0.123816
vn -0.118007 0.988893 -0.090359
vn -0.139240 0.989110 -0.047679
vn -0.146613 0.989194 -0.000000
vn -0.139240 0.989110 0.047679
vn -0.118007 0.988893 0.090358
vn -0.085351 0.988628 0.123815
vn -0.044710 0.988416 0.145033
vn 0.000000 0.988336 0.152289
vn 0.044710 0.988416 0.145033
vn 0.085351 0.988628 0.123815
vn 0.118007 0.988893 0.090359
vn 0.139240 0.989110 0.047679
vn 0.146613 0.989194 0.000000
vn 0.798279 -0.142354 -0.585223
vn 0.000000 -1.000000 -0.000000
vn 0.299976 -0.124354 -0.945807
vn -0.314159 -0.102078 -0.943866
vn -0.808756 -0.084073 -0.582105
vn -0.997015 -0.077205 0.000007
vn -0.808751 -0.084065 0.582113
vn -0.314166 -0.102069 0.943865
vn 0.299943 -0.124358 0.945817
vn 0.798277 -0.142372 0.585222
vn 0.988803 -0.149228 -0.000025
vn 0.351780 0.070135 0.933452
vn 0.320973 0.002957 0.947084
vn 0.815277 0.008367 0.579011
vn 0.821766 0.159870 0.546939
vn -0.297025 -0.042484 0.953924
vn -0.304734 0.000602 0.952438
vn -0.810635 -0.118891 0.573355
vn -0.810433 0.003233 0.585823
vn -0.989944 -0.141463 -0.000011
vn -0.999985 0.005503 0.000015
vn -0.810631 -0.118901 -0.573359
vn -0.810442 0.003235 -0.585810
vn -0.297036 -0.042481 -0.953921
vn -0.304726 0.000600 -0.952440
vn 0.351756 0.070182 -0.933457
vn 0.320974 0.002932 -0.947084
vn 0.821767 0.159784 -0.546962
vn 0.815280 0.008406 -0.579005
vn 0.981470 0.191618 0.000041
vn 0.999938 0.011179 0.000026
vn 0.354372 0.137262 0.924975
vn -0.273368 -0.112503 0.955308
vn -0.765439 -0.301957 0.568265
vn -0.931042 -0.364912 -0.000004
vn -0.765506 -0.301964 -0.568171
vn -0.273448 -0.112510 -0.955284
vn 0.354586 0.137302 -0.924888
vn 0.787602 0.315748 -0.529138
vn 0.927287 0.374352 -0.000043
vn 0.787525 0.315766 0.529241
vn -0.789348 0.613945 0.000002
vn -0.725711 0.685416 -0.059569
vn -0.763460 0.639580 -0.089816
vn -0.798160 0.597460 -0.077345
vn -0.819717 0.571237 -0.041860
vn -0.825929 0.563772 0.001568
vn -0.818897 0.572583 0.039467
vn -0.799855 0.595209 0.077193
vn -0.760391 0.643335 0.089026
vn -0.728790 0.682374 0.056838
vn -0.711461 0.702710 0.004724
vn 0.739798 0.425606 0.521113
vn 0.340123 0.204469 0.917883
vn -0.246866 -0.123859 0.961102
vn -0.714996 -0.389408 0.580640
vn -0.876013 -0.482287 0.000044
vn -0.715288 -0.389853 -0.579981
vn -0.247832 -0.124531 -0.960766
vn 0.340785 0.204580 -0.917613
vn 0.740533 0.425490 -0.520163
vn 0.868681 0.495372 0.000050
vn 0.391971 0.729582 -0.560418
vn -0.014734 0.446450 -0.894687
vn -0.020974 0.893277 -0.449017
vn -0.330712 0.630204 -0.702475
vn -0.430863 0.864050 -0.260337
vn -0.599061 0.688718 -0.408403
vn -0.496913 0.100186 -0.861998
vn -0.669529 0.326988 -0.666941
vn -0.776237 0.496166 -0.388942
vn -0.854411 -0.149876 -0.497514
vn -0.918106 0.116193 -0.378920
vn -0.905096 0.364816 -0.218428
vn -0.973950 -0.226758 0.001241
vn -0.998280 0.058558 0.002798
vn -0.943379 0.331694 0.003871
vn -0.857921 -0.143360 0.493375
vn -0.920123 0.125726 0.370899
vn -0.904379 0.371283 0.210350
vn -0.503256 0.101916 0.858106
vn -0.676635 0.327894 0.659281
vn -0.781164 0.493763 0.382076
vn -0.018299 0.455015 0.890296
vn -0.332770 0.641288 0.691385
vn -0.596436 0.697683 0.396865
vn 0.381302 0.738801 0.555681
vn -0.037920 0.897427 0.439531
vn -0.445260 0.859474 0.251094
vn 0.551108 0.834429 0.002902
vn 0.108297 0.994091 0.007447
vn -0.360229 0.932809 0.010153
vn -0.162920 0.066247 0.984413
vn -0.091541 -0.019919 0.995602
vn -0.080273 -0.012167 0.996699
vn -0.152050 0.086000 0.984624
vn 0.025351 0.038453 0.998939
vn 0.045936 0.045032 0.997929
vn 0.012153 0.215060 0.976525
vn -0.010033 0.189445 0.981840
vn 0.099229 0.000296 0.995065
vn 0.056671 0.254382 0.965442
vn 0.076920 0.046921 0.995933
vn -0.025867 0.022842 0.999404
vn -0.013687 0.028899 0.999489
vn -0.061094 0.156469 0.985792
vn -0.082573 0.144146 0.986105
vn -0.039527 0.169340 0.984765
vn 0.001254 0.036304 0.999340
vn -0.056496 0.002125 0.998401
vn -0.041910 0.015331 0.999004
vn -0.108254 0.129558 0.985645
vn -0.129404 0.111907 0.985257
vn 0.040825 -0.041928 0.998286
vn 0.054700 -0.039834 0.997708
vn 0.022910 -0.045999 0.998679
vn 0.009261 -0.048735 0.998769
vn 0.014224 -0.047324 0.998778
vn -0.006842 -0.060367 0.998153
vn 0.001911 -0.053533 0.998564
vn -0.042530 -0.080966 0.995809
vn -0.026807 -0.071536 0.997078
vn 0.080613 -0.035268 0.996121
vn -0.133525 0.023858 -0.990758
vn -0.122642 0.043591 -0.991493
vn -0.050600 -0.054957 -0.997206
vn -0.061900 -0.062663 -0.996113
vn 0.055076 -0.004413 -0.998472
vn 0.019295 0.147150 -0.988926
vn 0.041331 0.172985 -0.984057
vn 0.075626 0.002217 -0.997134
vn 0.128782 -0.042322 -0.990770
vn 0.106538 0.004209 -0.994300
vn 0.085524 0.212773 -0.973351
vn 0.003884 -0.020062 -0.999791
vn -0.053115 0.101665 -0.993400
vn -0.031646 0.114004 -0.992976
vn 0.016065 -0.014006 -0.999773
vn 0.031000 -0.006593 -0.999498
vn -0.010111 0.126921 -0.991861
vn -0.026774 -0.040737 -0.998811
vn -0.099971 0.069462 -0.992563
vn -0.078807 0.087094 -0.993078
vn -0.012168 -0.027559 -0.999546
vn 0.070473 -0.084682 -0.993913
vn 0.084326 -0.082557 -0.993012
vn 0.052574 -0.088777 -0.994663
vn 0.038933 -0.091523 -0.995042
vn 0.043894 -0.090111 -0.994964
vn 0.022811 -0.103129 -0.994407
vn 0.031576 -0.096312 -0.994850
vn 0.002816 -0.114254 -0.993448
vn -0.012943 -0.123630 -0.992244
vn 0.110183 -0.077909 -0.990853
vn -0.931385 0.363397 -0.021585
vn -0.961910 0.272625 -0.020113
vn -0.961922 0.272583 -0.020112
vn -0.931385 0.363397 -0.021585
vn -0.850582 -0.525841 -0.001394
vn -0.850583 -0.525838 -0.001373
vn -0.093594 -0.035769 0.994968
vn -0.204085 0.082706 0.975453
vn 0.244953 0.969385 -0.017067
vn 0.175017 0.984393 -0.018444
vn 0.175017 0.984393 -0.018444
vn 0.244954 0.969384 -0.017067
vn 0.981625 0.190526 0.010586
vn 0.373561 0.927497 -0.014227
vn 0.373561 0.927497 -0.014227
vn 0.981628 0.190509 0.010586
vn -0.381214 0.924128 -0.025760
vn -0.480567 0.876566 -0.026207
vn -0.480556 0.876572 -0.026207
vn -0.381214 0.924128 -0.025760
vn 0.021066 0.999554 -0.021184
vn -0.107395 0.993951 -0.022964
vn -0.107390 0.993952 -0.022964
vn 0.021066 0.999554 -0.021184
vn -0.693555 0.719944 -0.025719
vn -0.769252 0.638451 -0.025138
vn -0.769253 0.638449 -0.025138
vn -0.693555 0.719944 -0.025719
vn 0.747460 -0.663818 0.025496
vn 0.812049 -0.583067 0.024682
vn 0.812063 -0.583047 0.024682
vn 0.747460 -0.663818 0.025496
vn 0.557718 -0.829623 0.026003
vn 0.642786 -0.765602 0.026067
vn 0.642786 -0.765602 0.026067
vn 0.557722 -0.829621 0.026003
vn 0.305280 -0.951940 0.024793
vn 0.384720 -0.922683 0.025434
vn 0.384720 -0.922683 0.025434
vn 0.305271 -0.951943 0.024793
vn -0.001886 -0.999770 0.021389
vn 0.085045 -0.996118 0.022740
vn 0.085045 -0.996118 0.022740
vn -0.001885 -0.999770 0.021389
vn -0.294771 -0.955433 0.016061
vn -0.248405 -0.968508 0.016950
vn -0.248405 -0.968508 0.016950
vn -0.294791 -0.955427 0.016061
vn -0.850585 -0.525837 -0.001358
vn -0.017996 -0.119254 0.992701
vn 0.903950 -0.427039 0.022613
vn 0.903950 -0.427039 0.022613
vn 0.474694 -0.879776 0.025688
vn 0.474694 -0.879776 0.025688
vn -0.224169 0.974248 -0.024268
vn -0.224169 0.974248 -0.024268
vn -0.576112 0.816946 -0.026335
vn -0.576112 0.816946 -0.026335
vn 0.221804 -0.974797 0.023955
vn 0.221804 -0.974797 0.023955
vn -0.840545 0.541203 -0.024157
vn -0.840545 0.541203 -0.024157
vn -0.095073 -0.995274 0.019762
vn -0.095073 -0.995274 0.019762
vn -0.363418 -0.931511 0.014650
vn -0.363418 -0.931511 0.014650
vn -0.063982 -0.078471 -0.994861
vn 0.011461 -0.161734 -0.986768
vn -0.174928 0.040661 -0.983741
vn -0.991016 0.132585 -0.017573
vn -0.991016 0.132585 -0.017573
vn 0.320153 0.947240 -0.015457
vn 0.320153 0.947240 -0.015457
vn 0.865716 -0.499977 0.023657
vn 0.865716 -0.499977 0.023657
vn -0.850583 -0.525839 -0.001413
vn -0.850582 -0.525841 -0.001414
vn -0.850584 -0.525837 -0.001413
vn -0.294787 -0.955424 0.016321
vn -0.294773 -0.955428 0.016322
vn -0.363421 -0.931512 0.014526
vn -0.363421 -0.931512 0.014526
vn -0.248402 -0.968500 0.017465
vn -0.248402 -0.968500 0.017465
vn -0.001886 -0.999768 0.021445
vn -0.001887 -0.999768 0.021445
vn -0.095076 -0.995267 0.020101
vn -0.095076 -0.995267 0.020101
vn 0.085045 -0.996122 0.022530
vn 0.085045 -0.996122 0.022530
vn 0.305273 -0.951935 0.025054
vn 0.305274 -0.951935 0.025054
vn 0.221802 -0.974789 0.024284
vn 0.221802 -0.974789 0.024284
vn 0.384718 -0.922679 0.025626
vn 0.384718 -0.922678 0.025626
vn 0.557722 -0.829621 0.025996
vn 0.557717 -0.829624 0.025996
vn 0.474690 -0.879775 0.025789
vn 0.474690 -0.879775 0.025789
vn 0.642789 -0.765604 0.025941
vn 0.642789 -0.765604 0.025941
vn 0.812060 -0.583058 0.024531
vn 0.812057 -0.583062 0.024531
vn 0.747463 -0.663823 0.025268
vn 0.747463 -0.663823 0.025268
vn 0.865717 -0.499978 0.023580
vn 0.865717 -0.499978 0.023580
vn 0.981628 0.190519 0.010453
vn 0.981628 0.190519 0.010453
vn 0.903949 -0.427040 0.022643
vn 0.903949 -0.427040 0.022643
vn 0.373559 0.927493 -0.014495
vn 0.373559 0.927493 -0.014495
vn 0.244955 0.969383 -0.017128
vn 0.244956 0.969383 -0.017128
vn 0.320153 0.947238 -0.015564
vn 0.320153 0.947238 -0.015564
vn 0.175020 0.984392 -0.018464
vn 0.175020 0.984392 -0.018464
vn -0.107392 0.993953 -0.022891
vn -0.107391 0.993953 -0.022891
vn 0.021067 0.999556 -0.021055
vn 0.021067 0.999556 -0.021055
vn -0.224166 0.974249 -0.024247
vn -0.224166 0.974249 -0.024247
vn -0.480570 0.876571 -0.025977
vn -0.480558 0.876578 -0.025977
vn -0.381220 0.924137 -0.025358
vn -0.381220 0.924137 -0.025358
vn -0.576111 0.816949 -0.026285
vn -0.576111 0.816949 -0.026285
vn -0.769250 0.638451 -0.025193
vn -0.769252 0.638449 -0.025193
vn -0.693553 0.719943 -0.025824
vn -0.693553 0.719943 -0.025824
vn -0.840544 0.541205 -0.024157
vn -0.840544 0.541205 -0.024157
vn -0.961917 0.272599 -0.020162
vn -0.961914 0.272609 -0.020163
vn -0.931383 0.363396 -0.021642
vn -0.931383 0.363396 -0.021642
vn -0.991015 0.132585 -0.017613
vn -0.991015 0.132585 -0.017613
s 1
g Orange
usemtl phong1SG
f 1/1/1 2/2/2 22/3/3 21/4/4
f 2/2/2 3/5/5 23/6/6 22/3/3
f 3/5/5 4/7/7 24/8/8 23/6/6
f 4/7/7 5/9/9 25/582/10 24/8/8
f 5/566/9 6/11/11 26/12/12 25/10/10
f 6/11/11 7/13/13 27/14/14 26/12/12
f 7/13/13 8/15/15 28/16/16 27/14/14
f 8/15/15 9/17/17 29/18/18 28/16/16
f 9/17/17 10/19/19 30/20/20 29/18/18
f 10/19/19 11/21/21 31/22/22 30/20/20
f 11/21/21 12/23/23 32/24/24 31/22/22
f 12/23/23 13/25/25 33/26/26 32/24/24
f 13/25/25 14/27/27 34/28/28 33/26/26
f 14/27/27 15/29/29 35/30/30 34/28/28
f 15/29/29 16/31/31 36/32/32 35/30/30
f 16/31/31 17/33/33 37/34/34 36/32/32
f 17/33/33 18/35/35 38/36/36 37/34/34
f 18/35/35 19/37/37 39/38/38 38/36/36
f 19/37/37 20/39/39 40/40/40 39/38/38
f 20/39/39 1/1/1 21/4/4 40/40/40
f 21/4/4 22/3/3 42/41/41 41/42/42
f 22/3/3 23/6/6 43/43/43 42/41/41
f 23/6/6 24/8/8 44/44/44 43/43/43
f 24/8/8 25/582/10 45/581/45 44/44/44
f 25/10/10 26/12/12 46/46/46 45/45/45
f 26/12/12 27/14/14 47/47/47 46/46/46
f 27/14/14 28/16/16 48/48/48 47/47/47
f 28/16/16 29/18/18 49/49/49 48/48/48
f 29/18/18 30/20/20 50/50/50 49/49/49
f 30/20/20 31/22/22 51/51/51 50/50/50
f 31/22/22 32/24/24 52/52/52 51/51/51
f 32/24/24 33/26/26 53/53/53 52/52/52
f 33/26/26 34/28/28 54/54/54 53/53/53
f 34/28/28 35/30/30 55/55/55 54/54/54
f 35/30/30 36/32/32 56/56/56 55/55/55
f 36/32/32 37/34/34 57/57/57 56/56/56
f 37/34/34 38/36/36 58/58/58 57/57/57
f 38/36/36 39/38/38 59/59/59 58/58/58
f 39/38/38 40/40/40 60/60/60 59/59/59
f 40/40/40 21/4/4 41/42/42 60/60/60
f 41/42/42 42/41/41 62/61/61 61/62/62
f 42/41/41 43/43/43 63/63/63 62/61/61
f 43/43/43 44/44/44 64/64/64 63/63/63
f 44/44/44 45/581/45 65/580/65 64/64/64
f 45/45/45 46/46/46 66/66/66 65/65/65
f 46/46/46 47/47/47 67/67/67 66/66/66
f 47/47/47 48/48/48 68/68/68 67/67/67
f 48/48/48 49/49/49 69/69/69 68/68/68
f 49/49/49 50/50/50 70/70/70 69/69/69
f 50/50/50 51/51/51 71/71/71 70/70/70
f 51/51/51 52/52/52 72/72/72 71/71/71
f 52/52/52 53/53/53 73/73/73 72/72/72
f 53/53/53 54/54/54 74/74/74 73/73/73
f 54/54/54 55/55/55 75/75/75 74/74/74
f 55/55/55 56/56/56 76/76/76 75/75/75
f 56/56/56 57/57/57 77/77/77 76/76/76
f 57/57/57 58/58/58 78/78/78 77/77/77
f 58/58/58 59/59/59 79/79/79 78/78/78
f 59/59/59 60/60/60 80/80/80 79/79/79
f 60/60/60 41/42/42 61/62/62 80/80/80
f 61/62/62 62/61/61 82/81/81 81/82/82
f 62/61/61 63/63/63 83/83/83 82/81/81
f 63/63/63 64/64/64 84/84/84 83/83/83
f 64/64/64 65/580/65 85/579/85 84/84/84
f 65/65/65 66/66/66 86/86/86 85/85/85
f 66/66/66 67/67/67 87/87/87 86/86/86
f 67/67/67 68/68/68 88/88/88 87/87/87
f 68/68/68 69/69/69 89/89/89 88/88/88
f 69/69/69 70/70/70 90/90/90 89/89/89
f 70/70/70 71/71/71 91/91/91 90/90/90
f 71/71/71 72/72/72 92/92/92 91/91/91
f 72/72/72 73/73/73 93/93/93 92/92/92
f 73/73/73 74/74/74 94/94/94 93/93/93
f 74/74/74 75/75/75 95/95/95 94/94/94
f 75/75/75 76/76/76 96/96/96 95/95/95
f 76/76/76 77/77/77 97/97/97 96/96/96
f 77/77/77 78/78/78 98/98/98 97/97/97
f 78/78/78 79/79/79 99/99/99 98/98/98
f 79/79/79 80/80/80 100/100/100 99/99/99
f 80/80/80 61/62/62 81/82/82 100/100/100
f 81/82/82 82/81/81 102/101/101 101/102/102
f 82/81/81 83/83/83 103/103/103 102/101/101
f 83/83/83 84/84/84 104/104/104 103/103/103
f 84/84/84 85/579/85 105/578/105 104/104/104
f 85/85/85 86/86/86 106/106/106 105/105/105
f 86/86/86 87/87/87 107/107/107 106/106/106
f 87/87/87 88/88/88 108/108/108 107/107/107
f 88/88/88 89/89/89 109/109/109 108/108/108
f 89/89/89 90/90/90 110/110/110 109/109/109
f 90/90/90 91/91/91 111/111/111 110/110/110
f 91/91/91 92/92/92 112/112/112 111/111/111
f 92/92/92 93/93/93 113/113/113 112/112/112
f 93/93/93 94/94/94 114/114/114 113/113/113
f 94/94/94 95/95/95 115/115/115 114/114/114
f 95/95/95 96/96/96 116/116/116 115/115/115
f 96/96/96 97/97/97 117/117/117 116/116/116
f 97/97/97 98/98/98 118/118/118 117/117/117
f 98/98/98 99/99/99 119/119/119 118/118/118
f 99/99/99 100/100/100 120/120/120 119/119/119
f 100/100/100 81/82/82 101/102/102 120/120/120
f 101/102/102 102/101/101 122/121/121 121/122/122
f 102/101/101 103/103/103 123/123/123 122/121/121
f 103/103/103 104/104/104 124/124/124 123/123/123
f 104/104/104 105/578/105 125/577/125 124/124/124
f 105/105/105 106/106/106 126/126/126 125/125/125
f 106/106/106 107/107/107 127/127/127 126/126/126
f 107/107/107 108/108/108 128/128/128 127/127/127
f 108/108/108 109/109/109 129/129/129 128/128/128
f 109/109/109 110/110/110 130/130/130 129/129/129
f 110/110/110 111/111/111 131/131/131 130/130/130
f 111/111/111 112/112/112 132/132/132 131/131/131
f 112/112/112 113/113/113 133/133/133 132/132/132
f 113/113/113 114/114/114 134/134/134 133/133/133
f 114/114/114 115/115/115 135/135/135 134/134/134
f 115/115/115 116/116/116 136/136/136 135/135/135
f 116/116/116 117/117/117 137/137/137 136/136/136
f 117/117/117 118/118/118 138/138/138 137/137/137
f 118/118/118 119/119/119 139/139/139 138/138/138
f 119/119/119 120/120/120 140/140/140 139/139/139
f 120/120/120 101/102/102 121/122/122 140/140/140
f 121/122/122 122/121/121 142/141/141 141/142/142
f 122/121/121 123/123/123 143/143/143 142/141/141
f 123/123/123 124/124/124 144/144/144 143/143/143
f 124/124/124 125/577/125 145/576/145 144/144/144
f 125/125/125 126/126/126 146/146/146 145/145/145
f 126/126/126 127/127/127 147/147/147 146/146/146
f 127/127/127 128/128/128 148/148/148 147/147/147
f 128/128/128 129/129/129 149/149/149 148/148/148
f 129/129/129 130/130/130 150/150/150 149/149/149
f 130/130/130 131/131/131 151/151/151 150/150/150
f 131/131/131 132/132/132 152/152/152 151/151/151
f 132/132/132 133/133/133 153/153/153 152/152/152
f 133/133/133 134/134/134 154/154/154 153/153/153
f 134/134/134 135/135/135 155/155/155 154/154/154
f 135/135/135 136/136/136 156/156/156 155/155/155
f 136/136/136 137/137/137 157/157/157 156/156/156
f 137/137/137 138/138/138 158/158/158 157/157/157
f 138/138/138 139/139/139 159/159/159 158/158/158
f 139/139/139 140/140/140 160/160/160 159/159/159
f 140/140/140 121/122/122 141/142/142 160/160/160
f 141/142/142 142/141/141 162/161/161 161/162/162
f 142/141/141 143/143/143 163/163/163 162/161/161
f 143/143/143 144/144/144 164/164/164 163/163/163
f 144/144/144 145/576/145 165/575/165 164/164/164
f 145/145/145 146/146/146 166/166/166 165/165/165
f 146/146/146 147/147/147 167/167/167 166/166/166
f 147/147/147 148/148/148 168/168/168 167/167/167
f 148/148/148 149/149/149 169/169/169 168/168/168
f 149/149/149 150/150/150 170/170/170 169/169/169
f 150/150/150 151/151/151 171/171/171 170/170/170
f 151/151/151 152/152/152 172/172/172 171/171/171
f 152/152/152 153/153/153 173/173/173 172/172/172
f 153/153/153 154/154/154 174/174/174 173/173/173
f 154/154/154 155/155/155 175/175/175 174/174/174
f 155/155/155 156/156/156 176/176/176 175/175/175
f 156/156/156 157/157/157 177/177/177 176/176/176
f 157/157/157 158/158/158 178/178/178 177/177/177
f 158/158/158 159/159/159 179/179/179 178/178/178
f 159/159/159 160/160/160 180/180/180 179/179/179
f 160/160/160 141/142/142 161/162/162 180/180/180
f 161/162/162 162/161/161 182/181/181 181/182/182
f 162/161/161 163/163/163 183/183/183 182/181/181
f 163/163/163 164/164/164 184/184/184 183/183/183
f 164/164/164 165/575/165 185/574/185 184/184/184
f 165/165/165 166/166/166 186/186/186 185/185/185
f 166/166/166 167/167/167 187/187/187 186/186/186
f 167/167/167 168/168/168 188/188/188 187/187/187
f 168/168/168 169/169/169 189/189/189 188/188/188
f 169/169/169 170/170/170 190/190/190 189/189/189
f 170/170/170 171/171/171 191/191/191 190/190/190
f 171/171/171 172/172/172 192/192/192 191/191/191
f 172/172/172 173/173/173 193/193/193 192/192/192
f 173/173/173 174/174/174 194/194/194 193/193/193
f 174/174/174 175/175/175 195/195/195 194/194/194
f 175/175/175 176/176/176 196/196/196 195/195/195
f 176/176/176 177/177/177 197/197/197 196/196/196
f 177/177/177 178/178/178 198/198/198 197/197/197
f 178/178/178 179/179/179 199/199/199 198/198/198
f 179/179/179 180/180/180 200/200/200 199/199/199
f 180/180/180 161/162/162 181/182/182 200/200/200
f 181/182/182 182/181/181 202/201/201 201/202/202
f 182/181/181 183/183/183 203/203/203 202/201/201
f 183/183/183 184/184/184 204/204/204 203/203/203
f 184/184/184 185/574/185 205/573/205 204/204/204
f 185/185/185 186/186/186 206/206/206 205/205/205
f 186/186/186 187/187/187 207/207/207 206/206/206
f 187/187/187 188/188/188 208/208/208 207/207/207
f 188/188/188 189/189/189 209/209/209 208/208/208
f 189/189/189 190/190/190 210/210/210 209/209/209
f 190/190/190 191/191/191 211/211/211 210/210/210
f 191/191/191 192/192/192 212/212/212 211/211/211
f 192/192/192 193/193/193 213/213/213 212/212/212
f 193/193/193 194/194/194 214/214/214 213/213/213
f 194/194/194 195/195/195 215/215/215 214/214/214
f 195/195/195 196/196/196 216/216/216 215/215/215
f 196/196/196 197/197/197 217/217/217 216/216/216
f 197/197/197 198/198/198 218/218/218 217/217/217
f 198/198/198 199/199/199 219/219/219 218/218/218
f 199/199/199 200/200/200 220/220/220 219/219/219
f 200/200/200 181/182/182 201/202/202 220/220/220
f 201/202/202 202/201/201 222/221/221 221/222/222
f 202/201/201 203/203/203 223/223/223 222/221/221
f 203/203/203 204/204/204 224/224/224 223/223/223
f 204/204/204 205/573/205 225/572/225 224/224/224
f 205/205/205 206/206/206 226/226/226 225/225/225
f 206/206/206 207/207/207 227/227/227 226/226/226
f 207/207/207 208/208/208 228/228/228 227/227/227
f 208/208/208 209/209/209 229/229/229 228/228/228
f 209/209/209 210/210/210 230/230/230 229/229/229
f 210/210/210 211/211/211 231/231/231 230/230/230
f 211/211/211 212/212/212 232/232/232 231/231/231
f 212/212/212 213/213/213 233/233/233 232/232/232
f 213/213/213 214/214/214 234/234/234 233/233/233
f 214/214/214 215/215/215 235/235/235 234/234/234
f 215/215/215 216/216/216 236/236/236 235/235/235
f 216/216/216 217/217/217 237/237/237 236/236/236
f 217/217/217 218/218/218 238/238/238 237/237/237
f 218/218/218 219/219/219 239/239/239 238/238/238
f 219/219/219 220/220/220 240/240/240 239/239/239
f 220/220/220 201/202/202 221/222/222 240/240/240
f 221/222/222 222/221/221 242/241/241 241/242/242
f 222/221/221 223/223/223 243/243/243 242/241/241
f 223/223/223 224/224/224 244/244/244 243/243/243
f 224/224/224 225/572/225 245/571/245 244/244/244
f 225/225/225 226/226/226 246/246/246 245/245/245
f 226/226/226 227/227/227 247/247/247 246/246/246
f 227/227/227 228/228/228 248/248/248 247/247/247
f 228/228/228 229/229/229 249/249/249 248/248/248
f 229/229/229 230/230/230 250/250/250 249/249/249
f 230/230/230 231/231/231 251/251/251 250/250/250
f 231/231/231 232/232/232 252/252/252 251/251/251
f 232/232/232 233/233/233 253/253/253 252/252/252
f 233/233/233 234/234/234 254/254/254 253/253/253
f 234/234/234 235/235/235 255/255/255 254/254/254
f 235/235/235 236/236/236 256/256/256 255/255/255
f 236/236/236 237/237/237 257/257/257 256/256/256
f 237/237/237 238/238/238 258/258/258 257/257/257
f 238/238/238 239/239/239 259/259/259 258/258/258
f 239/239/239 240/240/240 260/260/260 259/259/259
f 240/240/240 221/222/222 241/242/242 260/260/260
f 241/242/242 242/241/241 262/261/261 261/262/262
f 242/241/241 243/243/243 263/263/263 262/261/261
f 243/243/243 244/244/244 264/264/264 263/263/263
f 244/244/244 245/571/245 265/570/265 264/264/264
f 245/245/245 246/246/246 266/266/266 265/265/265
f 246/246/246 247/247/247 267/267/267 266/266/266
f 247/247/247 248/248/248 268/268/268 267/267/267
f 248/248/248 249/249/249 269/269/269 268/268/268
f 249/249/249 250/250/250 270/270/270 269/269/269
f 250/250/250 251/251/251 271/271/271 270/270/270
f 251/251/251 252/252/252 272/272/272 271/271/271
f 252/252/252 253/253/253 273/273/273 272/272/272
f 253/253/253 254/254/254 274/274/274 273/273/273
f 254/254/254 255/255/255 275/275/275 274/274/274
f 255/255/255 256/256/256 276/276/276 275/275/275
f 256/256/256 257/257/257 277/277/277 276/276/276
f 257/257/257 258/258/258 278/278/278 277/277/277
f 258/258/258 259/259/259 279/279/279 278/278/278
f 259/259/259 260/260/260 280/280/280 279/279/279
f 260/260/260 241/242/242 261/262/262 280/280/280
f 261/262/262 262/261/261 282/281/281 281/282/282
f 262/261/261 263/263/263 283/283/283 282/281/281
f 263/263/263 264/264/264 284/284/284 283/283/283
f 264/264/264 265/570/265 285/569/285 284/284/284
f 265/265/265 266/266/266 286/286/286 285/285/285
f 266/266/266 267/267/267 287/287/287 286/286/286
f 267/267/267 268/268/268 288/288/288 287/287/287
f 268/268/268 269/269/269 289/289/289 288/288/288
f 269/269/269 270/270/270 290/290/290 289/289/289
f 270/270/270 271/271/271 291/291/291 290/290/290
f 271/271/271 272/272/272 292/292/292 291/291/291
f 272/272/272 273/273/273 293/293/293 292/292/292
f 273/273/273 274/274/274 294/294/294 293/293/293
f 274/274/274 275/275/275 295/295/295 294/294/294
f 275/275/275 276/276/276 296/296/296 295/295/295
f 276/276/276 277/277/277 297/297/297 296/296/296
f 277/277/277 278/278/278 298/298/298 297/297/297
f 278/278/278 279/279/279 299/299/299 298/298/298
f 279/279/279 280/280/280 300/300/300 299/299/299
f 280/280/280 261/262/262 281/282/282 300/300/300
f 281/282/282 282/281/281 302/301/301 301/302/302
f 282/281/281 283/283/283 303/303/303 302/301/301
f 283/283/283 284/284/284 304/304/304 303/303/303
f 284/284/284 285/569/285 305/568/305 304/304/304
f 285/285/285 286/286/286 306/306/306 305/305/305
f 286/286/286 287/287/287 307/307/307 306/306/306
f 287/287/287 288/288/288 308/308/308 307/307/307
f 288/288/288 289/289/289 309/309/309 308/308/308
f 289/289/289 290/290/290 310/310/310 309/309/309
f 290/290/290 291/291/291 311/311/311 310/310/310
f 291/291/291 292/292/292 312/312/312 311/311/311
f 292/292/292 293/293/293 313/313/313 312/312/312
f 293/293/293 294/294/294 314/314/314 313/313/313
f 294/294/294 295/295/295 315/315/315 314/314/314
f 295/295/295 296/296/296 316/316/316 315/315/315
f 296/296/296 297/297/297 317/317/317 316/316/316
f 297/297/297 298/298/298 318/318/318 317/317/317
f 298/298/298 299/299/299 319/319/319 318/318/318
f 299/299/299 300/300/300 320/320/320 319/319/319
f 300/300/300 281/282/282 301/302/302 320/320/320
f 301/302/302 302/301/301 322/321/321 321/322/322
f 302/301/301 303/303/303 323/323/323 322/321/321
f 303/303/303 304/304/304 324/324/324 323/323/323
f 304/304/304 305/568/305 325/567/325 324/324/324
f 305/305/305 306/306/306 326/326/326 325/325/325
f 306/306/306 307/307/307 327/327/327 326/326/326
f 307/307/307 308/308/308 328/328/328 327/327/327
f 308/308/308 309/309/309 329/329/329 328/328/328
f 309/309/309 310/310/310 330/330/330 329/329/329
f 310/310/310 311/311/311 331/331/331 330/330/330
f 311/311/311 312/312/312 332/332/332 331/331/331
f 312/312/312 313/313/313 333/333/333 332/332/332
f 313/313/313 314/314/314 334/334/334 333/333/333
f 314/314/314 315/315/315 335/335/335 334/334/334
f 315/315/315 316/316/316 336/336/336 335/335/335
f 316/316/316 317/317/317 337/337/337 336/336/336
f 317/317/317 318/318/318 338/338/338 337/337/337
f 318/318/318 319/319/319 339/339/339 338/338/338
f 319/319/319 320/320/320 340/340/340 339/339/339
f 320/320/320 301/302/302 321/322/322 340/340/340
f 321/322/322 322/321/321 342/341/341 341/342/342
f 322/321/321 323/323/323 343/343/343 342/341/341
f 323/323/323 324/324/324 344/344/344 343/343/343
f 324/324/324 325/567/325 345/565/345 344/344/344
f 325/325/325 326/326/326 346/346/346 345/345/345
f 326/326/326 327/327/327 347/347/347 346/346/346
f 327/327/327 328/328/328 348/348/348 347/347/347
f 328/328/328 329/329/329 349/349/349 348/348/348
f 329/329/329 330/330/330 350/350/350 349/349/349
f 330/330/330 331/331/331 351/351/351 350/350/350
f 331/331/331 332/332/332 352/352/352 351/351/351
f 332/332/332 333/333/333 353/353/353 352/352/352
f 333/333/333 334/334/334 354/354/354 353/353/353
f 334/334/334 335/335/335 355/355/355 354/354/354
f 335/335/335 336/336/336 356/356/356 355/355/355
f 336/336/336 337/337/337 357/357/357 356/356/356
f 337/337/337 338/338/338 358/358/358 357/357/357
f 338/338/338 339/339/339 359/359/359 358/358/358
f 339/339/339 340/340/340 360/360/360 359/359/359
f 340/340/340 321/322/322 341/342/342 360/360/360
f 341/342/342 342/341/341 397/361/361 398/362/362
f 342/341/341 343/343/343 396/363/363 397/361/361
f 343/343/343 344/344/344 395/364/364 396/363/363
f 344/344/344 345/565/345 394/365/365 395/364/364
f 345/345/345 346/346/346 393/366/366 394/563/365
f 346/346/346 347/347/347 392/367/367 393/366/366
f 347/347/347 348/348/348 391/368/368 392/367/367
f 348/348/348 349/349/349 390/369/369 391/368/368
f 349/349/349 350/350/350 389/370/370 390/369/369
f 350/350/350 351/351/351 388/371/371 389/370/370
f 351/351/351 352/352/352 387/372/372 388/371/371
f 352/352/352 353/353/353 386/373/373 387/372/372
f 353/353/353 354/354/354 385/374/374 386/373/373
f 354/354/354 355/355/355 384/375/375 385/374/374
f 384/375/375 355/355/355 356/356/356 383/376/376
f 356/356/356 357/357/357 402/377/377 383/376/376
f 357/357/357 358/358/358 401/378/378 402/377/377
f 358/358/358 359/359/359 400/379/379 401/378/378
f 359/359/359 360/360/360 399/380/380 400/379/379
f 360/360/360 341/342/342 398/362/362 399/380/380
f 2/2/2 1/1/1 381/381/381
f 3/5/5 2/2/2 381/381/381
f 4/7/7 3/5/5 381/381/381
f 5/9/9 4/7/7 381/381/381
f 6/11/11 5/566/9 381/381/381
f 7/13/13 6/11/11 381/381/381
f 8/15/15 7/13/13 381/381/381
f 9/17/17 8/15/15 381/381/381
f 10/19/19 9/17/17 381/381/381
f 11/21/21 10/19/19 381/381/381
f 12/23/23 11/21/21 381/381/381
f 13/25/25 12/23/23 381/381/381
f 14/27/27 13/25/25 381/381/381
f 15/29/29 14/27/27 381/381/381
f 16/31/31 15/29/29 381/381/381
f 17/33/33 16/31/31 381/381/381
f 18/35/35 17/33/33 381/381/381
f 19/37/37 18/35/35 381/381/381
f 20/39/39 19/37/37 381/381/381
f 1/1/1 20/39/39 381/381/381
f 361/382/382 362/383/383 382/384/384
f 362/383/383 363/385/385 382/384/384
f 363/385/385 364/386/386 382/384/384
f 364/386/386 365/387/387 382/384/384
f 365/564/387 366/388/388 382/384/384
f 366/388/388 367/389/389 382/384/384
f 367/389/389 368/390/390 382/384/384
f 368/390/390 369/391/391 382/384/384
f 369/391/391 370/392/392 382/384/384
f 370/392/392 371/393/393 382/384/384
f 371/393/393 372/394/394 382/384/384
f 372/394/394 373/395/395 382/384/384
f 373/395/395 374/396/396 382/384/384
f 374/396/396 375/397/397 382/384/384
f 375/397/397 376/398/398 382/384/384
f 376/398/398 377/399/399 382/384/384
f 377/399/399 378/400/400 382/384/384
f 378/400/400 379/401/401 382/384/384
f 379/401/401 380/402/402 382/384/384
f 380/402/402 361/382/382 382/384/384
f 375/397/397 384/375/375 383/376/376 376/398/398
f 385/374/374 384/375/375 375/397/397 374/396/396
f 386/373/373 385/374/374 374/396/396 373/395/395
f 387/372/372 386/373/373 373/395/395 372/394/394
f 388/371/371 387/372/372 372/394/394 371/393/393
f 389/370/370 388/371/371 371/393/393 370/392/392
f 390/369/369 389/370/370 370/392/392 369/391/391
f 391/368/368 390/369/369 369/391/391 368/390/390
f 392/367/367 391/368/368 368/390/390 367/389/389
f 393/366/366 392/367/367 367/389/389 366/388/388
f 394/563/365 393/366/366 366/388/388 365/564/387
f 395/364/364 394/365/365 365/387/387 364/386/386
f 396/363/363 395/364/364 364/386/386 363/385/385
f 397/361/361 396/363/363 363/385/385 362/383/383
f 398/362/362 397/361/361 362/383/383 361/382/382
f 399/380/380 398/362/362 361/382/382 380/402/402
f 400/379/379 399/380/380 380/402/402 379/401/401
f 401/378/378 400/379/379 379/401/401 378/400/400
f 402/377/377 401/378/378 378/400/400 377/399/399
f 383/376/376 402/377/377 377/399/399 376/398/398
s 2
f 403/592/403 413/404/404 404/591/405
f 404/591/405 413/404/404 405/590/406
f 405/590/406 413/404/404 406/589/407
f 406/589/407 413/404/404 407/588/408
f 407/588/408 413/404/404 408/587/409
f 408/587/409 413/404/404 409/586/410
f 409/586/410 413/404/404 410/585/411
f 410/585/411 413/404/404 411/583/412
f 411/583/412 413/404/404 412/584/413
f 412/584/413 413/404/404 403/592/403
f 425/414/414 426/415/415 443/416/416 444/417/417
f 426/415/415 425/414/414 428/418/418 427/419/419
f 427/419/419 428/418/418 430/420/420 429/421/421
f 429/421/421 430/420/420 432/422/422 431/601/423
f 431/423/423 432/599/422 434/424/424 433/425/425
f 433/425/425 434/424/424 436/426/426 435/427/427
f 435/427/427 436/426/426 438/428/428 437/429/429
f 437/429/429 438/428/428 440/430/430 439/431/431
f 439/431/431 440/430/430 442/432/432 441/433/433
f 441/433/433 442/432/432 444/417/417 443/416/416
f 412/413/413 403/403/403 439/431/431 441/433/433
f 437/429/429 439/431/431 403/403/403 404/405/405
f 435/427/427 437/429/429 404/405/405 405/406/406
f 433/425/425 435/427/427 405/406/406 406/407/407
f 431/423/423 433/425/425 406/407/407 407/600/408
f 429/421/421 431/601/423 407/408/408 408/409/409
f 427/419/419 429/421/421 408/409/409 409/410/410
f 426/415/415 427/419/419 409/410/410 410/411/411
f 443/416/416 426/415/415 410/411/411 411/412/412
f 441/433/433 443/416/416 411/412/412 412/413/413
f 428/418/418 425/414/414 415/434/434 416/435/435
f 430/420/420 428/418/418 416/435/435 417/436/436
f 432/422/422 430/420/420 417/436/436 418/437/437
f 434/424/424 432/599/422 418/594/437 419/438/438
f 436/426/426 434/424/424 419/438/438 420/439/439
f 438/428/428 436/426/426 420/439/439 421/440/440
f 440/430/430 438/428/428 421/440/440 422/441/441
f 442/432/432 440/430/430 422/441/441 423/442/442
f 444/417/417 442/432/432 423/442/442 424/443/443
f 425/414/414 444/417/417 424/443/443 415/434/434
f 414/444/444 445/445/445 450/446/446
f 414/444/444 450/446/446 455/447/447
f 414/444/444 455/447/447 460/448/448
f 414/444/444 460/448/448 465/595/449
f 414/444/444 465/449/449 470/450/450
f 414/444/444 470/450/450 475/451/451
f 414/444/444 475/451/451 480/452/452
f 414/444/444 480/452/452 485/453/453
f 414/444/444 485/453/453 490/454/454
f 414/444/444 490/454/454 445/445/445
f 489/455/455 484/456/456 415/434/434 424/443/443
f 484/456/456 479/457/457 416/435/435 415/434/434
f 479/457/457 474/458/458 417/436/436 416/435/435
f 474/458/458 469/593/459 418/437/437 417/436/436
f 469/459/459 464/460/460 419/438/438 418/594/437
f 464/460/460 459/461/461 420/439/439 419/438/438
f 459/461/461 454/462/462 421/440/440 420/439/439
f 454/462/462 449/463/463 422/441/441 421/440/440
f 449/463/463 494/464/464 423/442/442 422/441/441
f 494/464/464 489/455/455 424/443/443 423/442/442
f 448/465/465 449/463/463 454/462/462 453/466/466
f 447/467/467 448/465/465 453/466/466 452/468/468
f 445/445/445 446/469/469 451/470/470 450/446/446
f 446/469/469 447/467/467 452/468/468 451/470/470
f 453/466/466 454/462/462 459/461/461 458/471/471
f 452/468/468 453/466/466 458/471/471 457/472/472
f 450/446/446 451/470/470 456/473/473 455/447/447
f 451/470/470 452/468/468 457/472/472 456/473/473
f 458/471/471 459/461/461 464/460/460 463/474/474
f 457/472/472 458/471/471 463/474/474 462/475/475
f 455/447/447 456/473/473 461/476/476 460/448/448
f 456/473/473 457/472/472 462/475/475 461/476/476
f 463/474/474 464/460/460 469/459/459 468/596/477
f 462/475/475 463/474/474 468/596/477 467/597/478
f 460/448/448 461/476/476 466/598/479 465/595/449
f 461/476/476 462/475/475 467/597/478 466/598/479
f 468/477/477 469/593/459 474/458/458 473/480/480
f 467/478/478 468/477/477 473/480/480 472/481/481
f 465/449/449 466/479/479 471/482/482 470/450/450
f 466/479/479 467/478/478 472/481/481 471/482/482
f 473/480/480 474/458/458 479/457/457 478/483/483
f 472/481/481 473/480/480 478/483/483 477/484/484
f 470/450/450 471/482/482 476/485/485 475/451/451
f 471/482/482 472/481/481 477/484/484 476/485/485
f 478/483/483 479/457/457 484/456/456 483/486/486
f 477/484/484 478/483/483 483/486/486 482/487/487
f 475/451/451 476/485/485 481/488/488 480/452/452
f 476/485/485 477/484/484 482/487/487 481/488/488
f 483/486/486 484/456/456 489/455/455 488/489/489
f 482/487/487 483/486/486 488/489/489 487/490/490
f 480/452/452 481/488/488 486/491/491 485/453/453
f 481/488/488 482/487/487 487/490/490 486/491/491
f 488/489/489 489/455/455 494/464/464 493/492/492
f 487/490/490 488/489/489 493/492/492 492/493/493
f 485/453/453 486/491/491 491/494/494 490/454/454
f 486/491/491 487/490/490 492/493/493 491/494/494
f 449/463/463 448/465/465 493/492/492 494/464/464
f 448/465/465 447/467/467 492/493/493 493/492/492
f 447/467/467 446/469/469 491/494/494 492/493/493
f 446/469/469 445/445/445 490/454/454 491/494/494
s 5
f 556/495/495 551/496/496 516/497/497 515/498/498
f 519/499/499 562/500/500 557/501/501 518/502/502
f 522/503/503 520/504/504 521/505/505
f 542/506/506 526/507/507 525/508/508 541/509/509
f 538/510/510 533/511/511 519/499/499 518/502/502
f 548/512/512 524/513/513 523/514/514 547/515/515
f 527/516/516 561/517/517 562/500/500 519/499/499
f 534/518/518 527/516/516 519/499/499 533/511/511
f 543/519/519 529/520/520 526/507/507 542/506/506
f 549/521/521 530/522/522 524/513/513 548/512/512
f 551/496/496 552/523/523 531/524/524 516/497/497
f 528/525/525 522/503/503 521/505/505
s 9
f 555/526/526 496/527/527 512/528/528 554/529/529
f 509/530/530 499/531/531 558/532/532 559/533/533
f 501/534/534 508/535/535 500/536/536
f 539/537/537 540/538/538 498/539/539 510/540/540
f 536/541/541 537/542/542 499/531/531 509/530/530
f 545/543/543 546/544/544 497/545/545 511/546/546
f 503/547/547 509/530/530 559/533/533 560/548/548
f 535/549/549 536/541/541 509/530/530 503/547/547
f 544/550/550 539/537/537 510/540/540 504/551/551
f 550/552/552 545/543/543 511/546/546 505/553/553
f 554/529/529 512/528/528 506/554/554 553/555/555
f 502/556/556 508/535/535 501/534/534
s 13
f 585/628/557 586/626/558 556/495/559 515/498/560
s 5
f 563/602/561 564/649/562 517/558/563 514/559/564
s 15
f 578/635/565 579/634/566 518/502/567 557/501/568
s 16
f 576/637/569 577/636/570 520/504/571 522/503/572
s 17
f 581/632/573 582/631/574 541/509/575 525/508/576
s 18
f 579/634/577 580/633/578 538/510/579 518/502/580
s 19
f 583/630/581 584/629/582 547/515/583 523/514/584
s 20
f 573/640/585 574/639/586 561/517/587 527/516/588
s 21
f 572/641/589 573/640/590 527/516/591 534/518/592
s 22
f 570/643/593 571/642/594 529/520/595 543/519/596
s 23
f 568/645/597 569/644/598 530/522/599 549/521/600
s 24
f 566/647/601 567/646/602 531/524/603 552/523/604
s 5
f 564/649/562 565/648/605 532/562/606 517/558/563
s 16
f 575/638/607 576/637/569 522/503/572 528/525/608
s 5
f 529/520/520 534/518/518 533/511/511 526/507/507
s 21
f 571/642/609 572/641/589 534/518/592 529/520/610
s 9
f 504/551/551 510/540/540 536/541/541 535/549/549
f 510/540/540 498/539/539 537/542/542 536/541/541
s 18
f 580/633/578 581/632/611 525/508/612 538/510/579
s 5
f 526/507/507 533/511/511 538/510/510 525/508/508
s 9
f 511/546/546 497/545/545 540/538/538 539/537/537
s 17
f 582/631/574 583/630/613 523/514/614 541/509/575
s 5
f 524/513/513 542/506/506 541/509/509 523/514/514
f 530/522/522 543/519/519 542/506/506 524/513/513
s 22
f 569/644/615 570/643/593 543/519/596 530/522/616
s 9
f 505/553/553 511/546/546 539/537/537 544/550/550
f 512/528/528 496/527/527 546/544/544 545/543/543
s 19
f 584/629/582 585/628/617 515/498/618 547/515/583
s 5
f 516/497/497 548/512/512 547/515/515 515/498/498
f 531/524/524 549/521/521 548/512/512 516/497/497
s 23
f 567/646/619 568/645/597 549/521/600 531/524/620
s 9
f 506/554/554 512/528/528 545/543/543 550/552/552
s 5
f 517/558/563 532/562/606 552/523/523 551/496/496
s 24
f 565/648/621 566/647/601 552/523/604 532/562/622
s 9
f 513/557/623 554/529/529 553/555/555 507/561/624
f 495/560/625 555/526/526 554/529/529 513/557/623
s 13
f 586/626/558 563/602/626 514/559/627 556/495/559
s 5
f 514/559/564 517/558/563 551/496/496 556/495/495
s 15
f 577/636/628 578/635/565 557/501/568 520/504/629
s 9
f 559/533/533 558/532/532 500/536/536 508/535/535
f 560/548/548 559/533/533 508/535/535 502/556/556
s 20
f 574/639/586 575/638/630 528/525/631 561/517/587
s 5
f 562/500/500 561/517/517 528/525/525 521/505/505
f 557/501/501 562/500/500 521/505/505 520/504/504
s 9
f 513/557/623 564/603/632 563/627/633 495/560/625
f 507/561/624 565/604/634 564/603/632 513/557/623
s 25
f 553/555/635 566/605/636 565/604/637 507/561/638
f 506/554/639 567/606/640 566/605/636 553/555/635
s 26
f 550/552/641 568/607/642 567/606/643 506/554/644
f 505/553/645 569/608/646 568/607/642 550/552/641
s 27
f 544/550/647 570/609/648 569/608/649 505/553/650
f 504/551/651 571/610/652 570/609/648 544/550/647
s 28
f 535/549/653 572/611/654 571/610/655 504/551/656
f 503/547/657 573/612/658 572/611/654 535/549/653
s 29
f 560/548/659 574/613/660 573/612/661 503/547/662
f 502/556/663 575/614/664 574/613/660 560/548/659
s 30
f 501/534/665 576/615/666 575/614/667 502/556/668
f 500/536/669 577/616/670 576/615/666 501/534/665
s 31
f 558/532/671 578/617/672 577/616/673 500/536/674
f 499/531/675 579/618/676 578/617/672 558/532/671
s 32
f 537/542/677 580/619/678 579/618/679 499/531/680
f 498/539/681 581/620/682 580/619/678 537/542/677
s 33
f 540/538/683 582/621/684 581/620/685 498/539/686
f 497/545/687 583/622/688 582/621/684 540/538/683
s 34
f 546/544/689 584/623/690 583/622/691 497/545/692
f 496/527/693 585/624/694 584/623/690 546/544/689
s 35
f 555/526/695 586/625/696 585/624/697 496/527/698
f 495/560/699 563/627/700 586/625/696 555/526/695
